<svg width="40" height="40" viewBox="0 0 40 40" fill="none" xmlns="http://www.w3.org/2000/svg">
<rect opacity="0.1" width="40" height="40" rx="20" fill="#136849"/>
<path fill-rule="evenodd" clip-rule="evenodd" d="M13 20.874V29.998H15V20.874C16.767 20.4188 18.002 18.8253 18.002 17.0005C18.002 15.1758 16.767 13.5823 15 13.127V9.99805H13V13.127C11.2329 13.5823 9.99799 15.1758 9.99799 17.0005C9.99799 18.8253 11.2329 20.4188 13 20.874ZM12 16.998C12 15.8935 12.8954 14.998 14 14.998C14.5304 14.998 15.0391 15.2088 15.4142 15.5838C15.7893 15.9589 16 16.4676 16 16.998C16 18.1026 15.1046 18.998 14 18.998C12.8954 18.998 12 18.1026 12 16.998ZM27 26.872V29.998H25V26.872C23.232 26.4175 21.996 24.8236 21.996 22.998C21.996 21.1725 23.232 19.5786 25 19.124V9.99805H27V19.124C28.768 19.5786 30.0039 21.1725 30.0039 22.998C30.0039 24.8236 28.768 26.4175 27 26.872ZM24 22.998C24 21.8935 24.8954 20.998 26 20.998C27.1046 20.998 28 21.8935 28 22.998C28 24.1026 27.1046 24.998 26 24.998C24.8954 24.998 24 24.1026 24 22.998Z" fill="#136849"/>
</svg>
