<svg width="33" height="33" viewBox="0 0 33 33" fill="none" xmlns="http://www.w3.org/2000/svg">
<g filter="url(#filter0_d_489_1606)">
<circle cx="16.5" cy="12.5" r="12.5" fill="white"/>
</g>
<mask id="mask0_489_1606" style="mask-type:alpha" maskUnits="userSpaceOnUse" x="9" y="5" width="15" height="15">
<rect x="9.8335" y="5.8335" width="13.3333" height="13.3333" fill="#D9D9D9"/>
</mask>
<g mask="url(#mask0_489_1606)">
<path d="M16.4999 17.1262L15.8867 16.5749C14.9658 15.7395 14.2042 15.0215 13.602 14.4211C12.9998 13.8207 12.5226 13.2863 12.1704 12.818C11.8181 12.3497 11.5721 11.9225 11.4321 11.5365C11.2921 11.1504 11.2222 10.7587 11.2222 10.3613C11.2222 9.57281 11.488 8.91273 12.0197 8.38104C12.5514 7.84934 13.2115 7.5835 13.9999 7.5835C14.485 7.5835 14.9433 7.69693 15.3749 7.92379C15.8066 8.15064 16.1816 8.47596 16.4999 8.89975C16.8183 8.47596 17.1933 8.15064 17.6249 7.92379C18.0566 7.69693 18.5149 7.5835 18.9999 7.5835C19.7884 7.5835 20.4485 7.84934 20.9802 8.38104C21.5118 8.91273 21.7777 9.57281 21.7777 10.3613C21.7777 10.7587 21.7077 11.1504 21.5678 11.5365C21.4278 11.9225 21.1817 12.3497 20.8295 12.818C20.4773 13.2863 20.001 13.8207 19.4006 14.4211C18.8001 15.0215 18.0377 15.7395 17.1132 16.5749L16.4999 17.1262ZM16.4999 16.0001C17.3888 15.2003 18.1203 14.5147 18.6944 13.9435C19.2685 13.3723 19.7222 12.876 20.0555 12.4547C20.3888 12.0334 20.6203 11.6593 20.7499 11.3324C20.8796 11.0055 20.9444 10.6818 20.9444 10.3613C20.9444 9.8057 20.7592 9.34274 20.3888 8.97237C20.0185 8.602 19.5555 8.41682 18.9999 8.41682C18.5612 8.41682 18.1557 8.54128 17.7836 8.79022C17.4114 9.03914 17.1167 9.38548 16.8995 9.82922H16.1004C15.8796 9.38192 15.584 9.0347 15.2136 8.78754C14.8432 8.54039 14.4387 8.41682 13.9999 8.41682C13.4479 8.41682 12.9859 8.602 12.6137 8.97237C12.2416 9.34274 12.0555 9.8057 12.0555 10.3613C12.0555 10.6818 12.1203 11.0055 12.2499 11.3324C12.3796 11.6593 12.611 12.0334 12.9444 12.4547C13.2777 12.876 13.7314 13.3714 14.3055 13.9409C14.8796 14.5103 15.611 15.1967 16.4999 16.0001Z" fill="#136849"/>
</g>
<defs>
<filter id="filter0_d_489_1606" x="0" y="0" width="33" height="33" filterUnits="userSpaceOnUse" color-interpolation-filters="sRGB">
<feFlood flood-opacity="0" result="BackgroundImageFix"/>
<feColorMatrix in="SourceAlpha" type="matrix" values="0 0 0 0 0 0 0 0 0 0 0 0 0 0 0 0 0 0 127 0" result="hardAlpha"/>
<feOffset dy="4"/>
<feGaussianBlur stdDeviation="2"/>
<feComposite in2="hardAlpha" operator="out"/>
<feColorMatrix type="matrix" values="0 0 0 0 0 0 0 0 0 0 0 0 0 0 0 0 0 0 0.25 0"/>
<feBlend mode="normal" in2="BackgroundImageFix" result="effect1_dropShadow_489_1606"/>
<feBlend mode="normal" in="SourceGraphic" in2="effect1_dropShadow_489_1606" result="shape"/>
</filter>
</defs>
</svg>
