<svg width="16" height="16" viewBox="0 0 16 16" fill="none" xmlns="http://www.w3.org/2000/svg">
<g clip-path="url(#clip0_374_7260)">
<path d="M6 4.66667H4M11.8333 4.66667H10M8 15C4.134 15 1 11.866 1 8C1 4.134 4.134 1 8 1C11.866 1 15 4.134 15 8C15 11.866 11.866 15 8 15ZM8.24467 8.66667H7.75467C6.38467 8.66667 5.036 8.32267 3.83333 7.66667H3.66667V8C3.66667 9.14927 4.12321 10.2515 4.93587 11.0641C5.74853 11.8768 6.85073 12.3333 8 12.3333C9.14927 12.3333 10.2515 11.8768 11.0641 11.0641C11.8768 10.2515 12.3333 9.14927 12.3333 8V7.66667H12.1667C10.9636 8.32291 9.61508 8.66674 8.24467 8.66667Z" stroke="#12AD5F"/>
</g>
<defs>
<clipPath id="clip0_374_7260">
<rect width="16" height="16" fill="white"/>
</clipPath>
</defs>
</svg>
