<svg width="11" height="11" viewBox="0 0 11 11" fill="none" xmlns="http://www.w3.org/2000/svg">
<g clip-path="url(#clip0_374_7869)">
<path d="M6.87496 6.87484H8.70829L10.0833 10.0832H0.916626L2.29163 6.87484H4.12496M5.95829 3.6665C5.95829 3.78806 5.91 3.90464 5.82405 3.99059C5.7381 4.07655 5.62152 4.12484 5.49996 4.12484C5.3784 4.12484 5.26182 4.07655 5.17587 3.99059C5.08991 3.90464 5.04163 3.78806 5.04163 3.6665C5.04163 3.54495 5.08991 3.42837 5.17587 3.34241C5.26182 3.25646 5.3784 3.20817 5.49996 3.20817C5.62152 3.20817 5.7381 3.25646 5.82405 3.34241C5.91 3.42837 5.95829 3.54495 5.95829 3.6665ZM2.74996 3.6665C2.74996 5.95817 5.49996 8.24984 5.49996 8.24984C5.49996 8.24984 8.24996 5.95817 8.24996 3.6665C8.24996 2.10038 7.01888 0.916504 5.49996 0.916504C3.98104 0.916504 2.74996 2.10038 2.74996 3.6665Z" stroke="#136849" stroke-width="0.5"/>
</g>
<defs>
<clipPath id="clip0_374_7869">
<rect width="11" height="11" fill="white"/>
</clipPath>
</defs>
</svg>
