<svg width="18" height="16" viewBox="0 0 18 16" fill="none" xmlns="http://www.w3.org/2000/svg">
<path d="M6.13641 12.551C5.16184 12.551 4.37183 13.3124 4.37183 14.2515C4.37183 15.1907 5.16188 15.952 6.13641 15.952C7.11099 15.952 7.901 15.1906 7.901 14.2515C7.90104 13.3124 7.11099 12.551 6.13641 12.551ZM6.13641 15.1962C5.59499 15.1962 5.1561 14.7733 5.1561 14.2515C5.1561 13.7298 5.59499 13.3068 6.13641 13.3068C6.67784 13.3068 7.11673 13.7298 7.11673 14.2515C7.11677 14.7733 6.67784 15.1962 6.13641 15.1962Z" fill="white"/>
<path d="M13.5871 12.551C12.6125 12.551 11.8225 13.3124 11.8225 14.2515C11.8225 15.1907 12.6126 15.952 13.5871 15.952C14.5616 15.952 15.3517 15.1906 15.3517 14.2515C15.3517 13.3124 14.5617 12.551 13.5871 12.551ZM13.5871 15.1962C13.0457 15.1962 12.6068 14.7733 12.6068 14.2515C12.6068 13.7298 13.0457 13.3068 13.5871 13.3068C14.1285 13.3068 14.5674 13.7298 14.5674 14.2515C14.5675 14.7733 14.1285 15.1962 13.5871 15.1962Z" fill="white"/>
<path d="M17.5672 2.63148C17.4855 2.54552 17.3738 2.4917 17.2535 2.48031L4.48952 2.31026L4.1366 1.27106C3.88797 0.576372 3.21291 0.107385 2.45041 0.0996094H1.13676C0.920187 0.0996094 0.744629 0.268789 0.744629 0.477497C0.744629 0.686205 0.920187 0.855385 1.13676 0.855385H2.45041C2.87677 0.864462 3.2522 1.12829 3.39155 1.5167L5.8816 8.75323L5.68555 9.18779C5.46687 9.7312 5.53255 10.3428 5.86201 10.8316C6.18832 11.3116 6.73728 11.6079 7.33252 11.6252H14.9595C15.1761 11.6252 15.3517 11.456 15.3517 11.2473C15.3517 11.0386 15.1761 10.8694 14.9595 10.8694H7.33249C6.99634 10.8613 6.68692 10.6909 6.509 10.4159C6.33307 10.1443 6.29693 9.80972 6.41097 9.50897L6.56784 9.16888L14.8223 8.33752C15.729 8.24128 16.4748 7.60579 16.6849 6.75038L17.6261 2.95263C17.6685 2.84326 17.6459 2.72027 17.5672 2.63148ZM15.9202 6.58037C15.7929 7.13102 15.3078 7.53719 14.7242 7.58178L6.56784 8.39422L4.74441 3.06604L16.7633 3.23609L15.9202 6.58037Z" fill="white"/>
</svg>
