<svg width="19" height="19" viewBox="0 0 19 19" fill="none" xmlns="http://www.w3.org/2000/svg">
<path fill-rule="evenodd" clip-rule="evenodd" d="M16.0141 9.62408C16.0231 9.92749 16.0077 10.2311 15.9681 10.5321L18.0111 12.0301C18.1562 12.191 18.1927 12.4223 18.1041 12.6201L16.2471 15.7511C16.1363 15.9465 15.8949 16.0253 15.6901 15.9331L13.3691 15.0251C12.8801 15.3879 12.3505 15.6926 11.7911 15.9331L11.4191 18.3331C11.3597 18.542 11.1722 18.6887 10.9551 18.6961H7.23813C7.01474 18.7072 6.81709 18.5526 6.77413 18.3331L6.40313 15.9331C5.83856 15.703 5.30774 15.3976 4.82513 15.0251L2.51313 15.9391C2.30795 16.0233 2.072 15.9462 1.95613 15.7571L0.0991279 12.6261C0.0317907 12.536 0.00368925 12.4226 0.0211999 12.3115C0.0387105 12.2004 0.100348 12.1011 0.192128 12.0361L2.14113 10.5361C2.14113 10.3771 2.12963 10.2296 2.11813 10.0821C2.10663 9.93458 2.09513 9.78708 2.09513 9.62808C2.09513 9.46908 2.10663 9.32158 2.11813 9.17408C2.12963 9.02658 2.14113 8.87908 2.14113 8.72008L0.141128 7.22008C-0.00374268 7.05907 -0.0401906 6.82784 0.0481279 6.63008L1.90513 3.49908C2.01596 3.3037 2.25732 3.22483 2.46213 3.31708L4.78313 4.22508C5.27218 3.86231 5.80173 3.5576 6.36113 3.31708L6.73213 0.917077C6.79152 0.708132 6.97903 0.56144 7.19613 0.554077H10.9091C11.1262 0.56144 11.3137 0.708132 11.3731 0.917077L11.6981 3.31708C12.2627 3.54715 12.7935 3.85259 13.2761 4.22508L15.5971 3.31708C15.8023 3.23288 16.0383 3.30998 16.1541 3.49908L18.0101 6.62608C18.0775 6.71615 18.1056 6.8296 18.0881 6.94069C18.0705 7.05178 18.0089 7.15109 17.9171 7.21608L15.9681 8.71608C15.9681 8.87508 15.9796 9.02258 15.9911 9.17008C16.0026 9.31758 16.0141 9.46508 16.0141 9.62408ZM5.94749 9.57683C5.92109 11.3219 7.30731 12.7615 9.05213 12.8011C9.90569 12.8161 10.7297 12.4886 11.3402 11.8919C11.9506 11.2951 12.2967 10.4788 12.3011 9.62508C12.3012 7.87981 10.8935 6.46124 9.14825 6.44798C7.40304 6.43473 5.9739 7.83176 5.94749 9.57683Z" fill="#136849"/>
</svg>
