<svg width="33" height="32" viewBox="0 0 33 32" fill="none" xmlns="http://www.w3.org/2000/svg">
<ellipse cx="16.5" cy="16" rx="16.5" ry="16" fill="#12AD5F"/>
<g clip-path="url(#clip0_826_4)">
<path d="M14.1363 20.5509C13.1617 20.5509 12.3717 21.3122 12.3717 22.2514C12.3717 23.1905 13.1618 23.9518 14.1363 23.9518C15.1109 23.9518 15.9009 23.1905 15.9009 22.2514C15.9009 21.3122 15.1109 20.5509 14.1363 20.5509ZM14.1363 23.1961C13.5949 23.1961 13.156 22.7731 13.156 22.2514C13.156 21.7296 13.5949 21.3067 14.1363 21.3067C14.6777 21.3067 15.1166 21.7296 15.1166 22.2514C15.1166 22.7731 14.6777 23.1961 14.1363 23.1961Z" fill="white"/>
<path d="M21.5869 20.5509C20.6123 20.5509 19.8223 21.3122 19.8223 22.2514C19.8223 23.1905 20.6123 23.9518 21.5869 23.9518C22.5614 23.9518 23.3514 23.1905 23.3514 22.2514C23.3514 21.3122 22.5614 20.5509 21.5869 20.5509ZM21.5869 23.1961C21.0454 23.1961 20.6065 22.7731 20.6065 22.2514C20.6065 21.7296 21.0454 21.3067 21.5869 21.3067C22.1283 21.3067 22.5672 21.7296 22.5672 22.2514C22.5672 22.7731 22.1283 23.1961 21.5869 23.1961Z" fill="white"/>
<path d="M25.567 10.6314C25.4854 10.5454 25.3737 10.4916 25.2533 10.4802L12.4894 10.3102L12.1365 9.27096C11.8879 8.57627 11.2128 8.10728 10.4503 8.0995H9.13664C8.92006 8.0995 8.74451 8.26868 8.74451 8.47739C8.74451 8.6861 8.92006 8.85528 9.13664 8.85528H10.4503C10.8766 8.86436 11.2521 9.12818 11.3914 9.51659L13.8815 16.7531L13.6854 17.1877C13.4667 17.7311 13.5324 18.3427 13.8619 18.8315C14.1882 19.3115 14.7372 19.6078 15.3324 19.6251H22.9594C23.176 19.6251 23.3516 19.4559 23.3516 19.2472C23.3516 19.0385 23.176 18.8693 22.9594 18.8693H15.3324C14.9962 18.8612 14.6868 18.6908 14.5089 18.4158C14.3329 18.1442 14.2968 17.8096 14.4109 17.5089L14.5677 17.1688L22.8221 16.3374C23.7288 16.2412 24.4747 15.6057 24.6848 14.7503L25.6259 10.9525C25.6683 10.8432 25.6458 10.7202 25.567 10.6314ZM23.9201 14.5803C23.7928 15.1309 23.3077 15.5371 22.7241 15.5817L14.5677 16.3941L12.7443 11.0659L24.7632 11.236L23.9201 14.5803Z" fill="white"/>
</g>
<defs>
<clipPath id="clip0_826_4">
<rect width="16.9025" height="16.2884" fill="white" transform="translate(8.74451 7.8815)"/>
</clipPath>
</defs>
</svg>
