<svg width="244" height="219" viewBox="0 0 244 219" fill="none" xmlns="http://www.w3.org/2000/svg">
<path d="M222.272 109.5C222.361 146.298 203.801 180.636 172.966 200.719C155.43 212.311 134.864 218.471 113.843 218.426C53.8269 218.426 5.18994 169.566 5.18994 109.5C5.18994 49.21 53.8269 0.573975 113.619 0.573975C173.694 0.668898 222.328 49.4253 222.272 109.5Z" fill="#136849"/>
<path d="M12.4668 203.695C13.4775 203.701 14.4484 203.301 15.1614 202.585C15.8744 201.868 16.2698 200.896 16.2588 199.885C16.2701 198.874 15.8748 197.901 15.1618 197.184C14.4488 196.468 13.4777 196.068 12.4668 196.074C11.4557 196.067 10.4845 196.467 9.7712 197.184C9.05794 197.901 8.66253 198.874 8.67382 199.885C8.6628 200.896 9.05833 201.869 9.77156 202.585C10.4848 203.302 11.4559 203.701 12.4668 203.695Z" fill="#12AD5F"/>
<path d="M45.2889 31.952C46.2418 31.9621 47.1583 31.5869 47.8305 30.9115C48.5027 30.2361 48.8735 29.3178 48.8589 28.365C48.8733 27.4125 48.5023 26.4945 47.8301 25.8195C47.1579 25.1445 46.2415 24.7696 45.2889 24.78C44.3364 24.7696 43.42 25.1445 42.7478 25.8195C42.0756 26.4945 41.7046 27.4125 41.7189 28.365C41.7043 29.3178 42.0752 30.2361 42.7474 30.9115C43.4196 31.5869 44.3361 31.9621 45.2889 31.952Z" fill="#FE2121"/>
<path d="M236.288 28.3659C238.194 28.3864 240.027 27.6359 241.372 26.2848C242.716 24.9337 243.458 23.0967 243.428 21.1909C243.457 19.2859 242.714 17.45 241.37 16.1C240.026 14.7499 238.193 14.0002 236.288 14.0209C234.383 14.0005 232.55 14.7503 231.206 16.1004C229.862 17.4504 229.12 19.2861 229.149 21.1909C229.119 23.0966 229.86 24.9334 231.205 26.2845C232.549 27.6355 234.382 28.3861 236.288 28.3659Z" fill="#FAE7AF"/>
<path d="M214.686 17.384V198.926C214.746 200.328 213.931 201.62 212.64 202.169C211.35 202.718 209.853 202.409 208.886 201.393L205.094 197.806C203.734 196.462 201.545 196.462 200.185 197.806L193.046 204.755C191.686 206.099 189.498 206.099 188.139 204.755L181 197.806C179.64 196.462 177.451 196.462 176.091 197.806L168.952 204.755C167.592 206.099 165.403 206.099 164.043 204.755L156.904 197.806C155.544 196.462 153.356 196.462 151.996 197.806L145.08 204.755C143.72 206.099 141.532 206.099 140.172 204.755L133.033 197.806C131.673 196.462 129.485 196.462 128.125 197.806L120.986 204.755C119.626 206.099 117.438 206.099 116.078 204.755L108.939 197.806C107.579 196.462 105.391 196.462 104.031 197.806L96.8918 204.755C95.5319 206.099 93.3437 206.099 91.9838 204.755L82.6138 195.341L81.9448 196.013L76.3598 201.393C75.3922 202.409 73.8961 202.718 72.6052 202.169C71.3143 201.62 70.4992 200.328 70.5598 198.926V17.384C70.5001 15.9828 71.3155 14.6915 72.6062 14.1429C73.8969 13.5944 75.3924 13.9036 76.3598 14.919L80.1528 18.505C81.513 19.8485 83.7006 19.8485 85.0608 18.505L92.1998 11.558C93.5591 10.2123 95.7485 10.2123 97.1078 11.558L104.247 18.505C105.607 19.8491 107.795 19.8491 109.155 18.505L116.294 11.558C117.653 10.2123 119.843 10.2123 121.202 11.558L128.341 18.505C129.701 19.8491 131.889 19.8491 133.249 18.505L140.388 11.558C141.747 10.2123 143.937 10.2123 145.296 11.558L152.212 18.505C153.572 19.8491 155.76 19.8491 157.12 18.505L164.26 11.557C165.619 10.2111 167.809 10.2111 169.169 11.557L176.308 18.504C177.667 19.8479 179.855 19.8479 181.215 18.504L188.36 11.557C189.719 10.2111 191.909 10.2111 193.269 11.557L200.408 18.504C201.768 19.8482 203.957 19.8482 205.317 18.504L209.109 14.919C211.117 12.678 214.686 14.248 214.686 17.384Z" fill="white"/>
<path d="M187.69 58.1749H172.073C170.479 58.1423 169.197 56.8538 169.173 55.2599C169.198 53.6668 170.48 52.3795 172.073 52.3469H187.69C189.283 52.3795 190.564 53.6668 190.59 55.2599C190.565 56.8538 189.284 58.1423 187.69 58.1749Z" fill="#12AD5F"/>
<path d="M157.795 58.1749H96.2169C94.6232 58.1423 93.3413 56.8538 93.3169 55.2599C93.3424 53.6668 94.6239 52.3795 96.2169 52.3469H157.795C159.388 52.3801 160.669 53.6671 160.695 55.2599C160.67 56.8536 159.388 58.1418 157.795 58.1749Z" fill="#12AD5F"/>
<path d="M187.691 85.9669H160.917C159.323 85.9353 158.041 84.6468 158.017 83.0529C158.041 81.4594 159.323 80.1715 160.917 80.1399H187.691C189.284 80.1715 190.566 81.4594 190.591 83.0529C190.567 84.6468 189.285 85.9353 187.691 85.9669Z" fill="#12AD5F"/>
<path d="M146.639 85.9669H119.197C117.603 85.9348 116.321 84.6466 116.297 83.0529C116.322 81.4596 117.604 80.172 119.197 80.1399H146.862C148.455 80.172 149.737 81.4596 149.762 83.0529C149.633 84.6866 148.278 85.9512 146.639 85.9669Z" fill="#12AD5F"/>
<path d="M108.488 85.9669H96.2169C94.6233 85.9348 93.3413 84.6466 93.3169 83.0529C93.3419 81.4596 94.6237 80.172 96.2169 80.1399H108.488C110.081 80.172 111.363 81.4596 111.388 83.0529C111.363 84.6466 110.081 85.9348 108.488 85.9669Z" fill="#4988FD"/>
<path d="M141.959 113.983H120.759C119.165 113.951 117.883 112.663 117.859 111.069C117.883 109.475 119.165 108.188 120.759 108.156H141.959C143.552 108.188 144.834 109.476 144.859 111.069C144.834 112.663 143.552 113.951 141.959 113.983Z" fill="#12AD5F"/>
<path d="M109.381 113.983H96.2169C94.6233 113.951 93.3413 112.663 93.3169 111.069C93.3419 109.476 94.6237 108.188 96.2169 108.156H109.381C110.974 108.188 112.256 109.476 112.281 111.069C112.256 112.663 110.974 113.951 109.381 113.983Z" fill="#4988FD"/>
<path d="M141.954 141.775H96.2169C94.6232 141.742 93.3413 140.454 93.3169 138.86C93.3424 137.267 94.6239 135.98 96.2169 135.947H141.954C143.547 135.98 144.828 137.267 144.854 138.86C144.829 140.454 143.548 141.742 141.954 141.775Z" fill="#12AD5F"/>
<path d="M141.954 163.963H96.218C94.6716 163.963 93.418 165.217 93.418 166.763C93.418 168.309 94.6716 169.563 96.218 169.563H141.954C143.547 169.531 144.829 168.243 144.854 166.65C144.832 165.907 144.512 165.204 143.967 164.699C143.422 164.193 142.697 163.928 141.954 163.963Z" fill="#12AD5F"/>
<path d="M179.213 172.704C178.144 172.706 177.119 172.28 176.365 171.523C175.611 170.765 175.191 169.738 175.198 168.669V164.411C172.046 164.17 168.956 163.412 166.05 162.17C164.035 161.215 163.071 158.89 163.818 156.79C164.403 155.065 166.013 153.897 167.835 153.877C168.451 153.92 169.055 154.072 169.618 154.326C172.199 155.54 175.022 156.153 177.874 156.119C182.781 156.119 186.128 153.429 186.128 149.619C186.128 146.034 183.674 143.792 177.874 141.328C170.512 138.413 163.817 134.603 163.817 126.086C163.817 119.137 168.503 113.534 175.865 111.964V107.482C175.865 105.264 177.663 103.466 179.881 103.466C182.1 103.466 183.898 105.264 183.898 107.482V111.518C186.344 111.67 188.753 112.198 191.038 113.085C193.097 113.996 194.079 116.364 193.268 118.465C192.586 120.082 191.008 121.139 189.253 121.155C188.722 121.208 188.185 121.131 187.691 120.93C185.496 120.034 183.146 119.578 180.775 119.586C175.419 119.586 173.636 122.499 173.636 125.186C173.636 128.325 175.643 130.117 182.782 133.031C192.153 136.848 196.168 141.773 196.168 149.171C196.168 156.569 191.038 162.393 183.452 163.963V168.669C183.285 170.903 181.453 172.648 179.213 172.704Z" fill="#FAE7AF"/>
<path d="M121.874 78.576V143.576C121.903 145.481 121.161 147.317 119.817 148.667C118.473 150.018 116.64 150.768 114.735 150.747H7.86692C5.96133 150.768 4.12823 150.018 2.78391 148.667C1.43958 147.316 0.698123 145.479 0.727915 143.574V78.574C0.699496 76.6692 1.4415 74.8336 2.78561 73.4837C4.12972 72.1337 5.96203 71.3838 7.86692 71.404H114.735C118.675 71.4406 121.855 74.6355 121.874 78.576Z" fill="#12AD5F"/>
<path opacity="0.2" d="M29.7319 116.447H13.2219C11.7487 116.424 10.5615 115.232 10.5449 113.759C10.5605 112.285 11.7479 111.092 13.2219 111.069H29.7319C31.2059 111.092 32.3934 112.285 32.4089 113.759C32.3174 115.2 31.1723 116.35 29.7319 116.447Z" fill="white"/>
<path opacity="0.2" d="M56.5039 116.447H39.9939C38.5206 116.424 37.3335 115.232 37.3169 113.759C37.3324 112.285 38.5199 111.092 39.9939 111.069H56.5039C57.9779 111.092 59.1653 112.285 59.1809 113.759C59.0889 115.2 57.9441 116.349 56.5039 116.447Z" fill="white"/>
<path opacity="0.2" d="M83.2768 116.447H66.7668C65.2936 116.424 64.1065 115.232 64.0898 113.759C64.1054 112.285 65.2928 111.092 66.7668 111.069H83.2768C84.7509 111.092 85.9383 112.285 85.9538 113.759C85.8619 115.2 84.717 116.349 83.2768 116.447Z" fill="white"/>
<path d="M110.05 136.619H79.4839C78.0106 136.596 76.8235 135.404 76.8069 133.931C76.8224 132.457 78.0099 131.264 79.4839 131.241H109.827C111.302 131.262 112.491 132.456 112.507 133.931C112.548 134.616 112.31 135.288 111.847 135.794C111.384 136.301 110.736 136.598 110.05 136.619Z" fill="white"/>
<path opacity="0.2" d="M110.05 116.447H93.5398C92.0665 116.424 90.8794 115.232 90.8628 113.759C90.8783 112.285 92.0658 111.092 93.5398 111.069H110.05C111.524 111.092 112.711 112.285 112.727 113.759C112.635 115.2 111.49 116.35 110.05 116.447Z" fill="white"/>
<path d="M27.9459 141.326C30.8502 141.34 33.4761 139.601 34.5971 136.921C35.718 134.242 35.1128 131.151 33.064 129.093C31.0153 127.034 27.9274 126.414 25.2428 127.523C22.5583 128.631 20.8069 131.249 20.8069 134.153C20.7981 138.105 23.994 141.316 27.9459 141.326Z" fill="#FAE7AF"/>
<path d="M18.3529 141.326C21.2571 141.34 23.8831 139.601 25.0041 136.921C26.125 134.242 25.5198 131.151 23.471 129.093C21.4222 127.034 18.3344 126.414 15.6498 127.523C12.9653 128.631 11.2139 131.249 11.2139 134.153C11.205 138.105 14.401 141.316 18.3529 141.326Z" fill="#FE2121"/>
<path d="M121.874 84.6221H0.728027V99.8621H121.874V84.6221Z" fill="white"/>
</svg>
