<svg width="20" height="19" viewBox="0 0 20 19" fill="none" xmlns="http://www.w3.org/2000/svg">
<path d="M10 18.0809L8.83808 17.0364C7.09314 15.4534 5.65015 14.0931 4.50912 12.9555C3.3681 11.8178 2.46392 10.8053 1.79658 9.918C1.12923 9.03068 0.662967 8.2213 0.39779 7.48986C0.132597 6.75842 0 6.01618 0 5.26315C0 3.76923 0.503712 2.51856 1.51114 1.51114C2.51856 0.503713 3.76923 0 5.26314 0C6.18218 0 7.05061 0.214923 7.86842 0.644766C8.68622 1.07459 9.39675 1.69099 10 2.49395C10.6032 1.69099 11.3138 1.07459 12.1316 0.644766C12.9494 0.214923 13.8178 0 14.7369 0C16.2308 0 17.4814 0.503713 18.4889 1.51114C19.4963 2.51856 20 3.76923 20 5.26315C20 6.01618 19.8674 6.75842 19.6022 7.48986C19.337 8.2213 18.8708 9.03068 18.2034 9.918C17.5361 10.8053 16.6336 11.8178 15.4959 12.9555C14.3583 14.0931 12.9136 15.4534 11.1619 17.0364L10 18.0809ZM10 15.9474C11.6842 14.4319 13.0702 13.1329 14.1579 12.0506C15.2456 10.9683 16.1053 10.028 16.7369 9.22976C17.3684 8.43151 17.807 7.72267 18.0527 7.10323C18.2983 6.48379 18.4211 5.87043 18.4211 5.26315C18.4211 4.21051 18.0702 3.33332 17.3684 2.63156C16.6667 1.9298 15.7895 1.57893 14.7369 1.57893C13.9055 1.57893 13.1373 1.81476 12.4322 2.28643C11.7271 2.75808 11.1687 3.41429 10.7571 4.25506H9.24292C8.82457 3.40755 8.26451 2.74965 7.56276 2.28135C6.861 1.81307 6.09446 1.57893 5.26314 1.57893C4.21727 1.57893 3.34175 1.9298 2.63661 2.63156C1.93149 3.33332 1.57893 4.21051 1.57893 5.26315C1.57893 5.87043 1.70173 6.48379 1.94735 7.10323C2.19296 7.72267 2.63156 8.43151 3.26314 9.22976C3.89472 10.028 4.75437 10.9666 5.84209 12.0456C6.92982 13.1245 8.31578 14.4251 10 15.9474Z" fill="#136849"/>
</svg>
