<svg width="24" height="24" viewBox="0 0 24 24" fill="none" xmlns="http://www.w3.org/2000/svg">
<path d="M10 15C10 15.2652 10.1054 15.5196 10.2929 15.7071C10.4804 15.8946 10.7348 16 11 16H13C13.2652 16 13.5196 15.8946 13.7071 15.7071C13.8946 15.5196 14 15.2652 14 15C14 14.7348 13.8946 14.4804 13.7071 14.2929C13.5196 14.1054 13.2652 14 13 14H11C10.7348 14 10.4804 14.1054 10.2929 14.2929C10.1054 14.4804 10 14.7348 10 15ZM11 3C11 2.73478 10.8946 2.48043 10.7071 2.29289C10.5196 2.10536 10.2652 2 10 2H6C5.73478 2 5.48043 2.10536 5.29289 2.29289C5.10536 2.48043 5 2.73478 5 3L5 21C5 21.2652 5.10536 21.5196 5.29289 21.7071C5.48043 21.8946 5.73478 22 6 22H10C10.2652 22 10.5196 21.8946 10.7071 21.7071C10.8946 21.5196 11 21.2652 11 21C11 20.7348 11.1054 20.4804 11.2929 20.2929C11.4804 20.1054 11.7348 20 12 20C12.2652 20 12.5196 20.1054 12.7071 20.2929C12.8946 20.4804 13 20.7348 13 21C13 21.2652 13.1054 21.5196 13.2929 21.7071C13.4804 21.8946 13.7348 22 14 22H18C18.2652 22 18.5196 21.8946 18.7071 21.7071C18.8946 21.5196 19 21.2652 19 21V3C19 2.73478 18.8946 2.48043 18.7071 2.29289C18.5196 2.10536 18.2652 2 18 2H14C13.7348 2 13.4804 2.10536 13.2929 2.29289C13.1054 2.48043 13 2.73478 13 3C13 3.26522 12.8946 3.51957 12.7071 3.70711C12.5196 3.89464 12.2652 4 12 4C11.7348 4 11.4804 3.89464 11.2929 3.70711C11.1054 3.51957 11 3.26522 11 3ZM9.18 4C9.3902 4.57915 9.77363 5.07954 10.2782 5.43316C10.7827 5.78678 11.3839 5.97648 12 5.97648C12.6161 5.97648 13.2173 5.78678 13.7218 5.43316C14.2264 5.07954 14.6098 4.57915 14.82 4H17V14C16.7348 14 16.4804 14.1054 16.2929 14.2929C16.1054 14.4804 16 14.7348 16 15C16 15.2652 16.1054 15.5196 16.2929 15.7071C16.4804 15.8946 16.7348 16 17 16V20H14.82C14.6098 19.4208 14.2264 18.9205 13.7218 18.5668C13.2173 18.2132 12.6161 18.0235 12 18.0235C11.3839 18.0235 10.7827 18.2132 10.2782 18.5668C9.77363 18.9205 9.3902 19.4208 9.18 20H7V16C7.26522 16 7.51957 15.8946 7.70711 15.7071C7.89464 15.5196 8 15.2652 8 15C8 14.7348 7.89464 14.4804 7.70711 14.2929C7.51957 14.1054 7.26522 14 7 14L7 4H9.18Z" fill="#136849"/>
</svg>
