<svg width="25" height="27" viewBox="0 0 25 27" fill="none" xmlns="http://www.w3.org/2000/svg">
<path d="M23.421 22.1528H5.74743C5.53012 22.1528 5.43701 21.8673 5.60719 21.7361L8.06743 19.8452H22.1247C23.1242 19.8452 23.9531 19.0237 23.9725 18.0258L24.13 9.91851C24.148 8.99428 23.4712 8.19178 22.5557 8.05494C22.1154 7.98907 21.7029 8.29187 21.6369 8.7329C21.5709 9.17393 21.8753 9.58432 22.3167 9.65032C22.4314 9.66745 22.5162 9.76714 22.514 9.88263L22.3564 17.9944C22.354 18.1191 22.2501 18.23 22.1248 18.23H8.43462L5.88433 7.2037L7.17874 7.39239C7.62006 7.45816 8.03155 7.15189 8.0976 6.71086C8.1636 6.26984 7.85929 5.85765 7.4178 5.79166L5.47895 5.50131L4.73777 2.62018C4.64611 2.26303 4.32397 2.01953 3.95494 2.01953H0.808214C0.361879 2.01953 0 2.38124 0 2.82717C0 3.2731 0.361822 3.63481 0.808214 3.63481H3.32787L6.88764 18.6983L4.61997 20.4453C3.25189 21.4994 4.02134 23.768 5.74738 23.768H7.86904C7.77512 23.9988 7.72355 24.293 7.72355 24.5819C7.72355 25.9178 8.81819 27.0001 10.1637 27.0001C11.5092 27.0001 12.6039 25.92 12.6039 24.5841C12.6039 24.2953 12.5523 23.9988 12.4584 23.768H16.8724C16.7785 23.9988 16.7269 24.293 16.7269 24.5819C16.7269 25.9178 17.8216 27.0001 19.1671 27.0001C20.5126 27.0001 21.6073 25.92 21.6073 24.5841C21.6073 24.2953 21.5557 23.9988 21.4618 23.768H23.4211C23.8675 23.768 24.2293 23.4063 24.2293 22.9604C24.2293 22.5145 23.8674 22.1528 23.421 22.1528ZM10.1637 25.3807C9.70947 25.3807 9.33998 25.0183 9.33998 24.5729C9.33998 24.1274 9.70953 23.765 10.1637 23.765C10.6179 23.765 10.9875 24.1274 10.9875 24.5729C10.9875 25.0183 10.6179 25.3807 10.1637 25.3807ZM19.167 25.3807C18.7128 25.3807 18.3433 25.0183 18.3433 24.5729C18.3433 24.1274 18.7128 23.765 19.167 23.765C19.6213 23.765 19.9908 24.1274 19.9908 24.5729C19.9908 25.0183 19.6213 25.3807 19.167 25.3807Z" fill="#12AD5F"/>
<path d="M14.7806 11.7062C11.5439 11.7062 8.91064 9.08055 8.91064 5.85312C8.91064 2.62569 11.5439 0 14.7806 0C18.0172 0 20.6505 2.62569 20.6505 5.85312C20.6505 9.08055 18.0172 11.7062 14.7806 11.7062ZM14.7806 1.61493C12.4352 1.61493 10.5271 3.51616 10.5271 5.85312C10.5271 8.19007 12.4352 10.0913 14.7806 10.0913C17.1259 10.0913 19.034 8.19007 19.034 5.85312C19.034 3.51616 17.1259 1.61493 14.7806 1.61493Z" fill="#12AD5F"/>
<path d="M13.3488 7.90894L12.0507 6.36837C11.7632 6.02726 11.8069 5.51787 12.1484 5.23064C12.4898 4.94341 12.9996 4.98708 13.2872 5.32831L14.0004 6.17477L16.2196 3.81681C16.5254 3.49197 17.0369 3.47622 17.362 3.78168C17.6873 4.08714 17.703 4.5982 17.3972 4.92305L14.5559 7.94205C14.3021 8.20921 13.6527 8.26211 13.3488 7.90894Z" fill="#12AD5F"/>
</svg>
