<svg width="178" height="86" viewBox="0 0 178 86" fill="none" xmlns="http://www.w3.org/2000/svg">
<g clip-path="url(#clip0_22_458)">
<path d="M52.1547 6.95672C51.4043 5.53166 50.7046 4.1893 50.0588 2.92965C49.4097 1.66681 48.9855 0.690265 48.7828 0L45.0152 8.54402C45.0975 8.99253 45.2907 9.44104 45.5914 9.88637C45.8954 10.3349 46.269 10.8216 46.7154 11.3496C46.9592 13.9548 47.1998 16.6809 47.4436 19.5278C47.6874 22.3779 47.8995 25.438 48.08 28.7144C48.2636 31.9908 48.4219 35.5407 48.5644 39.3642C48.7069 43.1877 48.7955 47.3802 48.8398 51.9385C46.8135 52.3043 44.9297 52.6192 43.1884 52.8832C41.447 53.1472 39.6234 53.3826 37.7206 53.583C35.8178 53.7866 33.7313 53.9393 31.4644 54.0411C29.1975 54.1428 26.5222 54.1937 23.4447 54.1937C19.1515 54.1937 15.71 54.1428 13.117 54.0411C10.524 53.9424 8.49135 53.8184 7.01279 53.6753C5.53423 53.5321 4.46093 53.4112 3.79289 53.3094C3.12485 53.2076 2.58978 53.1568 2.18452 53.1568C1.94074 53.1568 1.68745 53.4303 1.42467 53.9806C1.16188 54.5309 0.927592 55.1798 0.724963 55.9337C0.522334 56.6876 0.351366 57.4415 0.208892 58.1922C0.0664188 58.9461 -0.00323486 59.5059 -0.00323486 59.8717C-0.00323486 60.5238 0.148737 61.0614 0.45268 61.4876C0.756624 61.9139 1.52598 62.2606 2.76075 62.5246C3.99552 62.7887 5.86984 62.9827 8.38054 63.1036C10.8912 63.2244 14.3549 63.2881 18.7684 63.2881C21.6844 63.2881 24.3661 63.2276 26.8166 63.1036C29.2671 62.9795 31.5847 62.7887 33.7725 62.5246C35.9602 62.2606 38.1037 61.9362 40.2123 61.5481C42.3177 61.1632 44.5055 60.7051 46.7724 60.1739C47.7444 58.6693 48.7258 57.1139 49.72 55.5043C50.711 53.8979 51.4898 52.1357 52.0597 50.2239C52.3035 49.4096 52.4555 48.3535 52.5156 47.0493C52.5758 45.7483 52.6075 44.4473 52.6075 43.1431C52.6075 42.2079 52.5948 41.0056 52.5758 39.5423C52.5568 38.0759 52.5251 36.4504 52.484 34.6596C52.4428 32.8687 52.4017 30.9983 52.3605 29.0452C52.3193 27.0921 52.2687 25.1804 52.2085 23.3068C52.1484 21.4364 52.0946 19.6646 52.0566 17.9946C52.0154 16.3278 51.9742 14.8836 51.9331 13.6622C52.6201 14.1107 53.2787 14.3938 53.9087 14.5146C54.5356 14.6387 55.1941 14.7373 55.8843 14.82C55.5202 13.8435 54.9915 12.6443 54.3045 11.2192C53.6143 9.79413 52.8956 8.37224 52.1484 6.94718" fill="#12AD5F"/>
<path d="M23.448 42.1159C24.8664 42.1159 26.1613 41.9219 27.3359 41.537C28.5105 41.1489 29.6852 40.6304 30.8598 39.9815C31.7494 38.2734 32.408 36.9596 32.8354 36.0435C33.2597 35.1274 33.8169 33.8169 34.5071 32.1055C34.5071 31.6188 34.4374 31.2212 34.295 30.9158C34.1525 30.6105 33.8485 30.3655 33.3831 30.1842C32.9177 29.9997 32.237 29.8598 31.3473 29.7548C30.4545 29.653 29.2229 29.5417 27.643 29.4208C26.8325 29.3413 26.0632 29.2776 25.335 29.2363C24.6068 29.1949 24.2427 29.0741 24.2427 28.8705C24.8094 28.1802 25.5186 27.385 26.3703 26.4911C27.2219 25.5973 28.2319 24.7416 29.4065 23.9273L31.1067 18.5547C30.2582 19.2481 29.454 19.9702 28.7068 20.7209C27.9565 21.4748 27.2694 22.2382 26.6394 23.0112C26.0125 23.7842 25.4553 24.5158 24.9677 25.2092C24.4833 25.9027 24.0749 26.5134 23.7519 27.0414C23.5905 27.49 23.4163 28.018 23.2359 28.6287C23.0522 29.2395 22.8718 29.8693 22.6881 30.5214C22.5077 31.1735 22.343 31.8129 22.2006 32.4459C22.0581 33.0757 21.9663 33.6165 21.9283 34.0618C22.6976 34.3862 23.4353 34.6121 24.1445 34.733C24.8537 34.857 25.5123 34.9365 26.1202 34.9779C26.6869 35.0193 27.2948 35.0383 27.9438 35.0383C28.5929 35.0383 29.2007 35.0479 29.7675 35.0701C30.3342 35.0924 31.0022 35.1815 31.7716 35.3437C30.9231 35.8717 29.9099 36.422 28.7353 36.9914C27.5607 37.5608 26.4463 38.0093 25.3951 38.3338C23.41 38.9445 21.5452 39.463 19.807 39.8893C18.0657 40.3155 16.3623 40.6527 14.7033 40.8976L14.6431 41.6293C16.0995 41.712 17.6097 41.8137 19.1706 41.9346C20.7283 42.0555 22.1562 42.1191 23.4543 42.1191" fill="#12AD5F"/>
<path d="M88.3905 36.6221C88.6755 36.9497 89.0079 37.1629 89.3942 37.2615C89.7805 37.3633 90.154 37.4142 90.5181 37.4142C91.3667 37.4142 92.098 37.271 92.7059 36.9879C93.3138 36.7048 93.8489 36.3454 94.3174 35.9191C94.7828 35.4929 95.1659 35.0348 95.4731 34.545C95.777 34.0583 96.0493 33.5907 96.2931 33.1422C96.578 33.3871 97.0118 33.6702 97.6007 33.9978C98.1864 34.3223 98.9051 34.4845 99.7568 34.4845C101.093 34.4845 102.198 34.036 103.068 33.1422C103.939 32.2483 104.626 31.1509 105.136 29.8467C105.642 28.5425 105.994 27.1397 106.2 25.6351C106.402 24.1305 106.504 22.7659 106.504 21.5444L104.62 22.4605C104.538 23.2749 104.386 24.1305 104.164 25.0244C103.939 25.9182 103.648 26.7421 103.284 27.496C102.92 28.2499 102.483 28.8797 101.979 29.3886C101.476 29.8976 100.916 30.1521 100.308 30.1521C99.8232 30.1521 99.3768 30.0598 98.9716 29.8785C98.5663 29.694 98.2434 29.5032 97.9996 29.2996C98.1199 28.8129 98.2212 28.199 98.3035 27.4674C98.3858 26.7357 98.427 26.0232 98.427 25.3298H96.7268C96.5654 25.9405 96.3627 26.6626 96.1189 27.496C95.8751 28.3294 95.5617 29.1246 95.1786 29.8753C94.7955 30.6292 94.3174 31.2781 93.7507 31.8284C93.184 32.3755 92.5159 32.6523 91.7466 32.6523C90.9772 32.6523 90.4517 32.4392 90.1667 32.0129C89.8849 31.5835 89.7425 31.065 89.7425 30.4574C89.7425 30.0089 89.8026 29.4904 89.9261 28.902C90.0464 28.3135 90.1699 27.795 90.2902 27.3465L89.1947 26.7962C89.0333 27.0825 88.8528 27.4578 88.647 27.9254C88.4444 28.393 88.2512 28.9115 88.0708 29.4809C87.8871 30.0503 87.7383 30.6419 87.6149 31.2527C87.4945 31.8634 87.4344 32.4328 87.4344 32.9608C87.4344 33.9374 87.5262 34.7104 87.7067 35.2797C87.8871 35.8491 88.1214 36.2977 88.4064 36.6221" fill="#12AD5F"/>
<path d="M104.43 80.9328L110.202 86.0001L113.846 80.3857L108.258 75.3789L104.43 80.9328Z" fill="#12AD5F"/>
<path d="M114.577 80.322L120.349 85.3892L124.053 79.7749L118.402 74.7681L114.577 80.322Z" fill="#12AD5F"/>
<path d="M148.717 12.2689L150.601 7.75195C148.049 8.68715 145.355 9.73686 142.521 10.8947C139.687 12.0558 137.015 13.1627 134.501 14.222L132.617 18.7389C135.29 17.6002 138.066 16.4423 140.941 15.2622C143.816 14.082 146.409 13.0864 148.717 12.2721" fill="#12AD5F"/>
<path d="M173.928 43.6996C172.307 43.6614 170.344 43.5787 168.036 43.4547C165.282 43.2924 162.689 42.7835 160.26 41.931C157.832 41.0753 155.543 40.1719 153.396 39.2145C151.25 38.2602 149.214 37.395 147.292 36.6188C145.367 35.8459 143.537 35.4578 141.796 35.4578C140.7 35.4578 139.678 35.6423 138.728 36.0081C137.775 36.3739 136.844 37.0037 135.932 37.9007C135.021 38.7978 134.14 39.9779 133.289 41.4411C132.437 42.9044 131.589 44.7589 130.737 46.9951C130.981 47.1191 131.262 47.2177 131.585 47.3004C132.88 45.9167 133.995 44.8575 134.926 44.1259C135.856 43.3942 136.908 43.0284 138.085 43.0284C139.263 43.0284 140.435 43.162 141.486 43.426C142.54 43.6901 143.582 44.0177 144.614 44.4026C145.646 44.7907 146.7 45.2169 147.773 45.6845C148.847 46.1521 150.012 46.5688 151.266 46.9378C152.481 47.3036 153.656 47.609 154.79 47.8539C155.923 48.0989 156.955 48.3215 157.889 48.5251C156.714 48.8082 155.458 49.1772 154.121 49.6225C152.785 50.071 151.449 50.5291 150.113 50.9967C148.777 51.4643 147.47 51.9128 146.194 52.3391C144.918 52.7653 143.734 53.1025 142.638 53.3474C141.463 53.5923 140.216 53.8055 138.902 53.9868C137.585 54.1713 136.268 54.3112 134.954 54.413C133.637 54.5148 132.383 54.588 131.186 54.6262C129.993 54.6675 128.929 54.6866 127.998 54.6866C126.459 54.6866 125.032 54.343 123.714 53.6464C122.397 52.9562 121.194 52.0496 120.099 50.9299C119.007 49.8102 118.054 48.5187 117.243 47.0523C116.432 45.5891 115.787 44.0845 115.299 42.5354H114.387C114.226 43.0221 113.982 43.6455 113.659 44.3962C113.333 45.1501 112.95 45.9326 112.503 46.747C112.057 47.5613 111.573 48.3756 111.047 49.1899C110.521 50.0042 109.974 50.7168 109.407 51.3275C108.555 52.2627 107.39 53.0579 105.915 53.7069C104.436 54.359 102.644 54.6834 100.539 54.6834H81.403C78.6897 54.6834 76.5843 54.0122 75.0867 52.6699C73.586 51.3275 72.7185 49.0659 72.4747 45.8945C72.4335 45.4873 72.4019 45.0292 72.3829 44.5203C72.3639 44.0113 72.3417 43.5151 72.3227 43.0252C72.3006 42.5386 72.2721 41.826 72.2309 40.8876C72.2309 36.8192 72.1802 32.7922 72.0789 28.8032C71.9776 24.8143 71.8668 21.0831 71.7433 17.6031C71.6198 14.1232 71.4995 10.99 71.3792 8.20345C71.2589 5.41695 71.1354 3.14893 71.0151 1.39941L65.0027 10.7991C65.5283 12.6313 65.9937 14.6544 66.399 16.8715C66.8042 19.0886 67.1493 21.6111 67.4311 24.439C67.7129 27.2669 67.9282 30.4732 68.0675 34.0518C68.21 37.6335 68.2796 41.6797 68.2796 46.1966C68.2796 46.6038 68.2891 47.1128 68.3113 47.7235C68.3303 48.3342 68.362 48.9832 68.4031 49.6766C68.4443 50.37 68.5044 51.0699 68.5867 51.7824C68.6659 52.4949 68.7704 53.1566 68.8907 53.7673C69.2548 55.6409 69.7487 57.1773 70.3787 58.3765C71.0056 59.5789 71.8066 60.5332 72.7786 61.2457C73.7506 61.9582 74.9442 62.4449 76.3626 62.7089C77.781 62.9729 79.4622 63.1065 81.4062 63.1065H100.542C102.932 63.1065 105.057 62.6898 106.922 61.8564C108.783 61.023 110.423 59.9765 111.842 58.7137C112.003 58.4687 112.237 58.1125 112.541 57.6449C112.845 57.1773 113.149 56.6874 113.453 56.1785C113.757 55.6695 114.029 55.1924 114.273 54.7439C114.517 54.2953 114.697 53.9486 114.821 53.7069H115.429C115.834 55.0906 116.47 56.3534 117.344 57.4922C118.215 58.631 119.215 59.6171 120.352 60.4536C121.486 61.287 122.72 61.9391 124.06 62.4067C125.396 62.8743 126.71 63.1097 128.008 63.1097C129.021 63.1097 130.164 63.0906 131.44 63.0493C132.716 63.0079 134.061 62.9062 135.48 62.7439C136.898 62.5817 138.345 62.359 139.823 62.0727C141.302 61.7896 142.771 61.4206 144.227 60.9721C145.969 60.4441 147.558 59.8111 148.996 59.0795C150.433 58.3479 151.829 57.6449 153.187 56.9737C154.546 56.3025 155.923 55.6918 157.319 55.1415C158.715 54.5912 160.245 54.2158 161.907 54.0122C163.04 53.8914 164.215 53.78 165.431 53.6782C166.646 53.5764 167.78 53.4937 168.831 53.4333C169.882 53.3729 171.199 53.3029 172.779 53.2202L178.003 43.8205C176.911 43.7791 175.553 43.741 173.935 43.6964" fill="#12AD5F"/>
</g>
<defs>
<clipPath id="clip0_22_458">
<rect width="178" height="86" fill="white"/>
</clipPath>
</defs>
</svg>
