<svg width="24" height="24" viewBox="0 0 24 24" fill="none" xmlns="http://www.w3.org/2000/svg">
<g clip-path="url(#clip0_368_1387)">
<path fill-rule="evenodd" clip-rule="evenodd" d="M4.33072 7.37805C3.34732 7.37805 2.53912 8.15697 2.53912 9.10464C2.53912 9.51522 2.20475 9.83744 1.77869 9.83744C1.64194 9.83745 1.5108 9.88981 1.4141 9.98299C1.3174 10.0762 1.26308 10.2026 1.26306 10.3343V20.1717C1.26306 21.8008 2.64014 23.128 4.33072 23.128H19.6432C21.3338 23.128 22.7109 21.8008 22.7109 20.1717V10.3343C22.7109 10.2026 22.6566 10.0762 22.5599 9.98299C22.4632 9.88981 22.3321 9.83745 22.1953 9.83744C21.7693 9.83744 21.4349 9.51522 21.4349 9.10464C21.4349 8.15697 20.6266 7.37805 19.6432 7.37805C18.6598 7.37805 17.8516 8.15697 17.8516 9.10464C17.8516 9.51523 17.5172 9.83746 17.0912 9.83744C16.6651 9.83744 16.3307 9.51522 16.3307 9.10464C16.3307 8.15697 15.5224 7.37805 14.539 7.37805C13.5556 7.37804 12.7474 8.15696 12.7474 9.10464C12.7474 9.51523 12.413 9.83741 11.9869 9.83744C11.5608 9.83747 11.2265 9.5153 11.2266 9.10472C11.2266 9.10469 11.2266 9.10466 11.2266 9.10463C11.2266 8.15697 10.4183 7.37805 9.43488 7.37805C8.45148 7.37805 7.64328 8.15697 7.64328 9.10463C7.64328 9.51521 7.3089 9.83744 6.88284 9.83744C6.45678 9.83744 6.12241 9.51521 6.12241 9.10463C6.12241 8.15697 5.31412 7.37805 4.33072 7.37805ZM4.33072 8.37183C4.75678 8.37183 5.09116 8.69406 5.09116 9.10464C5.09116 10.0523 5.89944 10.8312 6.88284 10.8312C7.86624 10.8312 8.67453 10.0523 8.67453 9.10464C8.67453 8.69406 9.00881 8.37183 9.43488 8.37183C9.86094 8.37183 10.1953 8.69406 10.1953 9.10464C10.1952 10.0524 11.0036 10.8313 11.987 10.8312C12.9704 10.8311 13.7786 10.0523 13.7787 9.10464C13.7787 8.69404 14.113 8.37182 14.539 8.37183C14.9651 8.37183 15.2995 8.69406 15.2995 9.10464C15.2995 10.0523 16.1078 10.8312 17.0912 10.8312C18.0746 10.8313 18.8829 10.0523 18.8828 9.10464C18.8828 8.69406 19.2171 8.37183 19.6432 8.37183C20.0693 8.37183 20.4036 8.69406 20.4036 9.10464C20.4036 9.87866 20.9463 10.5324 21.6797 10.7488V20.1717C21.6797 21.2675 20.7803 22.1342 19.6432 22.1342H4.33072C3.19362 22.1342 2.29431 21.2675 2.29431 20.1717V10.7488C3.02774 10.5324 3.57037 9.87866 3.57037 9.10464C3.57037 8.69406 3.90466 8.37183 4.33072 8.37183Z" fill="#12AD5F"/>
<path fill-rule="evenodd" clip-rule="evenodd" d="M9.43487 12.2968C8.45147 12.2968 7.64319 13.0757 7.64319 14.0233V20.1717C7.6432 20.3035 7.69753 20.4299 7.79423 20.5231C7.89092 20.6162 8.02206 20.6686 8.15881 20.6686H15.8151C15.9518 20.6686 16.0829 20.6162 16.1796 20.5231C16.2763 20.4299 16.3307 20.3035 16.3307 20.1717V14.0233C16.3307 13.0757 15.5224 12.2968 14.539 12.2968H9.43487ZM9.43487 13.2905H14.539C14.9651 13.2905 15.2994 13.6127 15.2994 14.0233V19.6748H8.67443V14.0233C8.67443 13.6127 9.0088 13.2905 9.43487 13.2905Z" fill="#12AD5F"/>
<path fill-rule="evenodd" clip-rule="evenodd" d="M4.34392 0C3.36755 -2.9723e-06 2.47242 0.533101 2.03577 1.37467L0.625124 4.09338C0.213998 4.88577 -2.19345e-06 5.75952 2.95822e-10 6.64543V9.10468C-1.78544e-05 10.0524 0.808198 10.8312 1.7916 10.8312C2.77501 10.8312 3.5833 10.0524 3.5833 9.10468C3.5833 8.69409 3.91765 8.37186 4.34374 8.37186C4.7698 8.37186 5.10418 8.69409 5.10418 9.10468C5.10418 10.0523 5.91237 10.8312 6.89578 10.8312C7.87918 10.8312 8.68747 10.0524 8.68747 9.10468C8.68747 8.69409 9.02183 8.37186 9.44791 8.37186C9.87395 8.37186 10.2083 8.69405 10.2084 9.10459C10.2083 10.0523 11.0166 10.8313 12 10.8312C12.9834 10.8311 13.7916 10.0523 13.7916 9.10468C13.7916 8.69408 14.126 8.37185 14.5521 8.37186C14.9782 8.37186 15.3125 8.69409 15.3125 9.10468C15.3125 10.0523 16.1208 10.8312 17.1042 10.8312C18.0876 10.8312 18.8959 10.0523 18.8958 9.10459C18.8959 8.69404 19.2302 8.37186 19.6563 8.37186C20.0823 8.37186 20.4167 8.69409 20.4167 9.10468C20.4167 10.0523 21.225 10.8312 22.2084 10.8312C23.1918 10.8311 23.9999 10.0523 24 9.10468V6.64543C24 5.75952 23.786 4.88577 23.3749 4.09338L21.9642 1.37467C21.5276 0.533106 20.6324 2.64257e-06 19.6561 0L4.34392 0ZM4.34392 0.993789H19.6561C20.244 0.993791 20.7789 1.31231 21.0418 1.81906L22.4525 4.53778C22.792 5.1922 22.9687 5.91377 22.9687 6.64543V9.10459C22.9687 9.51515 22.6344 9.83733 22.2084 9.8374C21.7823 9.8374 21.448 9.51526 21.448 9.10468C21.448 8.157 20.6397 7.37807 19.6563 7.37807C18.6729 7.37807 17.8646 8.157 17.8646 9.10468C17.8646 9.51528 17.5303 9.83742 17.1042 9.8374C16.6781 9.8374 16.3438 9.51526 16.3438 9.10468C16.3438 8.157 15.5355 7.37807 14.5521 7.37807C13.5687 7.37806 12.7604 8.15694 12.7604 9.10459C12.7604 9.51518 12.426 9.83737 12 9.8374C11.5739 9.83744 11.2396 9.51527 11.2396 9.10468C11.2396 8.157 10.4313 7.37807 9.44791 7.37807C8.4645 7.37807 7.65622 8.157 7.65622 9.10468C7.65622 9.51526 7.32184 9.8374 6.89578 9.8374C6.4697 9.8374 6.13543 9.51526 6.13543 9.10468C6.13543 8.157 5.32714 7.37807 4.34374 7.37807C3.36033 7.37807 2.55204 8.157 2.55204 9.10468C2.55204 9.51526 2.21767 9.8374 1.7916 9.8374C1.36551 9.8374 1.03125 9.51527 1.03125 9.10468V6.64543C1.03125 5.91377 1.20798 5.1922 1.54752 4.53778L2.95808 1.81906C3.22101 1.3123 3.75598 0.993787 4.34392 0.993789Z" fill="#12AD5F"/>
</g>
<defs>
<clipPath id="clip0_368_1387">
<rect width="24" height="23.128" fill="white"/>
</clipPath>
</defs>
</svg>
