<svg width="21" height="22" viewBox="0 0 21 22" fill="none" xmlns="http://www.w3.org/2000/svg">
<path d="M10.448 10.7397C9.34594 10.7397 8.26859 10.4248 7.35223 9.83471C6.43587 9.24466 5.72165 8.40601 5.2999 7.4248C4.87815 6.44359 4.7678 5.36389 4.98281 4.32224C5.19781 3.28059 5.72852 2.32378 6.50782 1.57279C7.28712 0.821808 8.28001 0.310379 9.36093 0.103182C10.4419 -0.104014 11.5623 0.00232664 12.5805 0.408757C13.5987 0.815188 14.4689 1.50345 15.0812 2.38652C15.6935 3.26959 16.0203 4.30779 16.0203 5.36985C16.0187 6.79353 15.4311 8.15846 14.3864 9.16516C13.3418 10.1719 11.9254 10.7381 10.448 10.7397ZM10.448 1.49163C9.65207 1.49163 8.87399 1.71908 8.21218 2.14522C7.55036 2.57137 7.03454 3.17706 6.72994 3.88572C6.42534 4.59437 6.34564 5.37415 6.50092 6.12645C6.65621 6.87875 7.0395 7.56978 7.60233 8.11216C8.16515 8.65454 8.88224 9.02391 9.6629 9.17355C10.4436 9.32319 11.2527 9.24639 11.9881 8.95286C12.7235 8.65932 13.352 8.16224 13.7942 7.52447C14.2364 6.8867 14.4725 6.13689 14.4725 5.36985C14.4712 4.34164 14.0468 3.35589 13.2924 2.62884C12.5379 1.90179 11.515 1.49281 10.448 1.49163Z" fill="#12AD5F"/>
<path d="M20.1222 21.6419C19.9169 21.6419 19.7201 21.5634 19.5749 21.4235C19.4298 21.2836 19.3483 21.0939 19.3483 20.8961V19.0525C19.3466 17.6363 18.7621 16.2786 17.723 15.2772C16.6838 14.2758 15.2749 13.7126 13.8054 13.711H7.09075C5.62119 13.7126 4.21228 14.2758 3.17315 15.2772C2.13401 16.2786 1.5495 17.6363 1.54786 19.0525V20.8961C1.54786 21.0939 1.46632 21.2836 1.32118 21.4235C1.17604 21.5634 0.979189 21.6419 0.77393 21.6419C0.568671 21.6419 0.371819 21.5634 0.226679 21.4235C0.0815388 21.2836 0 21.0939 0 20.8961V19.0525C0.00225296 17.2409 0.750035 15.5041 2.07932 14.2231C3.40861 12.9421 5.21086 12.2215 7.09075 12.2194H13.8046C15.6846 12.2213 17.4871 12.9419 18.8165 14.2229C20.146 15.5039 20.8939 17.2408 20.8961 19.0525V20.8961C20.8961 21.0939 20.8146 21.2836 20.6694 21.4235C20.5243 21.5634 20.3274 21.6419 20.1222 21.6419Z" fill="#12AD5F"/>
</svg>
