<svg width="375" height="812" viewBox="0 0 375 812" fill="none" xmlns="http://www.w3.org/2000/svg">
<g clip-path="url(#clip0_0_108)">
<rect width="375" height="812" fill="#12AD5F"/>
<rect width="375" height="812" fill="#12AD5F"/>
<path opacity="0.19" d="M401.211 472.74L501.838 1066.57L-95.891 812.807L401.211 472.74Z" fill="#136849"/>
<path opacity="0.19" d="M386.211 550.74L486.838 1144.57L-110.891 890.807L386.211 550.74Z" fill="#136849"/>
<rect y="778" width="375" height="34" fill="black" fill-opacity="0.01"/>
<rect x="120.5" y="793" width="134" height="5" rx="2.5" fill="#FDF9F4"/>
<g clip-path="url(#clip1_0_108)">
<path d="M135.837 354.788C134.775 352.783 133.784 350.894 132.87 349.122C131.951 347.345 131.35 345.971 131.064 345L125.73 357.021C125.846 357.652 126.12 358.283 126.545 358.91C126.976 359.541 127.505 360.226 128.137 360.969C128.482 364.634 128.822 368.47 129.168 372.475C129.513 376.485 129.813 380.791 130.069 385.4C130.328 390.01 130.553 395.005 130.754 400.384C130.956 405.764 131.082 411.663 131.144 418.076C128.276 418.591 125.609 419.034 123.143 419.405C120.678 419.777 118.096 420.108 115.402 420.39C112.709 420.676 109.755 420.891 106.545 421.035C103.336 421.178 99.5485 421.249 95.1917 421.249C89.1136 421.249 84.2414 421.178 80.5704 421.035C76.8993 420.896 74.0217 420.721 71.9285 420.52C69.8352 420.318 68.3157 420.148 67.37 420.005C66.4242 419.862 65.6667 419.79 65.0929 419.79C64.7478 419.79 64.3892 420.175 64.0172 420.949C63.6452 421.724 63.3135 422.637 63.0266 423.697C62.7397 424.758 62.4977 425.819 62.296 426.875C62.0943 427.936 61.9957 428.723 61.9957 429.238C61.9957 430.156 62.2108 430.912 62.6411 431.512C63.0714 432.111 64.1606 432.599 65.9087 432.971C67.6568 433.342 70.3104 433.615 73.8648 433.785C77.4193 433.955 82.3229 434.045 88.5713 434.045C92.6995 434.045 96.496 433.96 99.9653 433.785C103.435 433.611 106.716 433.342 109.813 432.971C112.91 432.599 115.945 432.143 118.93 431.597C121.911 431.055 125.008 430.411 128.217 429.663C129.593 427.546 130.983 425.358 132.39 423.093C133.793 420.833 134.896 418.354 135.703 415.664C136.048 414.518 136.263 413.032 136.348 411.197C136.433 409.367 136.478 407.536 136.478 405.701C136.478 404.386 136.46 402.694 136.433 400.635C136.407 398.572 136.362 396.285 136.303 393.765C136.245 391.245 136.187 388.614 136.129 385.866C136.07 383.118 135.999 380.428 135.913 377.792C135.828 375.16 135.752 372.668 135.698 370.318C135.64 367.973 135.582 365.941 135.523 364.222C136.496 364.853 137.428 365.252 138.32 365.422C139.208 365.596 140.14 365.735 141.117 365.851C140.602 364.477 139.853 362.79 138.881 360.785C137.904 358.78 136.886 356.78 135.828 354.775" fill="white"/>
<path d="M95.196 404.256C97.2041 404.256 99.0374 403.983 100.7 403.441C102.363 402.895 104.026 402.166 105.689 401.253C106.949 398.849 107.881 397.001 108.486 395.712C109.087 394.423 109.876 392.579 110.853 390.171C110.853 389.486 110.754 388.927 110.552 388.497C110.351 388.068 109.92 387.723 109.262 387.468C108.603 387.208 107.639 387.011 106.379 386.864C105.115 386.721 103.372 386.564 101.135 386.394C99.9876 386.282 98.8984 386.192 97.8675 386.134C96.8365 386.076 96.3211 385.906 96.3211 385.62C97.1234 384.648 98.1275 383.529 99.3332 382.272C100.539 381.014 101.969 379.81 103.632 378.665L106.039 371.105C104.837 372.081 103.699 373.097 102.641 374.153C101.579 375.214 100.606 376.288 99.7142 377.376C98.8267 378.463 98.0378 379.493 97.3475 380.468C96.6617 381.444 96.0835 382.303 95.6263 383.046C95.3977 383.677 95.1512 384.42 94.8957 385.279C94.6357 386.139 94.3802 387.025 94.1203 387.942C93.8648 388.86 93.6317 389.759 93.43 390.65C93.2283 391.536 93.0983 392.297 93.0445 392.924C94.1337 393.38 95.1781 393.698 96.1821 393.868C97.1862 394.042 98.1185 394.154 98.9791 394.213C99.7814 394.271 100.642 394.298 101.561 394.298C102.48 394.298 103.34 394.311 104.143 394.342C104.945 394.374 105.891 394.499 106.98 394.727C105.779 395.47 104.344 396.244 102.681 397.046C101.019 397.847 99.4408 398.478 97.9526 398.934C95.1422 399.794 92.5022 400.523 90.0414 401.123C87.5761 401.722 85.1646 402.197 82.8159 402.541L82.7307 403.571C84.7926 403.687 86.9306 403.83 89.1404 404C91.3457 404.171 93.3672 404.26 95.205 404.26" fill="white"/>
<path d="M187.137 396.526C187.541 396.987 188.011 397.287 188.558 397.426C189.105 397.569 189.634 397.641 190.149 397.641C191.351 397.641 192.386 397.439 193.247 397.041C194.107 396.643 194.865 396.137 195.528 395.537C196.187 394.938 196.729 394.293 197.164 393.604C197.594 392.919 197.98 392.261 198.325 391.63C198.728 391.975 199.342 392.373 200.176 392.834C201.005 393.291 202.023 393.519 203.229 393.519C205.12 393.519 206.685 392.888 207.917 391.63C209.15 390.373 210.122 388.829 210.844 386.994C211.561 385.159 212.059 383.185 212.35 381.068C212.637 378.951 212.78 377.031 212.78 375.312L210.113 376.601C209.997 377.747 209.782 378.951 209.468 380.209C209.15 381.466 208.737 382.625 208.222 383.686C207.706 384.747 207.088 385.633 206.375 386.349C205.663 387.065 204.869 387.423 204.009 387.423C203.323 387.423 202.691 387.293 202.117 387.038C201.543 386.779 201.086 386.51 200.741 386.224C200.911 385.539 201.055 384.675 201.171 383.646C201.288 382.617 201.346 381.614 201.346 380.638H198.939C198.71 381.498 198.424 382.514 198.078 383.686C197.733 384.859 197.29 385.978 196.747 387.034C196.205 388.095 195.528 389.008 194.726 389.782C193.923 390.552 192.978 390.941 191.888 390.941C190.799 390.941 190.055 390.641 189.652 390.041C189.253 389.437 189.051 388.708 189.051 387.853C189.051 387.222 189.136 386.492 189.311 385.664C189.481 384.836 189.656 384.107 189.827 383.476L188.276 382.702C188.047 383.104 187.792 383.632 187.5 384.29C187.213 384.948 186.94 385.678 186.684 386.479C186.424 387.28 186.214 388.112 186.039 388.972C185.869 389.831 185.784 390.632 185.784 391.375C185.784 392.749 185.913 393.837 186.169 394.638C186.424 395.439 186.756 396.07 187.16 396.526" fill="white"/>
<path d="M209.845 458.871L218.016 466L223.175 458.101L215.264 451.057L209.845 458.871Z" fill="white"/>
<path d="M224.21 458.012L232.382 465.141L237.626 457.242L229.625 450.197L224.21 458.012Z" fill="white"/>
<path d="M272.543 362.262L275.21 355.907C271.597 357.223 267.783 358.7 263.771 360.329C259.76 361.963 255.976 363.52 252.418 365.01L249.751 371.366C253.534 369.763 257.465 368.134 261.535 366.474C265.604 364.814 269.275 363.413 272.543 362.267" fill="white"/>
<path d="M308.236 406.484C305.941 406.43 303.162 406.314 299.894 406.14C295.995 405.911 292.324 405.195 288.886 403.996C285.448 402.792 282.207 401.521 279.168 400.174C276.129 398.831 273.247 397.614 270.526 396.522C267.801 395.434 265.21 394.888 262.745 394.888C261.194 394.888 259.746 395.148 258.401 395.662C257.052 396.177 255.734 397.063 254.444 398.325C253.153 399.587 251.907 401.248 250.701 403.307C249.495 405.365 248.294 407.974 247.088 411.121C247.433 411.295 247.832 411.434 248.289 411.55C250.123 409.604 251.7 408.113 253.018 407.084C254.336 406.054 255.824 405.54 257.491 405.54C259.159 405.54 260.817 405.728 262.305 406.099C263.798 406.471 265.273 406.932 266.734 407.473C268.195 408.019 269.688 408.619 271.207 409.277C272.727 409.935 274.376 410.521 276.151 411.04C277.873 411.555 279.535 411.985 281.14 412.329C282.745 412.674 284.206 412.987 285.528 413.274C283.865 413.672 282.086 414.191 280.194 414.818C278.303 415.449 276.411 416.093 274.52 416.751C272.628 417.409 270.777 418.04 268.971 418.64C267.164 419.239 265.488 419.714 263.937 420.058C262.274 420.403 260.508 420.703 258.648 420.958C256.783 421.218 254.919 421.414 253.058 421.558C251.194 421.701 249.419 421.804 247.725 421.858C246.035 421.916 244.529 421.943 243.211 421.943C241.032 421.943 239.011 421.459 237.146 420.479C235.282 419.508 233.578 418.232 232.027 416.657C230.481 415.082 229.132 413.265 227.984 411.201C226.837 409.143 225.923 407.026 225.232 404.846H223.941C223.713 405.531 223.368 406.408 222.91 407.464C222.449 408.525 221.906 409.626 221.274 410.772C220.642 411.917 219.957 413.063 219.213 414.209C218.468 415.355 217.693 416.357 216.891 417.216C215.685 418.532 214.035 419.651 211.947 420.564C209.853 421.482 207.316 421.938 204.336 421.938H177.245C173.403 421.938 170.423 420.994 168.302 419.105C166.178 417.216 164.95 414.034 164.605 409.572C164.546 408.999 164.501 408.355 164.475 407.639C164.448 406.923 164.416 406.225 164.389 405.535C164.358 404.851 164.318 403.848 164.259 402.528C164.259 396.804 164.188 391.138 164.044 385.525C163.901 379.913 163.744 374.663 163.569 369.767C163.394 364.871 163.224 360.462 163.054 356.542C162.883 352.621 162.709 349.43 162.538 346.969L154.026 360.194C154.77 362.772 155.429 365.618 156.003 368.738C156.577 371.857 157.065 375.406 157.464 379.385C157.863 383.364 158.168 387.875 158.365 392.91C158.567 397.949 158.666 403.642 158.666 409.997C158.666 410.57 158.679 411.286 158.71 412.146C158.737 413.005 158.782 413.918 158.84 414.894C158.899 415.869 158.984 416.854 159.1 417.856C159.212 418.859 159.36 419.79 159.531 420.649C160.046 423.285 160.745 425.447 161.637 427.134C162.525 428.826 163.659 430.169 165.035 431.171C166.411 432.174 168.101 432.858 170.109 433.23C172.117 433.601 174.497 433.789 177.249 433.789H204.34C207.724 433.789 210.732 433.203 213.372 432.03C216.008 430.858 218.33 429.385 220.338 427.609C220.566 427.264 220.898 426.763 221.328 426.105C221.758 425.447 222.189 424.758 222.619 424.042C223.049 423.326 223.435 422.654 223.78 422.023C224.125 421.392 224.381 420.904 224.555 420.564H225.416C225.99 422.511 226.891 424.288 228.128 425.89C229.361 427.492 230.777 428.88 232.386 430.057C233.991 431.229 235.739 432.147 237.635 432.805C239.526 433.463 241.387 433.794 243.224 433.794C244.659 433.794 246.277 433.767 248.083 433.709C249.889 433.651 251.794 433.507 253.803 433.279C255.811 433.051 257.859 432.738 259.952 432.335C262.046 431.936 264.125 431.417 266.187 430.786C268.652 430.043 270.903 429.153 272.938 428.123C274.972 427.094 276.949 426.105 278.872 425.16C280.795 424.216 282.745 423.357 284.722 422.583C286.698 421.808 288.863 421.28 291.216 420.994C292.821 420.824 294.484 420.667 296.205 420.524C297.926 420.381 299.531 420.264 301.019 420.179C302.507 420.094 304.372 419.996 306.609 419.879L314.004 406.654C312.458 406.596 310.535 406.542 308.245 406.48" fill="white"/>
</g>
</g>
<defs>
<clipPath id="clip0_0_108">
<rect width="375" height="812" fill="white"/>
</clipPath>
<clipPath id="clip1_0_108">
<rect width="252" height="121" fill="white" transform="translate(62 345)"/>
</clipPath>
</defs>
</svg>
