<svg width="18" height="18" viewBox="0 0 18 18" fill="none" xmlns="http://www.w3.org/2000/svg">
<path fill-rule="evenodd" clip-rule="evenodd" d="M8.97706 7.3979H15.5321L15.5301 7.3949C16.5657 7.396 17.405 8.23527 17.4061 9.2709V15.8259C17.405 16.8615 16.5657 17.7008 15.5301 17.7019H8.97506C8.04627 17.7003 7.25797 17.0204 7.12006 16.1019L5.40106 14.8739C5.26704 14.7782 5.1875 14.6236 5.1875 14.4589C5.1875 14.2942 5.26704 14.1396 5.40106 14.0439L7.10106 12.8309V9.2739C7.10217 8.23827 7.94143 7.399 8.97706 7.3979ZM13.0921 14.4219C13.1191 14.5259 13.2121 14.5639 13.3321 14.5639C13.5231 14.5639 13.7801 14.4379 13.7801 14.2689C13.7785 14.2502 13.7749 14.2317 13.7691 14.2139L12.7151 10.7779C12.6661 10.6139 12.4641 10.5369 12.2561 10.5369C12.0692 10.513 11.8877 10.6096 11.8031 10.7779L10.7491 14.2139C10.7438 14.2319 10.7401 14.2503 10.7381 14.2689C10.7381 14.4439 10.9951 14.5639 11.1861 14.5639C11.3061 14.5639 11.3991 14.5219 11.4261 14.4219L11.6331 13.6949H12.8841L13.0921 14.4219Z" fill="#136849"/>
<path d="M11.776 13.1379H12.727L12.252 11.4609L11.776 13.1379Z" fill="#136849"/>
<path d="M6.081 9.2729C6.08061 8.61392 6.30615 7.97472 6.72 7.4619C6.15971 7.46254 5.61274 7.29115 5.153 6.9709C4.69326 7.29115 4.14629 7.46254 3.586 7.4619C3.4338 7.45292 3.31496 7.32687 3.31496 7.1744C3.31496 7.02193 3.4338 6.89588 3.586 6.8869C3.97838 6.88708 4.36344 6.78062 4.7 6.5789C4.29538 6.14302 4.04339 5.58745 3.982 4.9959H3.582C3.47524 5.0022 3.37378 4.94882 3.3185 4.85727C3.26322 4.76572 3.26322 4.65108 3.3185 4.55953C3.37378 4.46798 3.47524 4.4146 3.582 4.4209H4.865V3.7209C4.8587 3.61414 4.91208 3.51268 5.00363 3.4574C5.09518 3.40211 5.20982 3.40211 5.30137 3.4574C5.39292 3.51268 5.4463 3.61414 5.44 3.7209V4.4209H6.72C6.82676 4.4146 6.92822 4.46798 6.9835 4.55953C7.03878 4.65108 7.03878 4.76572 6.9835 4.85727C6.92822 4.94882 6.82676 5.0022 6.72 4.9959H6.32C6.25805 5.58769 6.00534 6.14329 5.6 6.5789C5.93679 6.78093 6.32226 6.88741 6.715 6.8869C6.86601 6.88653 6.99148 7.00325 7.002 7.1539C7.53663 6.65422 8.24122 6.37646 8.973 6.3769H10.302V5.1649L12 3.9519C12.134 3.85617 12.2136 3.7016 12.2136 3.5369C12.2136 3.3722 12.134 3.21763 12 3.1219L10.286 1.8959C10.148 0.977026 9.35917 0.296972 8.43 0.295898H1.875C0.840151 0.29755 0.0016518 1.13605 0 2.1709V8.7269C0.00110232 9.76253 0.840371 10.6018 1.876 10.6029H6.081V9.2729Z" fill="#136849"/>
<path d="M5.15301 6.21992C5.47556 5.88623 5.68269 5.45796 5.74401 4.99792H4.56201C4.62347 5.45792 4.83058 5.88615 5.15301 6.21992Z" fill="#136849"/>
</svg>
