<svg width="16" height="18" viewBox="0 0 16 18" fill="none" xmlns="http://www.w3.org/2000/svg">
<path fill-rule="evenodd" clip-rule="evenodd" d="M2.325 17.05C1.04094 17.05 0 16.0091 0 14.725V9.3C0 8.01594 1.04094 6.975 2.325 6.975H3.1V4.65C3.1 2.08188 5.18188 0 7.75 0C10.3181 0 12.4 2.08188 12.4 4.65V6.975H13.175C14.4591 6.975 15.5 8.01594 15.5 9.3V14.725C15.5 16.0091 14.4591 17.05 13.175 17.05H2.325ZM1.55 9.3V14.725C1.55 15.153 1.89698 15.5 2.325 15.5H13.175C13.603 15.5 13.95 15.153 13.95 14.725V9.3C13.95 8.87198 13.603 8.525 13.175 8.525H2.325C1.89698 8.525 1.55 8.87198 1.55 9.3ZM10.85 4.65V6.975H4.65V4.65C4.65 2.93792 6.03792 1.55 7.75 1.55C9.46208 1.55 10.85 2.93792 10.85 4.65Z" fill="black"/>
<mask id="mask0_101_118" style="mask-type:luminance" maskUnits="userSpaceOnUse" x="0" y="0" width="16" height="18">
<path fill-rule="evenodd" clip-rule="evenodd" d="M2.325 17.05C1.04094 17.05 0 16.0091 0 14.725V9.3C0 8.01594 1.04094 6.975 2.325 6.975H3.1V4.65C3.1 2.08188 5.18188 0 7.75 0C10.3181 0 12.4 2.08188 12.4 4.65V6.975H13.175C14.4591 6.975 15.5 8.01594 15.5 9.3V14.725C15.5 16.0091 14.4591 17.05 13.175 17.05H2.325ZM1.55 9.3V14.725C1.55 15.153 1.89698 15.5 2.325 15.5H13.175C13.603 15.5 13.95 15.153 13.95 14.725V9.3C13.95 8.87198 13.603 8.525 13.175 8.525H2.325C1.89698 8.525 1.55 8.87198 1.55 9.3ZM10.85 6.975V4.65C10.85 2.93792 9.46208 1.55 7.75 1.55C6.03792 1.55 4.65 2.93792 4.65 4.65V6.975H10.85Z" fill="white"/>
</mask>
<g mask="url(#mask0_101_118)">
<rect x="-1.55005" y="-0.774902" width="18.6" height="18.6" fill="#FAE7AF"/>
</g>
</svg>
