<svg width="40" height="40" viewBox="0 0 40 40" fill="none" xmlns="http://www.w3.org/2000/svg">
<rect opacity="0.1" width="40" height="40" rx="20" fill="#87AE98"/>
<path fill-rule="evenodd" clip-rule="evenodd" d="M21.2471 31.244C21.4049 31.607 21.7642 31.8408 22.1601 31.838C22.5768 31.8432 22.9513 31.5845 23.0941 31.193L31.0941 10.193C31.2137 9.88781 31.1732 9.54308 30.9861 9.27397C30.7277 8.8886 30.2363 8.73438 29.8041 8.90297L8.80406 16.903L8.69006 16.954C8.35057 17.133 8.14349 17.4905 8.15713 17.8741C8.17077 18.2576 8.40271 18.5995 8.75406 18.754L17.4021 22.597L21.2471 31.244ZM11.7811 17.911L28.4311 11.569L22.0891 28.221L19.0741 21.437L19.0171 21.327C18.9118 21.1502 18.7542 21.0104 18.5661 20.927L11.7811 17.911Z" fill="#87AE98"/>
</svg>
