<svg width="17" height="17" viewBox="0 0 17 17" fill="none" xmlns="http://www.w3.org/2000/svg">
<mask id="mask0_101_163" style="mask-type:luminance" maskUnits="userSpaceOnUse" x="0" y="0" width="17" height="17">
<path fill-rule="evenodd" clip-rule="evenodd" d="M14.2046 16.9999C14.1346 16.9999 14.0632 16.9999 13.9925 16.9902C11.5631 16.7243 9.2294 15.8947 7.17723 14.5677C5.27068 13.3523 3.65302 11.7347 2.43764 9.82811C1.10239 7.76151 0.270614 5.41048 0.00916743 2.96398C-0.047874 2.33276 0.163122 1.70664 0.590575 1.23869C1.01803 0.770737 1.62254 0.504081 2.25633 0.503906H4.52833C5.65455 0.504925 6.60766 1.33605 6.76195 2.45165C6.8499 3.11709 7.01268 3.77047 7.2472 4.3994C7.55542 5.22578 7.35612 6.15593 6.73637 6.78349L6.19696 7.32214C7.08371 8.70836 8.26086 9.88552 9.64709 10.7723L9.2303 11.1883L10.1331 11.0664C9.96231 10.9694 9.7983 10.8701 9.64558 10.7723L10.188 10.2298C10.8141 9.61064 11.7431 9.41209 12.5676 9.72128C13.1992 9.95639 13.8554 10.1194 14.5236 10.2073C15.6543 10.3669 16.4876 11.3459 16.4646 12.4875V14.7332C16.4668 15.334 16.2293 15.9109 15.8049 16.3361C15.3804 16.7612 14.8039 16.9996 14.2031 16.9984L14.2046 16.9999ZM2.2562 2.00853C2.04516 2.00889 1.84398 2.09788 1.70174 2.25378C1.56003 2.40546 1.48828 2.60953 1.50388 2.81651C1.74161 5.02616 2.49399 7.14931 3.70064 9.0156C4.7952 10.7446 6.2598 12.2092 7.98884 13.3038C9.84186 14.5024 11.9491 15.2521 14.1428 15.493C14.1654 15.493 14.1879 15.493 14.2105 15.493C14.4111 15.493 14.6033 15.413 14.7446 15.2706C14.8859 15.1282 14.9644 14.9353 14.9628 14.7347V12.4778C14.9787 12.0927 14.7039 11.7568 14.3233 11.6961C13.5443 11.593 12.7794 11.4025 12.0431 11.1281C11.7697 11.0251 11.4615 11.0896 11.2524 11.2936L10.2969 12.249C10.0578 12.4882 9.68845 12.5384 9.39417 12.3717C7.39189 11.2342 5.73387 9.57723 4.59515 7.57566C4.42825 7.28155 4.47811 6.91222 4.71702 6.67288L5.66945 5.72271C5.87537 5.51293 5.94135 5.20297 5.83872 4.92751C5.56449 4.19402 5.37419 3.43183 5.27148 2.65552C5.21863 2.2816 4.89677 2.00481 4.51916 2.00853H2.2562Z" fill="white"/>
</mask>
<g mask="url(#mask0_101_163)">
<rect x="-0.75293" y="-0.248535" width="18.0556" height="18.0556" fill="#FAE7AF"/>
</g>
</svg>
