<svg width="15" height="16" viewBox="0 0 15 16" fill="none" xmlns="http://www.w3.org/2000/svg">
<path fill-rule="evenodd" clip-rule="evenodd" d="M7.8001 8C5.59096 8 3.8001 6.20914 3.8001 4C3.8001 1.79086 5.59096 0 7.8001 0C10.0092 0 11.8001 1.79086 11.8001 4C11.7975 6.20804 10.0081 7.99736 7.8001 8ZM14.2001 16C13.7583 16 13.4001 15.6418 13.4001 15.2V13.6C13.4001 12.2745 12.3256 11.2 11.0001 11.2H4.6001C3.27461 11.2 2.2001 12.2745 2.2001 13.6V15.2C2.2001 15.6418 1.84193 16 1.4001 16C0.95827 16 0.600098 15.6418 0.600098 15.2V13.6C0.602743 11.392 2.39206 9.60264 4.6001 9.6H11.0001C13.2081 9.60264 14.9975 11.392 15.0001 13.6V15.2C15.0001 15.6418 14.6419 16 14.2001 16ZM5.4001 4C5.4001 2.67452 6.47461 1.6 7.8001 1.6C9.12558 1.6 10.2001 2.67452 10.2001 4C10.2001 5.32548 9.12558 6.4 7.8001 6.4C6.47461 6.4 5.4001 5.32548 5.4001 4Z" fill="black"/>
<mask id="mask0_261_798" style="mask-type:luminance" maskUnits="userSpaceOnUse" x="0" y="0" width="16" height="16">
<path fill-rule="evenodd" clip-rule="evenodd" d="M14.2001 16C13.7583 16 13.4001 15.6418 13.4001 15.2V13.6C13.4001 12.2745 12.3256 11.2 11.0001 11.2H4.6001C3.27461 11.2 2.2001 12.2745 2.2001 13.6V15.2C2.2001 15.6418 1.84193 16 1.4001 16C0.95827 16 0.600098 15.6418 0.600098 15.2V13.6C0.602743 11.392 2.39206 9.60264 4.6001 9.6H11.0001C13.2081 9.60264 14.9975 11.392 15.0001 13.6V15.2C15.0001 15.6418 14.6419 16 14.2001 16ZM7.8001 8C5.59096 8 3.8001 6.20914 3.8001 4C3.8001 1.79086 5.59096 0 7.8001 0C10.0092 0 11.8001 1.79086 11.8001 4C11.7975 6.20804 10.0081 7.99736 7.8001 8ZM7.8001 1.6C6.47461 1.6 5.4001 2.67452 5.4001 4C5.4001 5.32548 6.47461 6.4 7.8001 6.4C9.12558 6.4 10.2001 5.32548 10.2001 4C10.2001 2.67452 9.12558 1.6 7.8001 1.6Z" fill="white"/>
</mask>
<g mask="url(#mask0_261_798)">
<rect x="-1.80005" y="-1.59961" width="19.2" height="19.2" fill="#FAE7AF"/>
</g>
</svg>
