<svg width="41" height="41" viewBox="0 0 41 41" fill="none" xmlns="http://www.w3.org/2000/svg">
<rect width="41" height="41" rx="6" fill="white"/>
<g clip-path="url(#clip0_389_597)">
<path d="M30.6705 35.0002H10.3295C9.5582 35.0002 8.90642 34.4151 8.82495 33.644L8.8684 20.4648H32.1315L32.175 33.644C32.0881 34.4151 31.4417 35.0002 30.6705 35.0002Z" fill="#136849"/>
<path d="M32.1315 20.4648H20.4972V35.0002H30.665C31.4362 35.0002 32.088 34.4151 32.1695 33.644L32.1315 20.4648Z" fill="#136849"/>
<path d="M32.3434 20.465H8.66204C7.74412 20.465 7 19.7158 7 18.7971V16.6425C7 15.7183 7.74412 14.9746 8.65661 14.9746H32.338C33.2559 14.9746 33.9946 15.7238 33.9946 16.6425V18.7971C34 19.7158 33.2559 20.465 32.3434 20.465Z" fill="#12AD5F"/>
<path d="M32.3434 14.9746H20.5027V20.465H32.3434C33.2559 20.465 34 19.7158 34 18.7971V16.6425C34 15.7183 33.2559 14.9746 32.3434 14.9746Z" fill="#12AD5F"/>
<path d="M18.2866 14.9746H22.7187V20.465H18.2866V14.9746Z" fill="#FAE7AF"/>
<path d="M20.5027 14.9746H22.7187V20.465H20.5027V14.9746Z" fill="#FFAA39"/>
<path d="M18.7917 20.4648H22.2082V35.0002H18.7917V20.4648Z" fill="#FAE7AF"/>
<path d="M20.4972 20.4648H22.2081V35.0002H20.4972V20.4648Z" fill="#FFC738"/>
<path d="M21.0622 14.0828C20.8287 14.8593 20.0194 15.4499 19.3785 15.8765C18.6724 16.3468 17.8957 16.7022 17.157 17.1069C16.603 17.4077 16.0327 17.878 15.37 17.8998C14.6748 17.9162 14.2022 17.3748 13.9904 16.7624C13.7297 16.0022 13.8275 15.1492 14.0828 14.4C14.3217 13.6945 14.8377 13.1805 15.4406 12.7649C16.8963 11.7587 18.6181 11.5345 20.3561 11.6384C20.8232 11.6657 21.2904 11.7149 21.752 11.7805C21.7412 11.786 21.0622 14.0828 21.0622 14.0828Z" fill="#FFAA39"/>
<path d="M19.4327 12.3602C19.4327 11.5509 18.8244 10.7525 18.3301 10.1564C17.787 9.50021 17.1461 8.93695 16.5486 8.33541C16.1032 7.88152 15.6904 7.26357 15.0658 7.05577C13.9306 6.68391 13.621 8.26432 13.4907 9.05179C13.3929 9.62598 13.3603 10.2275 13.4526 10.8072C13.6427 11.9829 14.414 12.9837 15.4514 13.5415C16.6681 14.1977 18.0748 14.5477 19.4327 14.7555V12.3602Z" fill="#FAE7AF"/>
<path d="M19.9379 14.0828C20.1714 14.8593 20.9807 15.4499 21.6216 15.8765C22.3277 16.3468 23.1044 16.7022 23.8431 17.1069C24.3971 17.4077 24.9675 17.878 25.6301 17.8998C26.3253 17.9162 26.7979 17.3748 27.0097 16.7624C27.2704 16.0022 27.1726 15.1492 26.9174 14.4C26.6784 13.6945 26.1624 13.1805 25.5595 12.7649C24.1093 11.7587 22.3875 11.5345 20.6548 11.6384C20.1877 11.6657 19.7206 11.7149 19.2589 11.7805C19.2535 11.786 19.9379 14.0828 19.9379 14.0828Z" fill="#FF933B"/>
<path d="M21.5673 12.3606C21.5673 11.5513 22.1756 10.7529 22.6699 10.1568C23.213 9.5006 23.8539 8.93734 24.4514 8.3358C24.8968 7.88738 25.3096 7.26943 25.9342 7.06163C27.0694 6.68977 27.379 8.27018 27.5093 9.05765C27.6071 9.63184 27.6397 10.2334 27.5473 10.813C27.3572 11.9888 26.586 12.9895 25.5486 13.5473C24.3319 14.2035 22.9251 14.5535 21.5673 14.7613V12.3606Z" fill="#FAE7AF"/>
<path d="M20.4974 15.9695C21.7722 15.9695 22.8057 14.929 22.8057 13.6454C22.8057 12.3618 21.7722 11.3213 20.4974 11.3213C19.2225 11.3213 18.189 12.3618 18.189 13.6454C18.189 14.929 19.2225 15.9695 20.4974 15.9695Z" fill="#FAE7AF"/>
<path d="M20.4973 11.3213V15.9695C21.7737 15.9695 22.8057 14.9305 22.8057 13.6454C22.8057 12.3603 21.7737 11.3213 20.4973 11.3213Z" fill="#FFC738"/>
</g>
<defs>
<clipPath id="clip0_389_597">
<rect width="27" height="28" fill="white" transform="translate(7 7)"/>
</clipPath>
</defs>
</svg>
