<svg width="300" height="300" viewBox="0 0 300 300" fill="none" xmlns="http://www.w3.org/2000/svg">
<path d="M120.154 34.8721H61.3146V93.7116H120.154V34.8721ZM111.979 85.5366H69.4896V43.0471H111.979V85.5366Z" fill="black"/>
<path d="M103.501 51.5249H77.9673V77.059H103.501V51.5249Z" fill="black"/>
<path d="M179.846 34.8721V93.7116H238.685V34.8721H179.846ZM230.51 85.5366H188.021V43.0471H230.51V85.5366Z" fill="black"/>
<path d="M222.033 51.5249H196.499V77.059H222.033V51.5249Z" fill="black"/>
<path d="M61.3146 211.489H120.154V152.649H61.3146V211.489ZM69.4896 160.824H111.979V203.314H69.4896V160.824Z" fill="black"/>
<path d="M103.501 169.302H77.9673V194.836H103.501V169.302Z" fill="black"/>
<path d="M77.9673 102.097H61.3146V110.547H77.9673V102.097Z" fill="black"/>
<path d="M111.828 110.949H120.318V119.041H103.501V120.197V127.493V135.917V144.368V144.372H111.828V144.368H128.884V135.917H111.828V127.493H128.884V135.913H137.21V127.493V120.197V119.041H128.644V102.47H120.318V102.499H111.828V110.949Z" fill="black"/>
<path d="M161.988 127.492V135.944H153.661V144.368H145.335V152.824H137.21V161.221H128.884V144.372L137.21 144.368V135.918H145.537V127.492H161.988Z" fill="black"/>
<path d="M179.179 169.302V161.221V160.85V152.771H170.853V160.85H145.537V169.302H153.762V178.254H145.537V169.302H137.21V178.081H128.675V186.533H137.21V194.836H128.675V211.489H137.21H145.126H145.537V194.836H153.762V186.372H162.089V169.302H179.179Z" fill="black"/>
<path d="M170.415 194.836V203.287H195.781V211.737H221.38V203.287H204.057V194.836V186.372H195.731V194.836H170.415Z" fill="black"/>
<path d="M170.415 203.287H153.863V211.737H170.415V203.287Z" fill="black"/>
<path d="M179.343 119.041H161.988V127.491H179.343V119.041Z" fill="black"/>
<path d="M229.08 127.498V135.838H237.372V144.304H229.046V135.838H220.72V144.304H212.393V135.838H204.124V119.047L220.627 119.032V110.816H212.093V102.365H228.953V110.816V119.047H237.625V127.498H229.08Z" fill="black"/>
<path d="M153.661 144.372V152.822H161.988V144.394H170.314V135.943H161.988V144.372H153.661Z" fill="black"/>
<path d="M170.415 186.372H162.089V194.836H170.415V186.372Z" fill="black"/>
<path d="M220.718 186.361H212.392V194.825H220.718V186.361Z" fill="black"/>
<path d="M187.52 135.943H179.194V144.394H187.52V135.943Z" fill="black"/>
<path d="M179.344 119.041H187.669V110.827H204.479V102.375H179.343V110.827H179.344V119.041Z" fill="black"/>
<path d="M69.6409 119.006H61.3146V144.372H69.6409V119.006Z" fill="black"/>
<path d="M136.93 102.499H137.21V119.041H145.537V110.337H153.863V102.499H166.25V102.47H170.898V68.603H162.571V77.3821H153.863V85.7084H162.571V94.1725H153.863V85.7084H145.537V94.1725H136.97V68.7393H145.297V34.8721H136.97V43.3389H128.644V60.2725H136.97V68.603H128.644V102.47H136.93V102.499Z" fill="black"/>
<path d="M229.046 161.126V169.962H220.72V161.126H212.389V144.304H204.12V135.838H195.794V144.394H187.521V169.301H179.179V177.752H186.735V186.372H195.731V177.752H204.057V169.28L204.063 169.291H212.389V169.256L212.393 169.291V177.743H220.72V186.362H229.046V203.195H237.372V161.127H229.046V161.126ZM204.057 160.839H195.847V152.715H204.063L204.057 160.839Z" fill="black"/>
<path d="M229.045 144.304H220.718V161.126H229.045V144.304Z" fill="black"/>
<path d="M212.393 177.743H204.063V186.363H212.393V177.743Z" fill="black"/>
<path d="M170.834 43.1984V34.8721H162.571H156.21H153.863V51.9503H162.571V43.1984H170.834Z" fill="black"/>
<path d="M162.571 60.2769H153.863V68.6032H162.571V60.2769Z" fill="black"/>
<path d="M171.28 51.9502H162.571V60.2766H171.28V51.9502Z" fill="black"/>
<path d="M94.62 135.914H86.2936V144.372H94.62V135.914Z" fill="black"/>
<path d="M94.62 127.865V102.499H86.2936V110.547H77.9673V135.914H86.2936V127.865H94.62Z" fill="black"/>
<path d="M47.3277 59.2376C45.5087 59.2376 44.0332 57.7622 44.0332 55.9431V20.8854C44.0332 19.0663 45.5087 17.5908 47.3277 17.5908H82.3841C84.2032 17.5908 85.6787 19.0663 85.6787 20.8854C85.6787 22.7045 84.2032 24.1799 82.3841 24.1799H50.6237V55.9417C50.6237 57.7622 49.1482 59.2376 47.3277 59.2376Z" fill="#12AD5F"/>
<path d="M252.672 59.2376C250.853 59.2376 249.378 57.7622 249.378 55.9431V24.1799H217.616C215.797 24.1799 214.321 22.7045 214.321 20.8854C214.321 19.0663 215.797 17.5908 217.616 17.5908H252.672C254.491 17.5908 255.967 19.0663 255.967 20.8854V55.9417C255.967 57.7622 254.491 59.2376 252.672 59.2376Z" fill="#12AD5F"/>
<path d="M82.3855 229.019H47.3277C45.5087 229.019 44.0332 227.543 44.0332 225.724V190.668C44.0332 188.849 45.5087 187.373 47.3277 187.373C49.1468 187.373 50.6223 188.849 50.6223 190.668V222.429H82.3841C84.2032 222.429 85.6787 223.905 85.6787 225.724C85.68 227.543 84.2046 229.019 82.3855 229.019Z" fill="#12AD5F"/>
<path d="M252.672 229.019H217.616C215.797 229.019 214.321 227.543 214.321 225.724C214.321 223.905 215.797 222.429 217.616 222.429H249.378V190.668C249.378 188.849 250.853 187.373 252.672 187.373C254.491 187.373 255.967 188.849 255.967 190.668V225.724C255.967 227.543 254.491 229.019 252.672 229.019Z" fill="#12AD5F"/>
<line x1="42" y1="118.5" x2="259" y2="118.5" stroke="#FF5C3A" stroke-width="5"/>
</svg>
