<svg width="21" height="21" viewBox="0 0 21 21" fill="none" xmlns="http://www.w3.org/2000/svg">
<path d="M14.7176 9.57681C14.6884 9.47478 14.6198 9.38855 14.527 9.33709C14.4342 9.28563 14.3247 9.27315 14.2227 9.3024C14.1207 9.33165 14.0344 9.40023 13.983 9.49305C13.9315 9.58587 13.919 9.69534 13.9483 9.79736C14.1938 10.6561 14.1449 11.5722 13.8094 12.3999C13.4738 13.2276 12.8709 13.9192 12.0967 14.3645C11.3225 14.8098 10.4216 14.9831 9.53743 14.857C8.65327 14.7308 7.83676 14.3124 7.21799 13.6684C6.59922 13.0244 6.21378 12.1918 6.1231 11.3033C6.03241 10.4148 6.24168 9.52148 6.71757 8.76571C7.19347 8.00994 7.90861 7.43519 8.74905 7.13301C9.58949 6.83083 10.5069 6.81861 11.3551 7.0983C11.4558 7.13153 11.5657 7.12337 11.6604 7.07562C11.7551 7.02787 11.827 6.94444 11.8602 6.84369C11.8934 6.74294 11.8853 6.63312 11.8375 6.53838C11.7898 6.44365 11.7064 6.37177 11.6056 6.33854C10.5877 6.003 9.48685 6.01777 8.47834 6.38049C7.46983 6.74321 6.61172 7.43301 6.04074 8.34001C5.46976 9.247 5.21875 10.319 5.3277 11.3852C5.43665 12.4514 5.8993 13.4505 6.64194 14.2232C7.38457 14.996 8.36446 15.498 9.42549 15.6492C10.4865 15.8004 11.5676 15.5922 12.4966 15.0577C13.4256 14.5233 14.1489 13.6932 14.5515 12.6999C14.954 11.7066 15.0125 10.6072 14.7176 9.57681Z" fill="#12AD5F"/>
<path d="M9.59178 8.39622C9.54968 8.4289 9.51454 8.46967 9.48842 8.51612C9.4623 8.56257 9.44572 8.61377 9.43967 8.66672C9.43361 8.71967 9.4382 8.77329 9.45315 8.82444C9.46811 8.87559 9.49314 8.92324 9.52677 8.96458C9.5604 9.00593 9.60195 9.04013 9.64898 9.06519C9.69601 9.09025 9.74758 9.10566 9.80065 9.11052C9.85372 9.11537 9.90723 9.10957 9.95802 9.09345C10.0088 9.07734 10.0559 9.05124 10.0965 9.01668L12.6608 6.92913C12.7029 6.89645 12.738 6.85568 12.7641 6.80923C12.7903 6.76278 12.8068 6.71158 12.8129 6.65863C12.819 6.60568 12.8144 6.55206 12.7994 6.50091C12.7845 6.44976 12.7594 6.40211 12.7258 6.36077C12.6922 6.31942 12.6506 6.28522 12.6036 6.26016C12.5566 6.2351 12.505 6.21969 12.4519 6.21483C12.3988 6.20998 12.3453 6.21578 12.2945 6.2319C12.2437 6.24801 12.1967 6.27411 12.1561 6.30867L9.59178 8.39622Z" fill="#12AD5F"/>
<path d="M10.4877 4.32954C10.4088 4.26166 10.3064 4.22727 10.2025 4.23367C10.0985 4.24008 10.0011 4.28677 9.93109 4.36383C9.86102 4.44089 9.82378 4.54224 9.82727 4.64633C9.83077 4.75042 9.87472 4.84905 9.94979 4.92124L12.1397 6.91451C12.1786 6.9499 12.2241 6.97728 12.2736 6.9951C12.323 7.01291 12.3755 7.02081 12.428 7.01834C12.4806 7.01587 12.5321 7.00307 12.5796 6.98069C12.6272 6.95831 12.6699 6.92678 12.7053 6.88789C12.7407 6.84901 12.7681 6.80353 12.7859 6.75407C12.8037 6.7046 12.8116 6.65211 12.8091 6.59959C12.8067 6.54707 12.7939 6.49555 12.7715 6.44797C12.7491 6.4004 12.7176 6.3577 12.6787 6.32231L10.4877 4.32954Z" fill="#12AD5F"/>
</svg>
