<svg width="40" height="40" viewBox="0 0 40 40" fill="none" xmlns="http://www.w3.org/2000/svg">
<rect opacity="0.1" width="40" height="40" rx="20" fill="#C1C6C5"/>
<path fill-rule="evenodd" clip-rule="evenodd" d="M21.247 31.244C21.4049 31.607 21.7641 31.8408 22.16 31.838C22.5767 31.8432 22.9513 31.5845 23.094 31.193L31.094 10.193C31.2136 9.88781 31.1731 9.54308 30.986 9.27397C30.7276 8.8886 30.2363 8.73438 29.804 8.90297L8.804 16.903L8.69 16.954C8.35051 17.133 8.14343 17.4905 8.15707 17.8741C8.17071 18.2576 8.40265 18.5995 8.754 18.754L17.402 22.597L21.247 31.244ZM11.781 17.911L28.431 11.569L22.089 28.221L19.074 21.437L19.017 21.327C18.9117 21.1502 18.7541 21.0104 18.566 20.927L11.781 17.911Z" fill="#C1C6C5"/>
</svg>
