<svg width="25" height="25" viewBox="0 0 25 25" fill="none" xmlns="http://www.w3.org/2000/svg">
<g clip-path="url(#clip0_389_699)">
<path d="M24.3943 14.8214C23.5874 13.9138 22.1909 13.8299 21.2814 14.6346L20.0692 15.7068V8.78899H20.3134C20.7179 8.78899 21.0458 8.46107 21.0458 8.05658V4.63864C21.0458 4.23415 20.7179 3.90622 20.3134 3.90622H16.8449C17.0328 3.53967 17.1396 3.12498 17.1396 2.68553C17.1396 1.20473 15.9348 0 14.454 0C13.685 0 12.991 0.325437 12.5009 0.845208C12.0109 0.325437 11.3169 0 10.5478 0C9.06702 0 7.86229 1.20473 7.86229 2.68553C7.86229 3.12498 7.96908 3.53967 8.15697 3.90622H4.68849C4.284 3.90622 3.95607 4.23415 3.95607 4.63864V8.05658C3.95607 8.46107 4.284 8.78899 4.68849 8.78899H4.93263V14.3339C4.48463 14.5511 4.06086 14.8253 3.67097 15.1541L3.08611 15.6473L0.493746 16.7583C0.315232 16.8348 0.174364 16.9791 0.102197 17.1594C0.0300294 17.3398 0.0325196 17.5414 0.109033 17.7199L3.0387 24.5558C3.15774 24.8335 3.4281 24.9999 3.71223 24.9999C3.80847 24.9999 3.90632 24.9808 4.00041 24.9405L6.55488 23.8458H16.2289C17.1335 23.8458 18.0024 23.5129 18.6755 22.9085L24.2192 17.9308C25.1205 17.1216 25.199 15.7267 24.3943 14.8214ZM18.6044 17.0026L17.6055 17.8862C17.6092 17.8341 17.6111 17.7814 17.6111 17.7282C17.6111 16.5167 16.6254 15.531 15.4126 15.531L13.2333 15.5346V8.78899H18.6044V17.0026ZM19.581 7.32416H13.2333V5.37105H19.581V7.32416ZM14.454 1.46483C15.1271 1.46483 15.6747 2.01244 15.6747 2.68553C15.6747 3.35862 15.1271 3.90622 14.454 3.90622H13.2333V2.68553C13.2333 2.01244 13.7809 1.46483 14.454 1.46483ZM9.32713 2.68553C9.32713 2.01244 9.87473 1.46483 10.5478 1.46483C11.2209 1.46483 11.7685 2.01244 11.7685 2.68553V3.90622H10.5478C9.87473 3.90622 9.32713 3.35862 9.32713 2.68553ZM5.42091 5.37105H11.7685V7.32416H5.42091V5.37105ZM6.39746 8.78899H11.7685V15.4624C10.7555 14.464 9.43425 13.8614 8.00233 13.7536C7.45844 13.7126 6.91962 13.7446 6.39746 13.8458V8.78899ZM4.0966 23.3057L1.74398 17.8162L3.09026 17.2393L5.44288 22.7287L4.0966 23.3057ZM23.2406 16.841L17.6969 21.8187C17.293 22.1814 16.7717 22.3811 16.2289 22.3811H6.88755L4.36183 16.4877L4.61535 16.2738C5.01148 15.9397 5.45377 15.6802 5.92471 15.4998C5.93472 15.496 5.94488 15.4926 5.95469 15.4884C6.56548 15.2595 7.22367 15.1639 7.89232 15.2142C9.0885 15.3043 10.1828 15.8507 10.9736 16.7527C11.1127 16.9113 11.3134 17.0023 11.5243 17.0023H11.5255L12.4697 17.0007C12.4801 17.0011 12.4904 17.0023 12.5009 17.0023C12.5122 17.0023 12.5231 17.0011 12.5342 17.0006L15.4138 16.9958C15.8177 16.9958 16.1463 17.3244 16.1463 17.7282C16.1463 18.1321 15.8177 18.4606 15.4138 18.4606H10.3732C9.96867 18.4606 9.64075 18.7886 9.64075 19.1931C9.64075 19.5976 9.96867 19.9255 10.3732 19.9255H16.6787C17.2154 19.9255 17.7324 19.7296 18.1345 19.374L22.2519 15.7317C22.5581 15.4609 23.0279 15.4892 23.2995 15.7946C23.5703 16.0992 23.5439 16.5687 23.2406 16.841Z" fill="#12AD5F"/>
</g>
<defs>
<clipPath id="clip0_389_699">
<rect width="25" height="25" fill="white"/>
</clipPath>
</defs>
</svg>
