<svg width="16" height="16" viewBox="0 0 16 16" fill="none" xmlns="http://www.w3.org/2000/svg">
<rect width="16" height="16" rx="3" fill="#12AD5F"/>
<path d="M9.83101 6.32403C10.1345 5.96952 10.6544 5.89623 11.044 6.15303C11.2254 6.26548 11.3498 6.45032 11.3858 6.66068C11.4217 6.87104 11.3657 7.08671 11.232 7.25303L8.54501 10.6C8.4003 10.7733 8.19141 10.8803 7.96627 10.8965C7.74112 10.9127 7.51906 10.8367 7.35101 10.686L5.25401 8.77103C5.09262 8.6303 5 8.42665 5 8.21253C5 7.9984 5.09262 7.79475 5.25401 7.65403C5.60516 7.34536 6.13087 7.34536 6.48201 7.65403L7.80001 8.85303L9.83101 6.32403Z" fill="white"/>
</svg>
