<svg width="40" height="40" viewBox="0 0 40 40" fill="none" xmlns="http://www.w3.org/2000/svg">
<rect opacity="0.1" width="40" height="40" rx="20" fill="#C1C6C5"/>
<path fill-rule="evenodd" clip-rule="evenodd" d="M15.909 28.969L19.114 30.547V30.552C19.6722 30.8276 20.3268 30.8276 20.885 30.552L24.091 28.969L27.251 30.24C27.8674 30.489 28.5672 30.4154 29.1183 30.0437C29.6694 29.672 29.9998 29.0508 30 28.386V12.869C30 11.2122 28.6569 9.86902 27 9.86902H13C11.3431 9.86902 10 11.2122 10 12.869V28.386C9.99968 29.0512 10.3301 29.673 10.8816 30.045C11.433 30.417 12.1333 30.4905 12.75 30.241L15.909 28.969ZM20 28.754L16.8 27.169C16.5226 27.0335 16.2178 26.9634 15.909 26.964C15.6523 26.9638 15.3981 27.0131 15.16 27.109L12 28.386V12.869C12 12.3167 12.4477 11.869 13 11.869H27C27.5523 11.869 28 12.3167 28 12.869V28.386L24.841 27.108C24.603 27.0119 24.3487 26.9626 24.092 26.963C23.7848 26.9632 23.4818 27.0337 23.206 27.169L20 28.754ZM15 21.869V19.869H25V21.869H15ZM15 15.869V17.869H25V15.869H15Z" fill="#C1C6C5"/>
</svg>
