<svg width="40" height="40" viewBox="0 0 40 40" fill="none" xmlns="http://www.w3.org/2000/svg">
<rect opacity="0.1" width="40" height="40" rx="20" fill="#C1C6C5"/>
<path fill-rule="evenodd" clip-rule="evenodd" d="M11.288 22.527C16.715 28.358 18.995 30.427 20 30.427C21.089 30.427 23.577 28.106 30.237 20.873C31.3813 19.6486 32.0123 18.0319 32 16.356C32.011 14.6755 31.3776 13.0547 30.23 11.827L30.053 11.646C28.9161 10.5111 27.3655 9.88893 25.7594 9.92309C24.1534 9.95725 22.6307 10.6448 21.543 11.827L20 13.468L18.459 11.827L18.239 11.606C17.0983 10.4895 15.5539 9.88291 13.9582 9.92456C12.3626 9.9662 10.8519 10.6526 9.77101 11.827C8.62227 13.0545 7.98836 14.6759 8.00001 16.357C7.9896 18.0361 8.62344 19.6552 9.77101 20.881L11.288 22.527ZM11.226 13.203C11.9694 12.394 13.0164 11.9316 14.115 11.927C15.0619 11.9319 15.9753 12.2776 16.688 12.901L16.839 13.039L17.019 13.22L20 16.387L22.999 13.2C23.7394 12.3875 24.7878 11.9244 25.887 11.9244C26.9863 11.9244 28.0347 12.3875 28.775 13.2C30.4119 14.9837 30.4119 17.7233 28.775 19.507L27.356 21.04C25.439 23.099 23.839 24.762 22.602 25.984L22.179 26.399C21.415 27.142 20.797 27.704 20.343 28.068L20.116 28.244L20 28.327L19.985 28.318C19.887 28.249 19.778 28.171 19.659 28.071L19.369 27.831C19.01 27.522 18.566 27.122 18.05 26.622L17.4 25.987C15.867 24.473 13.793 22.297 11.234 19.518C9.59185 17.7345 9.58838 14.9907 11.226 13.203Z" fill="#C1C6C5"/>
</svg>
