<svg width="20" height="14" viewBox="0 0 20 14" fill="none" xmlns="http://www.w3.org/2000/svg">
<path fill-rule="evenodd" clip-rule="evenodd" d="M2.94672 10.6431C5.03505 12.8707 7.35205 14 9.83316 14C12.3143 14 14.6313 12.8707 16.7204 10.6423C17.3698 9.94647 17.9557 9.19396 18.4712 8.39378C18.6935 8.05593 18.898 7.70676 19.084 7.34767C19.1937 7.12858 19.1937 6.87064 19.084 6.65156C18.898 6.29247 18.6935 5.94329 18.4712 5.60544C17.9557 4.80527 17.3698 4.05276 16.7204 3.35689C14.6313 1.12933 12.3143 0 9.83316 0C7.35205 0 5.03505 1.12933 2.94594 3.35689C2.2968 4.05279 1.71114 4.8053 1.19594 5.60544C0.97312 5.94326 0.768028 6.29243 0.581495 6.65156C0.472835 6.87087 0.472835 7.12835 0.581495 7.34767C0.768012 7.70705 0.973104 8.05649 1.19594 8.39456C1.71138 9.19473 2.29731 9.94724 2.94672 10.6431ZM4.07764 4.42013C5.86653 2.51924 7.79931 1.55558 9.8332 1.55558C11.8671 1.55558 13.7999 2.51924 15.5888 4.42013C16.1748 5.04814 16.7032 5.72754 17.1676 6.45013C17.2921 6.64224 17.4056 6.82736 17.5052 7.00002C17.4064 7.17036 17.2929 7.35547 17.1676 7.54991C16.7032 8.27224 16.1748 8.95138 15.5888 9.57913C13.7999 11.4808 11.8671 12.4445 9.8332 12.4445C7.79931 12.4445 5.86653 11.4808 4.07764 9.57913C3.49192 8.95085 2.96352 8.27148 2.49875 7.54913C2.37042 7.35002 2.25686 7.16491 2.16197 6.99924C2.25997 6.82969 2.37275 6.64458 2.49875 6.44936C2.96356 5.72727 3.49196 5.04817 4.07764 4.42013ZM9.83316 10.1111C8.11494 10.1111 6.72205 8.71817 6.72205 6.99996C6.72205 5.28174 8.11494 3.88884 9.83316 3.88884C11.5514 3.88884 12.9443 5.28174 12.9443 6.99996C12.9443 7.82507 12.6165 8.6164 12.033 9.19984C11.4496 9.78329 10.6583 10.1111 9.83316 10.1111ZM8.27763 6.99998C8.27763 6.14087 8.97407 5.44442 9.83318 5.44442C10.6923 5.44442 11.3887 6.14087 11.3887 6.99998C11.3887 7.85909 10.6923 8.55553 9.83318 8.55553C8.97407 8.55553 8.27763 7.85909 8.27763 6.99998Z" fill="black"/>
<mask id="mask0_101_1837" style="mask-type:luminance" maskUnits="userSpaceOnUse" x="0" y="0" width="20" height="14">
<path fill-rule="evenodd" clip-rule="evenodd" d="M9.83316 14C7.35205 14 5.03505 12.8707 2.94672 10.6431C2.29731 9.94724 1.71138 9.19473 1.19594 8.39456C0.973104 8.05649 0.768012 7.70705 0.581495 7.34767C0.472835 7.12835 0.472835 6.87087 0.581495 6.65156C0.768028 6.29243 0.97312 5.94326 1.19594 5.60544C1.71114 4.8053 2.2968 4.05279 2.94594 3.35689C5.03505 1.12933 7.35205 0 9.83316 0C12.3143 0 14.6313 1.12933 16.7204 3.35689C17.3698 4.05276 17.9557 4.80527 18.4712 5.60544C18.6935 5.94329 18.898 6.29247 19.084 6.65156C19.1937 6.87064 19.1937 7.12858 19.084 7.34767C18.898 7.70676 18.6935 8.05593 18.4712 8.39378C17.9557 9.19396 17.3698 9.94647 16.7204 10.6423C14.6313 12.8707 12.3143 14 9.83316 14ZM9.8332 1.55558C7.79931 1.55558 5.86653 2.51924 4.07764 4.42013C3.49196 5.04817 2.96356 5.72727 2.49875 6.44936C2.37275 6.64458 2.25997 6.82969 2.16197 6.99924C2.25686 7.16491 2.37042 7.35002 2.49875 7.54913C2.96352 8.27148 3.49192 8.95085 4.07764 9.57913C5.86653 11.4808 7.79931 12.4445 9.8332 12.4445C11.8671 12.4445 13.7999 11.4808 15.5888 9.57913C16.1748 8.95138 16.7032 8.27224 17.1676 7.54991C17.2929 7.35547 17.4064 7.17036 17.5052 7.00002C17.4056 6.82736 17.2921 6.64224 17.1676 6.45013C16.7032 5.72754 16.1748 5.04814 15.5888 4.42013C13.7999 2.51924 11.8671 1.55558 9.8332 1.55558ZM9.83316 10.1111C8.11494 10.1111 6.72205 8.71817 6.72205 6.99996C6.72205 5.28174 8.11494 3.88884 9.83316 3.88884C11.5514 3.88884 12.9443 5.28174 12.9443 6.99996C12.9443 7.82507 12.6165 8.6164 12.033 9.19984C11.4496 9.78329 10.6583 10.1111 9.83316 10.1111ZM9.83318 5.44442C8.97407 5.44442 8.27763 6.14087 8.27763 6.99998C8.27763 7.85909 8.97407 8.55553 9.83318 8.55553C10.6923 8.55553 11.3887 7.85909 11.3887 6.99998C11.3887 6.14087 10.6923 5.44442 9.83318 5.44442Z" fill="white"/>
</mask>
<g mask="url(#mask0_101_1837)">
<rect x="0.499756" y="-2.3335" width="18.6667" height="18.6667" fill="#FAE7AF"/>
</g>
</svg>
