<svg width="40" height="40" viewBox="0 0 40 40" fill="none" xmlns="http://www.w3.org/2000/svg">
<rect opacity="0.1" width="40" height="40" rx="20" fill="#C1C6C5"/>
<path fill-rule="evenodd" clip-rule="evenodd" d="M20 31C17.8352 31.0308 16.0417 29.3275 15.961 27.164H11.726C11.2923 27.223 10.8541 27.0922 10.5236 26.8052C10.1931 26.5182 10.0023 26.1027 10 25.665C10 24.565 10.96 23.626 11.888 22.721L11.932 22.678C12.651 21.965 12.832 20.546 12.97 19.03C13.136 14.794 14.4 12.386 16.937 11.453C17.2604 10.0185 18.5346 8.99963 20.005 8.99963C21.4754 8.99963 22.7496 10.0185 23.073 11.453C24.3664 11.9192 25.42 12.8825 26 14.129C26.6855 15.6712 27.0365 17.3412 27.03 19.029C27.167 20.544 27.349 21.963 28.068 22.677L28.108 22.716L28.1084 22.7164C29.0383 23.6223 30 24.5591 30 25.664C29.9979 26.1019 29.8073 26.5176 29.4767 26.8049C29.1462 27.0921 28.7079 27.223 28.274 27.164H24.049C23.9635 29.3293 22.1668 31.0315 20 31ZM17.934 27.164C17.9105 27.9192 18.3 28.6274 18.9505 29.0119C19.6009 29.3965 20.4091 29.3965 21.0595 29.0119C21.71 28.6274 22.0995 27.9192 22.076 27.164H17.934ZM18.469 12.742C18.521 11.67 19.122 10.97 20 10.97C20.878 10.97 21.48 11.666 21.532 12.741C21.5314 12.9806 21.7053 13.1851 21.942 13.223C23.939 13.767 24.878 15.639 24.985 19.292C25.107 21.454 25.48 22.877 26.125 23.642C26.4202 23.9851 26.7429 24.3208 27.0078 24.5964L27.042 24.632C27.07 24.6609 27.0975 24.6893 27.1244 24.717C27.2652 24.8622 27.388 24.9889 27.472 25.088V25.214H12.507V25.088C12.6073 24.9743 12.755 24.8242 12.9257 24.6507L12.95 24.626C12.99 24.5848 13.0315 24.5423 13.074 24.4988C13.3247 24.2419 13.6132 23.9463 13.874 23.642C14.529 22.876 14.903 21.454 15.015 19.292C14.9709 17.7568 15.2971 16.2335 15.966 14.851C16.4083 14.0426 17.1656 13.4536 18.058 13.224C18.2957 13.1877 18.4708 12.9824 18.469 12.742Z" fill="#C1C6C5"/>
</svg>
