<svg width="23" height="23" viewBox="0 0 23 23" fill="none" xmlns="http://www.w3.org/2000/svg">
<circle cx="11.5" cy="11.5" r="11.5" fill="#FAE7AF"/>
<path d="M11.6747 5.47772C11.7645 5.20133 12.1555 5.20133 12.2453 5.47772L13.3385 8.84225C13.3787 8.96585 13.4939 9.04954 13.6239 9.04954H17.1615C17.4521 9.04954 17.573 9.42142 17.3379 9.59225L14.4758 11.6716C14.3707 11.748 14.3267 11.8834 14.3668 12.007L15.46 15.3716C15.5498 15.648 15.2335 15.8778 14.9984 15.707L12.1364 13.6276C12.0312 13.5512 11.8888 13.5512 11.7837 13.6276L8.92165 15.707C8.68654 15.8778 8.37019 15.648 8.46 15.3716L9.5532 12.007C9.59336 11.8834 9.54936 11.748 9.44422 11.6716L6.58218 9.59224C6.34707 9.42142 6.4679 9.04954 6.75852 9.04954H10.2962C10.4262 9.04954 10.5413 8.96585 10.5815 8.84225L11.6747 5.47772Z" fill="#12AD5F"/>
</svg>
