<svg width="40" height="40" viewBox="0 0 40 40" fill="none" xmlns="http://www.w3.org/2000/svg">
<rect opacity="0.1" width="40" height="40" rx="20" fill="#12AD5F"/>
<path fill-rule="evenodd" clip-rule="evenodd" d="M10 19.911C10.0303 25.407 14.5039 29.8413 20 29.823C25.4959 29.8407 29.9692 25.4068 30 19.911C30 14.3882 25.5228 9.91101 20 9.91101C14.4772 9.91101 10 14.3882 10 19.911ZM15.358 13.056C16.652 12.1971 18.1597 11.7158 19.712 11.666C20.0184 12.1089 20.3931 12.5004 20.822 12.826C20.9908 12.9568 21.174 13.0679 21.368 13.157C21.6242 13.265 21.8556 13.4242 22.048 13.625C22.1546 13.8254 22.1898 14.056 22.148 14.279C22.141 14.358 22.141 14.432 22.141 14.498C22.139 14.8592 22.2902 15.2042 22.5571 15.4475C22.824 15.6908 23.1816 15.8094 23.541 15.774H23.689C24.7125 15.6123 25.72 15.3617 26.7 15.025C27.7594 16.4337 28.3325 18.1484 28.333 19.911C28.3041 23.1585 26.3919 26.0936 23.4329 27.432C20.4739 28.7705 17.007 28.2686 14.549 26.146L14.559 26.133C14.5634 26.1276 14.5674 26.1219 14.571 26.116C15.943 23.83 15.082 22.433 14.443 21.804C14.2656 21.6355 14.0779 21.4782 13.881 21.333L13.8804 21.3326C13.3637 20.9348 13.022 20.6717 13.022 19.912C13.022 19.553 13.222 19.413 14.222 19.076C14.9745 18.8975 15.6572 18.5001 16.184 17.934C17.347 16.444 16.068 14.146 15.8 13.7C15.664 13.4778 15.5165 13.2628 15.358 13.056Z" fill="#12AD5F"/>
<path d="M22.928 17.354C21.6415 17.3408 20.417 17.9057 19.592 18.893C19.1433 19.4609 19.0027 20.2133 19.216 20.905C19.6172 21.8714 19.6876 22.9434 19.416 23.954C19.2124 24.4298 19.2152 24.9688 19.4236 25.4426C19.6321 25.9164 20.0276 26.2825 20.516 26.454C20.7816 26.5597 21.0651 26.613 21.351 26.611C22.6231 26.4834 23.7987 25.8754 24.638 24.911C25.8441 23.8063 26.5753 22.2773 26.678 20.645C26.5464 18.703 24.8706 17.2323 22.928 17.354Z" fill="#12AD5F"/>
</svg>
