<svg width="186" height="148" viewBox="0 0 186 148" fill="none" xmlns="http://www.w3.org/2000/svg">
<path fill-rule="evenodd" clip-rule="evenodd" d="M73.6541 1L72.91 2.929L72.9181 2.937C75.11 3.497 75.3071 6.441 75.3071 6.441L76.854 5.365C77.2951 2.312 73.6541 1 73.6541 1ZM22.9271 31.319C22.8472 30.4507 22.9313 29.5752 23.1751 28.738C23.4204 29.5749 23.5049 30.4507 23.4241 31.319C23.5051 32.1873 23.4206 33.0632 23.1751 33.9C22.9345 33.065 22.8527 32.1922 22.9341 31.327L22.9271 31.319ZM95.5411 37.372L93.6801 33.598C93.6801 33.598 100.264 34.137 102.227 29.479L106.237 31.764C106.237 31.764 103.031 37.707 97.7371 37.706C96.9948 37.7069 96.2565 37.5981 95.5461 37.383L95.5411 37.372ZM20.1311 37.822C19.6611 38.335 19.3611 38.83 19.4611 38.922L19.4681 38.933C19.4806 38.9386 19.4946 38.94 19.5081 38.937C19.9002 38.7655 20.2415 38.4959 20.4991 38.154C20.9671 37.641 21.2671 37.146 21.1671 37.054C21.0671 36.962 20.6011 37.309 20.1311 37.822ZM23.3531 37.251C23.1094 38.0882 23.0252 38.9637 23.1051 39.832L23.1111 39.838C23.0299 40.7039 23.112 41.5774 23.3531 42.413C23.5968 41.5758 23.6806 40.7002 23.6001 39.832C23.6804 38.9638 23.5966 38.0882 23.3531 37.251ZM161.478 45.497C161.397 44.6287 161.481 43.7529 161.726 42.916C161.97 43.7532 162.053 44.6288 161.973 45.497C162.053 46.3652 161.97 47.2408 161.726 48.078C161.482 47.243 161.398 46.3692 161.479 45.503L161.478 45.497ZM55.5191 49.742C55.5191 49.742 55.8861 45.888 58.9541 45.562L60.3811 46.794C60.3811 46.794 57.5711 47.72 57.5741 49.985L55.5191 49.742ZM156.482 49.588C155.626 49.5076 154.762 49.5917 153.938 49.836V49.841C154.763 50.0847 155.626 50.1675 156.482 50.085C157.338 50.1659 158.201 50.0814 159.025 49.836C158.201 49.5918 157.338 49.5076 156.482 49.588ZM158.012 53.103C157.912 53.011 158.212 52.516 158.68 52.003C159.148 51.49 159.615 51.143 159.717 51.235C159.819 51.327 159.517 51.822 159.047 52.335C158.79 52.6766 158.449 52.9463 158.058 53.118C158.042 53.1206 158.026 53.1171 158.012 53.108V53.103ZM161.654 54.013C161.574 53.1447 161.658 52.2691 161.902 51.432C162.146 52.2692 162.229 53.1448 162.149 54.013C162.229 54.8812 162.146 55.7568 161.902 56.594C161.658 55.7572 161.574 54.8819 161.654 54.014V54.013ZM3.61505 52.615L1.03405 54.627C0.482051 59.415 6.82405 60.575 6.82405 60.575L7.96905 57.442C4.16405 57.097 3.61505 52.615 3.61505 52.615ZM48.9391 105.486C48.9391 94.4433 53.3258 83.8528 61.1343 76.0445C68.9428 68.2363 79.5333 63.8497 90.576 63.85C101.619 63.8497 112.209 68.2363 120.018 76.0445C127.826 83.8528 132.213 94.4433 132.213 105.486C132.213 128.481 113.572 147.123 90.576 147.123C67.5806 147.123 48.9391 128.481 48.9391 105.486ZM22.3581 96.975L22.2021 93.934C22.2021 93.934 27.8861 93.509 29.1201 97.885L27.6851 100.261C27.6851 100.261 25.6441 96.409 22.3581 96.975ZM142.958 87.8037L142.958 87.805L142.956 87.804L142.958 87.8037ZM142.958 87.8037L142.802 84.763C142.802 84.763 148.486 84.338 149.722 88.713L148.287 91.089C148.287 91.089 146.243 87.2375 142.958 87.8037ZM181.505 71.305L182.251 69.375C182.251 69.375 185.892 70.685 185.451 73.739L183.903 74.815C183.903 74.815 183.698 71.863 181.503 71.305H181.505ZM164.204 51.461C164.1 51.548 164.419 52.103 164.919 52.703V52.704C165.368 53.248 165.82 53.639 165.98 53.639C165.994 53.6397 166.007 53.6354 166.018 53.627C166.123 53.539 165.804 52.983 165.304 52.385C164.804 51.787 164.308 51.374 164.204 51.461ZM167.146 49.422C166.291 49.3418 165.428 49.426 164.604 49.67V49.676C165.428 49.9179 166.291 50 167.146 49.918C168.002 49.9983 168.866 49.9141 169.691 49.67C168.866 49.4258 168.002 49.3416 167.146 49.422ZM158.156 46.286C158.068 46.39 158.397 46.811 158.892 47.221L158.893 47.227C159.17 47.4935 159.508 47.689 159.877 47.797C159.902 47.7995 159.927 47.7911 159.945 47.774C160.032 47.667 159.7 47.251 159.208 46.839C158.716 46.427 158.244 46.182 158.156 46.286ZM163.892 47.669C163.792 47.569 164.137 47.069 164.656 46.546C165.175 46.023 165.673 45.678 165.77 45.775C165.867 45.872 165.527 46.375 165.009 46.896C164.722 47.2414 164.355 47.5122 163.94 47.685C163.925 47.6866 163.91 47.683 163.898 47.675L163.892 47.669ZM26.3701 38.522C25.8701 37.922 25.552 37.367 25.6551 37.28C25.7581 37.193 26.25 37.606 26.7551 38.204C27.26 38.802 27.5721 39.358 27.4671 39.446C27.457 39.4544 27.4441 39.4587 27.4311 39.458C27.2771 39.464 26.83 39.072 26.3761 38.527L26.3701 38.522ZM140.98 35.826L142.187 37.272L142.193 37.279C142.264 37.283 142.331 37.2827 142.396 37.278C145.314 37.278 146.253 33.706 146.253 33.706L144.267 33.132C143.903 35.367 140.98 35.826 140.98 35.826ZM15.3871 35.658C16.2115 35.4138 17.075 35.3296 17.9311 35.41C18.7868 35.3298 19.6499 35.414 20.4741 35.658C19.6502 35.9031 18.7868 35.9877 17.9311 35.907C17.0778 35.9895 16.2166 35.9077 15.3941 35.666L15.3871 35.658ZM28.597 35.244C27.7413 35.1637 26.8781 35.2479 26.0541 35.492L26.0611 35.5C26.8835 35.7404 27.7441 35.8218 28.597 35.74C29.4531 35.8202 30.3166 35.736 31.1411 35.492C30.3166 35.2478 29.4531 35.1636 28.597 35.244ZM19.6071 32.108C19.5171 32.214 19.8481 32.633 20.3401 33.043L20.3481 33.051C20.6243 33.3154 20.9596 33.5101 21.3261 33.619C21.3507 33.6219 21.3754 33.6134 21.3931 33.596C21.4811 33.489 21.1491 33.071 20.6581 32.661C20.1671 32.251 19.6971 32.002 19.6071 32.108ZM25.3471 33.491C25.2471 33.391 25.5911 32.891 26.1101 32.368C26.6291 31.845 27.1271 31.5 27.2251 31.597C27.3231 31.694 26.9801 32.197 26.4631 32.718C26.1752 33.063 25.8085 33.3336 25.3941 33.507C25.3802 33.5087 25.3662 33.5059 25.3541 33.499L25.3471 33.491Z" fill="#12AD5F"/>
<path d="M72.91 2.929L72.4435 2.74907L72.3265 3.05262L72.5566 3.28262L72.91 2.929ZM73.6541 1L73.8236 0.529607L73.3635 0.363837L73.1875 0.820072L73.6541 1ZM72.9181 2.937L72.5646 3.29062L72.6615 3.38752L72.7943 3.42144L72.9181 2.937ZM75.3071 6.441L74.8082 6.47438L74.8672 7.35601L75.5926 6.85147L75.3071 6.441ZM76.854 5.365L77.1395 5.77547L77.3179 5.65145L77.3489 5.43648L76.854 5.365ZM23.1751 28.738L23.6549 28.5973L23.1734 26.9551L22.695 28.5982L23.1751 28.738ZM22.9271 31.319L22.4292 31.3648L22.444 31.5262L22.5507 31.6482L22.9271 31.319ZM23.4241 31.319L22.9262 31.2726L22.9219 31.319L22.9262 31.3654L23.4241 31.319ZM23.1751 33.9L22.6946 34.0384L23.1707 35.6911L23.6548 34.0408L23.1751 33.9ZM22.9341 31.327L23.4319 31.3738L23.452 31.1597L23.3104 30.9978L22.9341 31.327ZM93.6801 33.598L93.7208 33.0997L92.8413 33.0277L93.2316 33.8191L93.6801 33.598ZM95.5411 37.372L95.9963 37.1652L95.993 37.158L95.9895 37.1509L95.5411 37.372ZM102.227 29.479L102.475 29.0446L101.985 28.7656L101.766 29.2848L102.227 29.479ZM106.237 31.764L106.677 32.0014L106.909 31.5714L106.485 31.3296L106.237 31.764ZM97.7371 37.706L97.7371 37.206H97.7364L97.7371 37.706ZM95.5461 37.383L95.0908 37.5898L95.1845 37.796L95.4012 37.8616L95.5461 37.383ZM19.4611 38.922L19.8829 38.6536L19.8478 38.5984L19.7996 38.554L19.4611 38.922ZM20.1311 37.822L20.4997 38.1598H20.4997L20.1311 37.822ZM19.4681 38.933L19.0462 39.2014L19.127 39.3284L19.2645 39.3897L19.4681 38.933ZM19.5081 38.937L19.6171 39.425L19.6642 39.4144L19.7083 39.3951L19.5081 38.937ZM20.4991 38.154L20.1297 37.817L20.1138 37.8344L20.0997 37.8532L20.4991 38.154ZM21.1671 37.054L21.5056 36.686L21.5056 36.686L21.1671 37.054ZM23.1051 39.832L22.6071 39.8778L22.6237 40.0578L22.7516 40.1857L23.1051 39.832ZM23.3531 37.251L23.8331 37.1113L23.3531 35.4616L22.873 37.1113L23.3531 37.251ZM23.1111 39.838L23.6089 39.8847L23.6308 39.6505L23.4645 39.4843L23.1111 39.838ZM23.3531 42.413L22.8726 42.5516L23.3508 44.2091L23.8331 42.5528L23.3531 42.413ZM23.6001 39.832L23.1022 39.7859L23.0979 39.8321L23.1022 39.8782L23.6001 39.832ZM161.726 42.916L162.206 42.7763L161.728 41.1323L161.246 42.7754L161.726 42.916ZM161.478 45.497L160.98 45.5437L160.982 45.5612L160.985 45.5786L161.478 45.497ZM161.973 45.497L161.475 45.4509L161.471 45.497L161.475 45.5431L161.973 45.497ZM161.726 48.078L161.246 48.2183L161.727 49.8635L162.206 48.2177L161.726 48.078ZM161.479 45.503L161.977 45.5495L161.983 45.4852L161.972 45.4214L161.479 45.503ZM58.9541 45.562L59.2808 45.1835L59.1167 45.0419L58.9012 45.0648L58.9541 45.562ZM55.5191 49.742L55.0213 49.6946L54.975 50.1811L55.4603 50.2385L55.5191 49.742ZM60.3811 46.794L60.5375 47.2689L61.3761 46.9925L60.7078 46.4155L60.3811 46.794ZM57.5741 49.985L57.5153 50.4815L58.0748 50.5477L58.0741 49.9843L57.5741 49.985ZM153.938 49.836L153.796 49.3566L153.438 49.4627V49.836H153.938ZM156.482 49.588L156.435 50.0858L156.482 50.0902L156.529 50.0858L156.482 49.588ZM153.938 49.841H153.438V50.2146L153.796 50.3205L153.938 49.841ZM156.482 50.085L156.529 49.5872L156.482 49.5827L156.434 49.5873L156.482 50.085ZM159.025 49.836L159.168 50.3152L160.781 49.8348L159.167 49.3566L159.025 49.836ZM158.012 53.103H158.512V52.8836L158.351 52.7351L158.012 53.103ZM159.717 51.235L160.052 50.8637L160.052 50.8637L159.717 51.235ZM159.047 52.335L158.678 51.9972L158.662 52.0151L158.647 52.0344L159.047 52.335ZM158.058 53.118L158.139 53.6114L158.201 53.6012L158.259 53.5759L158.058 53.118ZM158.012 53.108H157.512V53.3747L157.734 53.5233L158.012 53.108ZM161.902 51.432L162.382 51.2923L161.903 49.6444L161.422 51.2919L161.902 51.432ZM161.654 54.013H162.154V53.9899L162.152 53.9669L161.654 54.013ZM162.149 54.013L161.651 53.9669L161.647 54.013L161.651 54.059L162.149 54.013ZM161.902 56.594L161.422 56.734L161.903 58.3819L162.382 56.7336L161.902 56.594ZM161.654 54.014L162.152 54.06L162.154 54.0371V54.014H161.654ZM1.03405 54.627L0.726647 54.2327L0.561346 54.3615L0.537341 54.5697L1.03405 54.627ZM3.61505 52.615L4.11134 52.5542L4.00399 51.6778L3.30765 52.2207L3.61505 52.615ZM6.82405 60.575L6.73409 61.0668L7.14892 61.1427L7.29367 60.7466L6.82405 60.575ZM7.96905 57.442L8.43867 57.6136L8.66192 57.0028L8.0142 56.944L7.96905 57.442ZM90.576 63.85L90.576 64.35H90.5761L90.576 63.85ZM120.018 76.0445L119.664 76.3981V76.3981L120.018 76.0445ZM22.2021 93.934L22.1648 93.4354L21.6777 93.4718L21.7027 93.9596L22.2021 93.934ZM22.3581 96.975L21.8587 97.0006L21.8876 97.5634L22.4429 97.4678L22.3581 96.975ZM29.1201 97.885L29.548 98.1435L29.6601 97.9579L29.6013 97.7493L29.1201 97.885ZM27.6851 100.261L27.2432 100.495L27.6566 101.275L28.113 100.519L27.6851 100.261ZM142.958 87.805L142.734 88.2522L143.496 88.6332L143.458 87.7822L142.958 87.805ZM142.956 87.804L142.871 87.3113L141.372 87.571L142.732 88.2512L142.956 87.804ZM142.802 84.763L142.765 84.2644L142.278 84.3008L142.303 84.7886L142.802 84.763ZM149.722 88.713L150.15 88.9715L150.262 88.7858L150.203 88.5771L149.722 88.713ZM148.287 91.089L147.845 91.3234L148.259 92.1026L148.715 91.3475L148.287 91.089ZM182.251 69.375L182.42 68.9045L181.961 68.7392L181.785 69.1947L182.251 69.375ZM181.505 71.305V71.805H181.848L181.971 71.4853L181.505 71.305ZM185.451 73.739L185.736 74.1496L185.915 74.0255L185.946 73.8105L185.451 73.739ZM183.903 74.815L183.404 74.8496L183.465 75.7282L184.188 75.2256L183.903 74.815ZM181.503 71.305V70.805L181.38 71.7896L181.503 71.305ZM164.919 52.703H165.419V52.522L165.303 52.3829L164.919 52.703ZM164.919 52.704H164.419V52.8837L164.533 53.0223L164.919 52.704ZM165.98 53.639L166.006 53.1397L165.993 53.139H165.98V53.639ZM166.018 53.627L166.326 54.021L166.333 54.0157L166.339 54.0102L166.018 53.627ZM164.604 49.67L164.462 49.1906L164.104 49.2966V49.67H164.604ZM167.146 49.422L167.099 49.9198L167.146 49.9242L167.193 49.9198L167.146 49.422ZM164.604 49.676H164.104V50.0503L164.463 50.1558L164.604 49.676ZM167.146 49.918L167.193 49.4202L167.146 49.4158L167.098 49.4203L167.146 49.918ZM169.691 49.67L169.833 50.1494L171.452 49.6702L169.833 49.1906L169.691 49.67ZM158.892 47.221L159.385 47.1394L159.355 46.9551L159.211 46.8359L158.892 47.221ZM158.893 47.227L158.4 47.3086L158.427 47.4725L158.547 47.5875L158.893 47.227ZM159.877 47.797L159.737 48.2769L159.781 48.29L159.828 48.2946L159.877 47.797ZM159.945 47.774L160.286 48.1393L160.311 48.116L160.333 48.0894L159.945 47.774ZM159.208 46.839L158.887 47.2223V47.2223L159.208 46.839ZM164.656 46.546L165.011 46.8982V46.8982L164.656 46.546ZM163.892 47.669L164.246 47.3156L164.246 47.3155L163.892 47.669ZM165.77 45.775L165.417 46.1286V46.1286L165.77 45.775ZM165.009 46.896L164.654 46.5435L164.639 46.5592L164.625 46.5762L165.009 46.896ZM163.94 47.685L163.992 48.1823L164.065 48.1746L164.132 48.1465L163.94 47.685ZM163.898 47.675L163.544 48.0284L163.582 48.0663L163.627 48.0953L163.898 47.675ZM26.3701 38.522L25.9859 38.8421L26.015 38.877L26.0499 38.9061L26.3701 38.522ZM26.7551 38.204L27.1371 37.8814L26.7551 38.204ZM27.4671 39.446L27.7874 39.8299L27.7882 39.8292L27.4671 39.446ZM27.4311 39.458L27.4568 38.9587L27.4342 38.9575L27.4116 38.9584L27.4311 39.458ZM26.3761 38.527L26.7602 38.207L26.7311 38.172L26.6962 38.1429L26.3761 38.527ZM142.187 37.272L141.803 37.5924L141.807 37.5973L142.187 37.272ZM140.98 35.826L140.902 35.3321L140.031 35.4689L140.596 36.1464L140.98 35.826ZM142.193 37.279L141.813 37.6043L141.952 37.7662L142.165 37.7782L142.193 37.279ZM142.396 37.278V36.778H142.378L142.36 36.7793L142.396 37.278ZM146.253 33.706L146.737 33.8331L146.861 33.3612L146.392 33.2257L146.253 33.706ZM144.267 33.132L144.406 32.6517L143.864 32.4951L143.774 33.0516L144.267 33.132ZM17.9311 35.41L17.8843 35.9078L17.931 35.9122L17.9777 35.9078L17.9311 35.41ZM15.3871 35.658L15.2451 35.1786L14.497 35.4001L15.0108 35.9873L15.3871 35.658ZM20.4741 35.658L20.6166 36.1372L22.2313 35.6569L20.616 35.1786L20.4741 35.658ZM17.9311 35.907L17.978 35.4092L17.9304 35.4047L17.8829 35.4093L17.9311 35.907ZM15.3941 35.666L15.0178 35.9953L15.1136 36.1047L15.2531 36.1457L15.3941 35.666ZM26.0541 35.492L25.912 35.0126L25.164 35.2342L25.6778 35.8213L26.0541 35.492ZM28.597 35.244L28.5503 35.7418L28.5971 35.7462L28.6438 35.7418L28.597 35.244ZM26.0611 35.5L25.6848 35.8293L25.7808 35.939L25.9208 35.9799L26.0611 35.5ZM28.597 35.74L28.6437 35.2422L28.5965 35.2378L28.5493 35.2423L28.597 35.74ZM31.1411 35.492L31.283 35.9714L32.9022 35.4922L31.283 35.0126L31.1411 35.492ZM20.3401 33.043L20.6936 32.6894L20.6776 32.6734L20.6601 32.6589L20.3401 33.043ZM19.6071 32.108L19.9882 32.4316L19.9882 32.4316L19.6071 32.108ZM20.3481 33.051L19.9944 33.4046L20.0024 33.4122L20.3481 33.051ZM21.3261 33.619L21.1836 34.0983L21.2251 34.1106L21.2682 34.1156L21.3261 33.619ZM21.3931 33.596L21.7437 33.9524L21.7625 33.9339L21.7792 33.9136L21.3931 33.596ZM20.6581 32.661L20.3376 33.0448L20.6581 32.661ZM26.1101 32.368L25.7551 32.0158L26.1101 32.368ZM25.3471 33.491L25.7233 33.1617L25.7124 33.1492L25.7006 33.1375L25.3471 33.491ZM27.2251 31.597L27.5768 31.2416L27.5768 31.2416L27.2251 31.597ZM26.4631 32.718L26.1081 32.3658L26.093 32.3811L26.0792 32.3976L26.4631 32.718ZM25.3941 33.507L25.4548 34.0033L25.5233 33.9949L25.587 33.9683L25.3941 33.507ZM25.3541 33.499L24.9778 33.8283L25.0335 33.892L25.1071 33.9338L25.3541 33.499ZM73.3766 3.10893L74.1206 1.17993L73.1875 0.820072L72.4435 2.74907L73.3766 3.10893ZM73.2715 2.58338L73.2635 2.57538L72.5566 3.28262L72.5646 3.29062L73.2715 2.58338ZM75.3071 6.441C75.8059 6.40762 75.8059 6.40743 75.8059 6.40723C75.8059 6.40714 75.8059 6.40693 75.8059 6.40677C75.8059 6.40644 75.8058 6.40607 75.8058 6.40565C75.8057 6.40481 75.8057 6.4038 75.8056 6.4026C75.8054 6.40021 75.8052 6.39711 75.8049 6.39332C75.8043 6.38573 75.8034 6.37537 75.8022 6.36241C75.7999 6.33649 75.7962 6.3001 75.7908 6.25457C75.7801 6.1636 75.7622 6.03558 75.7337 5.88123C75.6768 5.57399 75.5759 5.15481 75.3986 4.71288C75.0488 3.84058 74.3614 2.78968 73.0418 2.45256L72.7943 3.42144C73.6667 3.64432 74.1738 4.34542 74.4705 5.08512C74.6165 5.44919 74.7018 5.80101 74.7504 6.06327C74.7745 6.19367 74.7892 6.30002 74.7978 6.37224C74.8021 6.4083 74.8048 6.43571 74.8064 6.45319C74.8072 6.46193 74.8077 6.46817 74.808 6.47176C74.8081 6.47355 74.8082 6.47468 74.8082 6.47513C74.8082 6.47535 74.8082 6.4754 74.8082 6.47528C74.8082 6.47522 74.8082 6.47511 74.8082 6.47496C74.8082 6.47489 74.8082 6.47474 74.8082 6.47471C74.8082 6.47455 74.8082 6.47438 75.3071 6.441ZM76.5686 4.95453L75.0216 6.03053L75.5926 6.85147L77.1395 5.77547L76.5686 4.95453ZM73.6541 1C73.4846 1.47039 73.4844 1.47033 73.4842 1.47028C73.4842 1.47027 73.4841 1.47022 73.484 1.47019C73.4839 1.47015 73.4838 1.47012 73.4838 1.47011C73.4837 1.47009 73.4839 1.47016 73.4843 1.4703C73.485 1.47058 73.4867 1.47117 73.4891 1.47208C73.4939 1.4739 73.5021 1.47698 73.5132 1.48133C73.5355 1.49003 73.5699 1.50378 73.6145 1.52269C73.7038 1.56054 73.8334 1.61877 73.9888 1.69805C74.3011 1.85744 74.7088 2.09767 75.1001 2.42239C75.8859 3.07444 76.5448 4.00861 76.3592 5.29352L77.3489 5.43648C77.6043 3.66839 76.6632 2.42006 75.7387 1.65286C75.2749 1.26796 74.8 0.989372 74.4434 0.807357C74.2643 0.715936 74.1129 0.647814 74.0048 0.601991C73.9507 0.579057 73.9073 0.561643 73.8764 0.549631C73.861 0.543623 73.8488 0.538961 73.8399 0.53563C73.8354 0.533964 73.8318 0.532631 73.8291 0.531628C73.8277 0.531126 73.8266 0.530707 73.8257 0.530371C73.8252 0.530202 73.8248 0.530055 73.8244 0.529927C73.8243 0.529864 73.824 0.529784 73.824 0.529752C73.8237 0.529677 73.8236 0.529607 73.6541 1ZM22.695 28.5982C22.4337 29.4956 22.3435 30.4341 22.4292 31.3648L23.4249 31.2732C23.3508 30.4674 23.4289 29.6548 23.6551 28.8778L22.695 28.5982ZM23.9219 31.3654C24.0086 30.4341 23.918 29.4948 23.6549 28.5973L22.6952 28.8787C22.9228 29.6549 23.0012 30.4672 22.9262 31.2726L23.9219 31.3654ZM23.6548 34.0408C23.9181 33.1432 24.0088 32.2039 23.9219 31.2726L22.9262 31.3654C23.0013 32.1708 22.923 32.9831 22.6953 33.7592L23.6548 34.0408ZM22.4362 31.2802C22.3491 32.2077 22.4367 33.1433 22.6946 34.0384L23.6555 33.7616C23.4323 32.9866 23.3564 32.1767 23.4319 31.3738L22.4362 31.2802ZM22.5507 31.6482L22.5577 31.6562L23.3104 30.9978L23.3034 30.9898L22.5507 31.6482ZM93.2316 33.8191L95.0926 37.5931L95.9895 37.1509L94.1285 33.3769L93.2316 33.8191ZM101.766 29.2848C100.875 31.4009 98.9245 32.3675 97.1023 32.7987C96.1974 33.0128 95.3474 33.0883 94.7223 33.1097C94.4105 33.1204 94.1566 33.1176 93.9821 33.1123C93.895 33.1096 93.8278 33.1063 93.7833 33.1037C93.761 33.1025 93.7445 33.1014 93.734 33.1006C93.7287 33.1003 93.725 33.1 93.7228 33.0998C93.7217 33.0997 93.7209 33.0997 93.7206 33.0996C93.7205 33.0996 93.7204 33.0996 93.7204 33.0996C93.7205 33.0996 93.7206 33.0996 93.7206 33.0996C93.7207 33.0997 93.7208 33.0997 93.6801 33.598C93.6393 34.0963 93.6395 34.0963 93.6397 34.0964C93.6398 34.0964 93.6401 34.0964 93.6403 34.0964C93.6407 34.0965 93.6412 34.0965 93.6419 34.0965C93.6432 34.0966 93.6448 34.0968 93.6469 34.0969C93.651 34.0972 93.6568 34.0977 93.664 34.0982C93.6785 34.0992 93.6992 34.1006 93.7257 34.1021C93.7786 34.1051 93.8548 34.1089 93.9515 34.1118C94.1447 34.1178 94.4205 34.1207 94.7566 34.1091C95.4274 34.0861 96.3461 34.0052 97.3326 33.7718C99.2931 33.308 101.617 32.2151 102.688 29.6732L101.766 29.2848ZM106.485 31.3296L102.475 29.0446L101.98 29.9134L105.99 32.1984L106.485 31.3296ZM97.737 38.206C100.578 38.2065 102.824 36.614 104.329 35.0862C105.086 34.3175 105.67 33.5505 106.065 32.976C106.263 32.6882 106.415 32.4476 106.517 32.2776C106.568 32.1925 106.608 32.1251 106.634 32.0781C106.648 32.0546 106.658 32.0362 106.665 32.0233C106.669 32.0168 106.671 32.0118 106.673 32.0081C106.674 32.0063 106.675 32.0048 106.676 32.0037C106.676 32.0031 106.676 32.0026 106.677 32.0023C106.677 32.0021 106.677 32.0019 106.677 32.0018C106.677 32.0016 106.677 32.0014 106.237 31.764C105.797 31.5266 105.797 31.5265 105.797 31.5264C105.797 31.5264 105.797 31.5263 105.797 31.5263C105.797 31.5263 105.797 31.5263 105.797 31.5265C105.797 31.5268 105.797 31.5275 105.796 31.5285C105.795 31.5306 105.793 31.534 105.79 31.5388C105.785 31.5484 105.777 31.5634 105.765 31.5834C105.742 31.6235 105.708 31.6837 105.661 31.7611C105.567 31.9161 105.427 32.1398 105.241 32.4092C104.87 32.9489 104.322 33.6676 103.616 34.3845C102.194 35.828 100.19 37.2065 97.7371 37.206L97.737 38.206ZM95.4012 37.8616C96.1588 38.0909 96.9461 38.207 97.7377 38.206L97.7364 37.206C97.0435 37.2068 96.3542 37.1052 95.6909 36.9044L95.4012 37.8616ZM95.0858 37.5788L95.0908 37.5898L96.0013 37.1762L95.9963 37.1652L95.0858 37.5788ZM19.7996 38.554C19.9246 38.6691 19.9407 38.8069 19.9418 38.8597C19.9428 38.9128 19.9316 38.9425 19.934 38.9349C19.9378 38.9227 19.9574 38.8754 20.0095 38.7897C20.1094 38.6254 20.2802 38.3994 20.4997 38.1598L19.7624 37.4842C19.5119 37.7576 19.2977 38.0356 19.1551 38.2701C19.086 38.3837 19.0199 38.5095 18.9809 38.632C18.962 38.6918 18.94 38.7792 18.9419 38.879C18.9439 38.9785 18.9725 39.1519 19.1225 39.29L19.7996 38.554ZM19.8899 38.6646L19.8829 38.6536L19.0392 39.1904L19.0462 39.2014L19.8899 38.6646ZM19.399 38.449C19.4904 38.4286 19.5859 38.4381 19.6716 38.4763L19.2645 39.3897C19.3753 39.4391 19.4989 39.4514 19.6171 39.425L19.399 38.449ZM20.0997 37.8532C19.8939 38.1264 19.6211 38.3419 19.3078 38.4789L19.7083 39.3951C20.1793 39.1892 20.5892 38.8654 20.8984 38.4548L20.0997 37.8532ZM20.8285 37.422C20.7035 37.3069 20.6874 37.1691 20.6863 37.1163C20.6853 37.0633 20.6965 37.0337 20.6941 37.0413C20.6902 37.0535 20.6707 37.1009 20.6186 37.1867C20.5188 37.3512 20.3484 37.5772 20.1297 37.817L20.8684 38.491C21.1177 38.2178 21.3313 37.9398 21.4735 37.7055C21.5424 37.5919 21.6084 37.4663 21.6473 37.3438C21.6662 37.2841 21.6881 37.1967 21.6862 37.0969C21.6842 36.9975 21.6556 36.8241 21.5056 36.686L20.8285 37.422ZM20.4997 38.1598C20.7199 37.9194 20.9305 37.7279 21.0858 37.6126C21.1669 37.5524 21.2124 37.5284 21.2243 37.5233C21.2318 37.5202 21.2029 37.5343 21.1493 37.5382C21.0956 37.5421 20.955 37.5383 20.8285 37.422L21.5056 36.686C21.3541 36.5467 21.1771 36.5336 21.0769 36.5409C20.9768 36.5481 20.8914 36.5783 20.8338 36.6027C20.7155 36.6529 20.5965 36.7305 20.4898 36.8097C20.2696 36.9731 20.0122 37.2116 19.7624 37.4842L20.4997 38.1598ZM23.603 39.7862C23.5289 38.9804 23.607 38.1678 23.8331 37.3907L22.873 37.1113C22.6118 38.0086 22.5216 38.9471 22.6071 39.8778L23.603 39.7862ZM23.4645 39.4843L23.4585 39.4783L22.7516 40.1857L22.7576 40.1917L23.4645 39.4843ZM23.8335 42.2744C23.6097 41.4989 23.5335 40.6883 23.6089 39.8847L22.6132 39.7913C22.5262 40.7196 22.6142 41.6558 22.8726 42.5516L23.8335 42.2744ZM23.1022 39.8782C23.1769 40.6838 23.0992 41.4964 22.873 42.2732L23.8331 42.5528C24.0944 41.6553 24.1843 40.7166 24.0979 39.7858L23.1022 39.8782ZM22.873 37.3907C23.099 38.1676 23.1768 38.9802 23.1022 39.7859L24.0979 39.8781C24.1841 38.9474 24.0943 38.0088 23.8331 37.1113L22.873 37.3907ZM161.246 42.7754C160.983 43.673 160.893 44.6124 160.98 45.5437L161.976 45.4503C161.9 44.6451 161.978 43.8328 162.206 43.0566L161.246 42.7754ZM162.471 45.5431C162.557 44.6124 162.467 43.6738 162.206 42.7763L161.246 43.0557C161.472 43.8326 161.55 44.6452 161.475 45.4509L162.471 45.5431ZM162.206 48.2177C162.467 47.3202 162.557 46.3816 162.471 45.4509L161.475 45.5431C161.55 46.3488 161.472 47.1614 161.246 47.9383L162.206 48.2177ZM160.981 45.4565C160.894 46.3855 160.984 47.3227 161.246 48.2183L162.206 47.9377C161.979 47.1632 161.902 46.3529 161.977 45.5495L160.981 45.4565ZM160.985 45.5786L160.986 45.5846L161.972 45.4214L161.971 45.4154L160.985 45.5786ZM58.9012 45.0648C57.1242 45.2536 56.148 46.4745 55.6341 47.5604C55.3763 48.1051 55.2243 48.6344 55.1365 49.0251C55.0924 49.2213 55.064 49.3849 55.0464 49.501C55.0376 49.5591 55.0316 49.6055 55.0276 49.6384C55.0256 49.6548 55.0241 49.6678 55.0231 49.6773C55.0226 49.682 55.0222 49.6858 55.0219 49.6887C55.0217 49.6902 55.0216 49.6914 55.0215 49.6924C55.0215 49.6929 55.0214 49.6933 55.0214 49.6937C55.0214 49.6939 55.0214 49.6941 55.0213 49.6942C55.0213 49.6944 55.0213 49.6946 55.5191 49.742C56.0168 49.7894 56.0168 49.7896 56.0168 49.7897C56.0168 49.7898 56.0168 49.7899 56.0167 49.79C56.0167 49.7901 56.0167 49.7902 56.0167 49.7902C56.0167 49.7903 56.0167 49.7901 56.0168 49.7897C56.0169 49.7889 56.017 49.7872 56.0173 49.7846C56.0179 49.7794 56.0188 49.7708 56.0203 49.7589C56.0232 49.7351 56.028 49.6984 56.0352 49.6505C56.0497 49.5546 56.0739 49.4145 56.1122 49.2444C56.189 48.9022 56.3205 48.4476 56.538 47.9881C56.9746 47.0655 57.7159 46.1964 59.0069 46.0592L58.9012 45.0648ZM60.7078 46.4155L59.2808 45.1835L58.6273 45.9405L60.0543 47.1725L60.7078 46.4155ZM58.0741 49.9843C58.0729 49.0829 58.6273 48.416 59.272 47.9434C59.5893 47.7109 59.9098 47.5402 60.1525 47.4276C60.2731 47.3717 60.3728 47.3308 60.4408 47.3045C60.4748 47.2913 60.5008 47.2818 60.5174 47.2759C60.5257 47.273 60.5316 47.2709 60.535 47.2697C60.5367 47.2692 60.5378 47.2688 60.5382 47.2687C60.5385 47.2686 60.5385 47.2686 60.5384 47.2686C60.5383 47.2686 60.5382 47.2687 60.5381 47.2687C60.538 47.2687 60.5379 47.2688 60.5378 47.2688C60.5377 47.2688 60.5375 47.2689 60.3811 46.794C60.2246 46.3191 60.2244 46.3192 60.2242 46.3192C60.2241 46.3193 60.2239 46.3193 60.2238 46.3194C60.2234 46.3195 60.2231 46.3196 60.2227 46.3197C60.2219 46.32 60.2209 46.3203 60.2198 46.3207C60.2175 46.3215 60.2146 46.3225 60.211 46.3237C60.2038 46.3262 60.1939 46.3296 60.1816 46.334C60.1571 46.3427 60.1227 46.3553 60.0798 46.3719C59.9942 46.4051 59.8743 46.4543 59.7316 46.5205C59.4475 46.6523 59.0657 46.8548 58.6808 47.1368C57.9213 47.6936 57.0722 48.6221 57.0741 49.9857L58.0741 49.9843ZM55.4603 50.2385L57.5153 50.4815L57.6328 49.4885L55.5778 49.2455L55.4603 50.2385ZM154.08 50.3154C154.843 50.0893 155.643 50.0113 156.435 50.0858L156.529 49.0902C155.609 49.0038 154.682 49.0942 153.796 49.3566L154.08 50.3154ZM154.438 49.841V49.836H153.438V49.841H154.438ZM156.434 49.5873C155.642 49.6637 154.843 49.587 154.08 49.3615L153.796 50.3205C154.682 50.5823 155.61 50.6713 156.53 50.5827L156.434 49.5873ZM158.882 49.3568C158.12 49.5839 157.321 49.6621 156.529 49.5872L156.435 50.5828C157.355 50.6697 158.282 50.5789 159.168 50.3152L158.882 49.3568ZM156.529 50.0858C157.321 50.0114 158.12 50.0893 158.883 50.3154L159.167 49.3566C158.282 49.0943 157.355 49.0038 156.435 49.0902L156.529 50.0858ZM158.311 51.666C158.061 51.9392 157.848 52.2172 157.706 52.4515C157.637 52.5651 157.571 52.6907 157.532 52.8132C157.513 52.8729 157.491 52.9603 157.493 53.0601C157.495 53.1595 157.523 53.3329 157.674 53.471L158.351 52.7351C158.476 52.8501 158.492 52.9879 158.493 53.0407C158.494 53.0937 158.483 53.1233 158.485 53.1157C158.489 53.1035 158.508 53.0561 158.561 52.9703C158.66 52.8058 158.831 52.5798 159.049 52.34L158.311 51.666ZM160.052 50.8637C159.901 50.7277 159.726 50.7147 159.627 50.7218C159.527 50.729 159.441 50.7589 159.383 50.7834C159.265 50.8335 159.145 50.9111 159.038 50.9905C158.817 51.1541 158.56 51.393 158.311 51.666L159.049 52.34C159.268 52.1 159.478 51.9089 159.634 51.7938C159.715 51.7338 159.76 51.7098 159.772 51.7047C159.78 51.7016 159.751 51.7155 159.698 51.7193C159.645 51.7231 159.508 51.7193 159.382 51.6063L160.052 50.8637ZM159.416 52.6728C159.666 52.3997 159.881 52.1218 160.024 51.8873C160.093 51.7737 160.159 51.6476 160.198 51.5244C160.217 51.4643 160.239 51.376 160.237 51.2751C160.234 51.1735 160.203 51.0002 160.052 50.8637L159.382 51.6063C159.256 51.4928 159.238 51.3551 159.237 51.3002C159.236 51.246 159.247 51.2154 159.245 51.2227C159.241 51.2342 159.222 51.2812 159.17 51.3669C159.069 51.5312 158.898 51.7573 158.678 51.9972L159.416 52.6728ZM158.259 53.5759C158.729 53.3696 159.138 53.0458 159.447 52.6356L158.647 52.0344C158.442 52.3074 158.17 52.5229 157.857 52.6601L158.259 53.5759ZM157.734 53.5233C157.853 53.6031 157.998 53.6346 158.139 53.6114L157.977 52.6246C158.086 52.6067 158.198 52.631 158.291 52.6927L157.734 53.5233ZM157.512 53.103V53.108H158.512V53.103H157.512ZM161.422 51.2919C161.16 52.1894 161.07 53.1282 161.156 54.0591L162.152 53.9669C162.077 53.1613 162.155 52.3488 162.382 51.5721L161.422 51.2919ZM162.647 54.0591C162.733 53.1284 162.643 52.1898 162.382 51.2923L161.422 51.5717C161.648 52.3486 161.726 53.1612 161.651 53.9669L162.647 54.0591ZM162.382 56.7336C162.643 55.8362 162.733 54.8976 162.647 53.967L161.651 54.059C161.726 54.8648 161.648 55.6774 161.422 56.4544L162.382 56.7336ZM161.156 53.968C161.07 54.8985 161.16 55.8369 161.422 56.734L162.382 56.454C162.156 55.6776 162.077 54.8654 162.152 54.06L161.156 53.968ZM161.154 54.013V54.014H162.154V54.013H161.154ZM1.34146 55.0213L3.92246 53.0093L3.30765 52.2207L0.726647 54.2327L1.34146 55.0213ZM6.82405 60.575C6.91401 60.0832 6.91417 60.0832 6.9143 60.0832C6.91431 60.0832 6.91442 60.0832 6.91444 60.0832C6.91449 60.0832 6.91444 60.0832 6.9143 60.0832C6.91402 60.0832 6.91336 60.083 6.91233 60.0828C6.91026 60.0825 6.90672 60.0818 6.90174 60.0808C6.89179 60.0789 6.87611 60.0757 6.8551 60.0713C6.81308 60.0626 6.74983 60.0488 6.66853 60.0294C6.50581 59.9906 6.27158 59.9296 5.99122 59.8418C5.42826 59.6654 4.69047 59.3844 3.97481 58.9651C2.53865 58.1237 1.28744 56.7948 1.53076 54.6843L0.537341 54.5697C0.228665 57.2472 1.87246 58.8923 3.46929 59.8279C4.27014 60.2971 5.08334 60.6053 5.69226 60.7961C5.99784 60.8918 6.25476 60.9588 6.43671 61.0022C6.52775 61.0239 6.60021 61.0397 6.65082 61.0503C6.67613 61.0555 6.696 61.0595 6.71001 61.0623C6.71701 61.0636 6.72256 61.0647 6.72659 61.0654C6.7286 61.0658 6.73024 61.0661 6.73149 61.0664C6.73212 61.0665 6.73265 61.0666 6.73308 61.0667C6.7333 61.0667 6.73355 61.0667 6.73366 61.0668C6.73389 61.0668 6.73409 61.0668 6.82405 60.575ZM7.49943 57.2704L6.35443 60.4034L7.29367 60.7466L8.43867 57.6136L7.49943 57.2704ZM3.61505 52.615C3.11876 52.6758 3.11879 52.676 3.11882 52.6762C3.11883 52.6763 3.11886 52.6766 3.11889 52.6768C3.11894 52.6772 3.11899 52.6777 3.11906 52.6782C3.1192 52.6793 3.11937 52.6807 3.11958 52.6823C3.12 52.6855 3.12057 52.6899 3.1213 52.6953C3.12277 52.706 3.12487 52.7209 3.12771 52.7398C3.13337 52.7775 3.14197 52.8309 3.15416 52.8979C3.17854 53.0317 3.21745 53.2204 3.27645 53.4468C3.39402 53.8979 3.59364 54.5072 3.92279 55.1321C4.58186 56.3835 5.7929 57.7467 7.9239 57.94L8.0142 56.944C6.3402 56.7923 5.37424 55.742 4.80757 54.6661C4.52383 54.1274 4.3484 53.5947 4.24412 53.1946C4.1922 52.9954 4.15849 52.8313 4.13798 52.7187C4.12774 52.6624 4.12082 52.6192 4.11658 52.5911C4.11447 52.577 4.11303 52.5667 4.11218 52.5605C4.11176 52.5574 4.11148 52.5553 4.11135 52.5542C4.11128 52.5537 4.11124 52.5534 4.11124 52.5534C4.11124 52.5534 4.11125 52.5535 4.11127 52.5536C4.11128 52.5537 4.11129 52.5538 4.1113 52.5539C4.11132 52.554 4.11134 52.5542 3.61505 52.615ZM60.7808 75.691C52.8785 83.5931 48.4391 94.3107 48.4391 105.486H49.4391C49.4391 94.5759 53.7731 84.1126 61.4879 76.3981L60.7808 75.691ZM90.5761 63.35C79.4007 63.3497 68.683 67.7889 60.7808 75.691L61.4879 76.3981C69.2026 68.6836 79.6659 64.3497 90.576 64.35L90.5761 63.35ZM120.371 75.691C112.469 67.7889 101.751 63.3497 90.576 63.35L90.5761 64.35C101.486 64.3497 111.95 68.6836 119.664 76.3981L120.371 75.691ZM132.713 105.486C132.713 94.3107 128.274 83.5931 120.371 75.691L119.664 76.3981C127.379 84.1126 131.713 94.5759 131.713 105.486H132.713ZM90.576 147.623C113.848 147.623 132.713 128.758 132.713 105.486H131.713C131.713 128.205 113.295 146.623 90.576 146.623V147.623ZM48.4391 105.486C48.4391 128.758 67.3044 147.623 90.576 147.623V146.623C67.8567 146.623 49.4391 128.205 49.4391 105.486H48.4391ZM21.7027 93.9596L21.8587 97.0006L22.8574 96.9494L22.7014 93.9084L21.7027 93.9596ZM29.6013 97.7493C28.918 95.3262 26.9955 94.2521 25.333 93.787C24.4999 93.5539 23.7123 93.4665 23.1353 93.4366C22.8458 93.4217 22.607 93.4211 22.439 93.4244C22.3549 93.426 22.2883 93.4286 22.2418 93.4309C22.2186 93.432 22.2003 93.4331 22.1874 93.4339C22.1809 93.4343 22.1758 93.4346 22.172 93.4349C22.1701 93.435 22.1685 93.4351 22.1673 93.4352C22.1667 93.4352 22.1662 93.4353 22.1658 93.4353C22.1656 93.4353 22.1653 93.4354 22.1652 93.4354C22.165 93.4354 22.1648 93.4354 22.2021 93.934C22.2393 94.4326 22.2392 94.4326 22.239 94.4326C22.239 94.4326 22.2389 94.4326 22.2388 94.4326C22.2387 94.4327 22.2387 94.4327 22.2388 94.4326C22.239 94.4326 22.2395 94.4326 22.2404 94.4325C22.2421 94.4324 22.2451 94.4322 22.2494 94.432C22.258 94.4314 22.2719 94.4306 22.2905 94.4297C22.3279 94.4279 22.3847 94.4256 22.4584 94.4242C22.606 94.4213 22.8209 94.4217 23.0837 94.4353C23.6109 94.4626 24.3214 94.5424 25.0636 94.75C26.5516 95.1664 28.0881 96.0678 28.6388 98.0207L29.6013 97.7493ZM28.113 100.519L29.548 98.1435L28.6921 97.6265L27.2571 100.003L28.113 100.519ZM22.4429 97.4678C23.858 97.224 25.0359 97.9221 25.9059 98.7649C26.3363 99.1819 26.6733 99.6181 26.903 99.9516C27.0175 100.118 27.1042 100.257 27.1616 100.353C27.1903 100.401 27.2116 100.438 27.2253 100.463C27.2321 100.475 27.237 100.484 27.24 100.489C27.2415 100.492 27.2426 100.494 27.2431 100.495C27.2434 100.495 27.2435 100.496 27.2435 100.496C27.2435 100.496 27.2435 100.496 27.2435 100.496C27.2435 100.496 27.2434 100.495 27.2434 100.495C27.2433 100.495 27.2432 100.495 27.6851 100.261C28.1269 100.027 28.1268 100.027 28.1267 100.027C28.1266 100.026 28.1265 100.026 28.1264 100.026C28.1263 100.026 28.1261 100.025 28.1258 100.025C28.1253 100.024 28.1247 100.023 28.124 100.022C28.1226 100.019 28.1206 100.015 28.1181 100.011C28.1132 100.002 28.1063 99.9891 28.0974 99.9732C28.0796 99.9415 28.0538 99.8965 28.0202 99.8403C27.9532 99.728 27.8548 99.5705 27.7266 99.3843C27.4709 99.0132 27.0923 98.5219 26.6017 98.0466C25.6297 97.1049 24.1441 96.16 22.2732 96.4823L22.4429 97.4678ZM143.458 87.7822L143.457 87.7808L142.459 87.8265L142.459 87.8278L143.458 87.7822ZM142.732 88.2512L142.734 88.2522L143.182 87.3578L143.18 87.3568L142.732 88.2512ZM142.873 87.311L142.871 87.3113L143.041 88.2967L143.043 88.2963L142.873 87.311ZM142.303 84.7886L142.459 87.8293L143.457 87.7781L143.301 84.7374L142.303 84.7886ZM150.203 88.5771C149.519 86.1545 147.596 85.0809 145.933 84.6159C145.1 84.3828 144.312 84.2954 143.735 84.2656C143.446 84.2507 143.207 84.2501 143.039 84.2534C142.955 84.255 142.888 84.2576 142.842 84.2599C142.819 84.261 142.8 84.2621 142.787 84.2629C142.781 84.2633 142.776 84.2636 142.772 84.2639C142.77 84.264 142.769 84.2641 142.767 84.2642C142.767 84.2642 142.766 84.2643 142.766 84.2643C142.766 84.2643 142.765 84.2644 142.765 84.2644C142.765 84.2644 142.765 84.2644 142.802 84.763C142.839 85.2616 142.839 85.2616 142.839 85.2616C142.839 85.2616 142.839 85.2616 142.839 85.2616C142.839 85.2617 142.839 85.2617 142.839 85.2616C142.839 85.2616 142.84 85.2616 142.84 85.2615C142.842 85.2614 142.845 85.2612 142.849 85.261C142.858 85.2604 142.872 85.2596 142.891 85.2587C142.928 85.2569 142.985 85.2546 143.058 85.2532C143.206 85.2503 143.421 85.2507 143.684 85.2643C144.211 85.2915 144.922 85.3713 145.664 85.5789C147.152 85.9952 148.689 86.8965 149.241 88.8489L150.203 88.5771ZM148.715 91.3475L150.15 88.9715L149.294 88.4545L147.859 90.8305L148.715 91.3475ZM143.043 88.2964C144.457 88.0526 145.636 88.7505 146.507 89.5933C146.937 90.0102 147.275 90.4465 147.505 90.78C147.619 90.9461 147.706 91.0851 147.764 91.1812C147.792 91.2292 147.814 91.2664 147.827 91.2908C147.834 91.303 147.839 91.312 147.842 91.3175C147.844 91.3203 147.845 91.3222 147.845 91.3232C147.846 91.3237 147.846 91.3239 147.846 91.324C147.846 91.324 147.846 91.324 147.846 91.3239C147.846 91.3238 147.846 91.3237 147.846 91.3237C147.845 91.3236 147.845 91.3234 148.287 91.089C148.729 90.8546 148.729 90.8544 148.729 90.8542C148.728 90.8542 148.728 90.854 148.728 90.8538C148.728 90.8535 148.728 90.8531 148.728 90.8526C148.727 90.8517 148.727 90.8506 148.726 90.8493C148.724 90.8466 148.722 90.8429 148.72 90.8384C148.715 90.8294 148.708 90.8168 148.699 90.8009C148.681 90.7692 148.656 90.7242 148.622 90.668C148.555 90.5557 148.456 90.3983 148.328 90.2122C148.072 89.8411 147.693 89.3499 147.202 88.8748C146.229 87.9333 144.743 86.9886 142.873 87.3109L143.043 88.2964ZM181.785 69.1947L181.039 71.1247L181.971 71.4853L182.717 69.5553L181.785 69.1947ZM185.946 73.8105C186.201 72.0419 185.26 70.7938 184.336 70.0269C183.872 69.6422 183.397 69.3638 183.04 69.182C182.861 69.0906 182.71 69.0226 182.602 68.9768C182.547 68.9539 182.504 68.9365 182.473 68.9245C182.458 68.9185 182.446 68.9139 182.437 68.9105C182.432 68.9089 182.429 68.9075 182.426 68.9065C182.424 68.906 182.423 68.9056 182.422 68.9053C182.422 68.9051 182.422 68.905 182.421 68.9048C182.421 68.9048 182.421 68.9047 182.421 68.9047C182.421 68.9046 182.42 68.9045 182.251 69.375C182.082 69.8455 182.082 69.8454 182.081 69.8454C182.081 69.8454 182.081 69.8453 182.081 69.8453C182.081 69.8452 182.081 69.8452 182.081 69.8452C182.081 69.8452 182.081 69.8452 182.082 69.8454C182.082 69.8457 182.084 69.8463 182.086 69.8472C182.091 69.849 182.099 69.8521 182.11 69.8564C182.133 69.8651 182.167 69.8788 182.212 69.8977C182.301 69.9355 182.431 69.9936 182.586 70.0728C182.898 70.2321 183.306 70.4721 183.697 70.7966C184.483 71.4482 185.142 72.3821 184.956 73.6675L185.946 73.8105ZM184.188 75.2256L185.736 74.1496L185.166 73.3284L183.618 74.4044L184.188 75.2256ZM181.38 71.7896C182.254 72.0117 182.763 72.7143 183.062 73.4562C183.21 73.8213 183.296 74.1741 183.345 74.4372C183.37 74.5679 183.385 74.6746 183.394 74.7471C183.398 74.7833 183.401 74.8108 183.402 74.8283C183.403 74.8371 183.404 74.8434 183.404 74.847C183.404 74.8488 183.404 74.8499 183.404 74.8504C183.404 74.8506 183.404 74.8506 183.404 74.8505C183.404 74.8505 183.404 74.8504 183.404 74.8502C183.404 74.8501 183.404 74.85 183.404 74.85C183.404 74.8498 183.404 74.8496 183.903 74.815C184.402 74.7804 184.402 74.7802 184.402 74.78C184.402 74.7799 184.402 74.7797 184.402 74.7795C184.402 74.7792 184.402 74.7788 184.402 74.7784C184.402 74.7776 184.402 74.7766 184.401 74.7754C184.401 74.773 184.401 74.7699 184.401 74.7661C184.4 74.7585 184.399 74.7481 184.398 74.7351C184.396 74.7091 184.392 74.6727 184.386 74.627C184.375 74.5359 184.357 74.4076 184.328 74.2529C184.27 73.945 184.168 73.525 183.99 73.0823C183.638 72.2087 182.947 71.1563 181.626 70.8204L181.38 71.7896ZM181.505 70.805H181.503V71.805H181.505V70.805ZM165.303 52.3829C165.066 52.098 164.879 51.8331 164.768 51.6403C164.711 51.5403 164.686 51.4805 164.679 51.4578C164.674 51.4442 164.685 51.4699 164.684 51.5199C164.684 51.5647 164.672 51.7215 164.525 51.8445L163.883 51.0775C163.71 51.2222 163.685 51.4154 163.684 51.5096C163.683 51.6089 163.706 51.697 163.724 51.757C163.764 51.8816 163.83 52.0143 163.902 52.139C164.049 52.3954 164.272 52.708 164.535 53.0231L165.303 52.3829ZM165.419 52.704V52.703H164.419V52.704H165.419ZM165.98 53.139C166.053 53.139 166.097 53.1588 166.097 53.1588C166.103 53.1612 166.097 53.159 166.076 53.146C166.034 53.12 165.971 53.0725 165.887 52.9995C165.723 52.855 165.516 52.6416 165.305 52.3857L164.533 53.0223C164.771 53.3104 165.015 53.5645 165.228 53.7515C165.334 53.8442 165.442 53.9285 165.544 53.9928C165.595 54.0249 165.654 54.0576 165.717 54.0835C165.774 54.107 165.867 54.139 165.98 54.139V53.139ZM165.71 53.233C165.794 53.1673 165.899 53.1342 166.006 53.1397L165.954 54.1383C166.088 54.1452 166.22 54.1036 166.326 54.021L165.71 53.233ZM164.92 52.7057C165.158 52.9894 165.344 53.2537 165.454 53.4463C165.512 53.5462 165.537 53.6058 165.544 53.6283C165.548 53.6418 165.537 53.6159 165.538 53.5658C165.539 53.5204 165.552 53.3656 165.697 53.2438L166.339 54.0102C166.511 53.8664 166.537 53.675 166.538 53.58C166.539 53.4803 166.517 53.3919 166.499 53.3315C166.46 53.2063 166.393 53.0731 166.321 52.9482C166.174 52.6913 165.95 52.3786 165.688 52.0643L164.92 52.7057ZM164.525 51.8445C164.377 51.9681 164.22 51.9514 164.177 51.9442C164.129 51.936 164.106 51.9215 164.119 51.9282C164.141 51.9395 164.196 51.9752 164.284 52.0494C164.456 52.1927 164.684 52.4227 164.92 52.7057L165.688 52.0643C165.424 51.7493 165.155 51.4738 164.927 51.2828C164.816 51.19 164.696 51.1013 164.58 51.0409C164.524 51.0118 164.442 50.9747 164.344 50.9582C164.252 50.9427 164.057 50.9322 163.883 51.0775L164.525 51.8445ZM164.746 50.1494C165.509 49.9235 166.307 49.8455 167.099 49.9198L167.193 48.9242C166.274 48.838 165.347 48.9284 164.462 49.1906L164.746 50.1494ZM165.104 49.676V49.67H164.104V49.676H165.104ZM167.098 49.4203C166.307 49.4962 165.508 49.4202 164.745 49.1962L164.463 50.1558C165.349 50.4156 166.275 50.5038 167.194 50.4157L167.098 49.4203ZM169.549 49.1906C168.785 49.4166 167.986 49.4945 167.193 49.4202L167.099 50.4158C168.019 50.502 168.947 50.4116 169.833 50.1494L169.549 49.1906ZM167.193 49.9198C167.986 49.8454 168.785 49.9233 169.549 50.1494L169.833 49.1906C168.947 48.9282 168.019 48.8378 167.099 48.9242L167.193 49.9198ZM159.211 46.8359C158.983 46.6469 158.804 46.4642 158.699 46.3299C158.673 46.2973 158.654 46.2705 158.641 46.2497C158.627 46.2279 158.623 46.2182 158.623 46.2196C158.624 46.2207 158.627 46.2278 158.63 46.2402C158.633 46.2521 158.639 46.2743 158.641 46.3047C158.645 46.3634 158.638 46.4906 158.538 46.609L157.774 45.963C157.652 46.1074 157.636 46.2705 157.643 46.3737C157.65 46.4742 157.68 46.5592 157.706 46.617C157.756 46.7345 157.834 46.8485 157.912 46.9476C158.073 47.1523 158.306 47.3851 158.573 47.6061L159.211 46.8359ZM159.386 47.1454L159.385 47.1394L158.399 47.3026L158.4 47.3086L159.386 47.1454ZM160.017 47.3171C159.726 47.2317 159.459 47.0771 159.239 46.8665L158.547 47.5875C158.882 47.9098 159.29 48.1463 159.737 48.2769L160.017 47.3171ZM159.604 47.4087C159.691 47.3275 159.808 47.2877 159.926 47.2994L159.828 48.2946C159.996 48.3113 160.163 48.2547 160.286 48.1393L159.604 47.4087ZM158.887 47.2223C159.116 47.4137 159.295 47.5966 159.402 47.7311C159.427 47.7638 159.447 47.7906 159.46 47.8115C159.474 47.8333 159.479 47.8431 159.478 47.8418C159.478 47.8408 159.475 47.8338 159.471 47.8217C159.468 47.8099 159.462 47.788 159.46 47.7581C159.456 47.7 159.462 47.576 159.557 47.4585L160.333 48.0894C160.45 47.9453 160.465 47.7848 160.457 47.6819C160.449 47.5819 160.419 47.4974 160.394 47.4396C160.342 47.3224 160.264 47.2089 160.186 47.1106C160.025 46.9074 159.793 46.6763 159.529 46.4557L158.887 47.2223ZM158.538 46.609C158.439 46.7254 158.318 46.7538 158.261 46.76C158.231 46.7633 158.209 46.7621 158.197 46.7609C158.185 46.7598 158.177 46.7581 158.176 46.7579C158.175 46.7576 158.186 46.7601 158.209 46.7698C158.232 46.7791 158.262 46.7928 158.299 46.812C158.449 46.8908 158.661 47.0326 158.887 47.2223L159.529 46.4557C159.264 46.2334 158.993 46.0466 158.762 45.926C158.651 45.8676 158.525 45.8119 158.4 45.7833C158.339 45.7692 158.251 45.7551 158.152 45.766C158.051 45.7771 157.895 45.8205 157.774 45.963L158.538 46.609ZM164.301 46.1938C164.028 46.4695 163.79 46.7488 163.629 46.984C163.551 47.0982 163.476 47.2238 163.429 47.3465C163.406 47.4062 163.379 47.494 163.375 47.5954C163.372 47.6969 163.391 47.8754 163.538 48.0225L164.246 47.3155C164.368 47.4375 164.376 47.5785 164.375 47.6316C164.373 47.6845 164.36 47.7126 164.363 47.7033C164.369 47.6877 164.394 47.637 164.455 47.5482C164.571 47.3777 164.766 47.1455 165.011 46.8982L164.301 46.1938ZM166.124 45.4214C165.973 45.271 165.79 45.2546 165.691 45.2594C165.591 45.2644 165.504 45.2926 165.445 45.3156C165.324 45.3631 165.2 45.4384 165.087 45.5169C164.853 45.6786 164.575 45.9175 164.301 46.1938L165.011 46.8982C165.256 46.6515 165.487 46.4564 165.656 46.3391C165.744 46.2781 165.795 46.2526 165.811 46.2464C165.821 46.2426 165.793 46.2556 165.74 46.2582C165.689 46.2607 165.543 46.2547 165.417 46.1286L166.124 45.4214ZM165.364 47.2485C165.638 46.9727 165.874 46.6927 166.034 46.4571C166.112 46.3427 166.186 46.2177 166.232 46.0962C166.255 46.0373 166.282 45.9508 166.286 45.8509C166.29 45.753 166.273 45.5712 166.124 45.4214L165.417 46.1286C165.291 46.003 165.285 45.8582 165.287 45.8083C165.289 45.7566 165.302 45.7294 165.298 45.7394C165.292 45.7558 165.266 45.8073 165.206 45.8959C165.091 46.0663 164.898 46.2983 164.654 46.5435L165.364 47.2485ZM164.132 48.1465C164.622 47.9426 165.054 47.6233 165.393 47.2158L164.625 46.5762C164.389 46.8596 164.088 47.0817 163.748 47.2235L164.132 48.1465ZM163.627 48.0953C163.736 48.1651 163.864 48.1957 163.992 48.1823L163.888 47.1877C163.986 47.1774 164.085 47.201 164.169 47.2547L163.627 48.0953ZM163.538 48.0224L163.544 48.0284L164.252 47.3216L164.246 47.3156L163.538 48.0224ZM25.3324 36.898C25.16 37.0436 25.1364 37.2369 25.1357 37.33C25.135 37.4288 25.1572 37.5164 25.176 37.5763C25.2151 37.7006 25.2813 37.8331 25.3529 37.9578C25.5003 38.2142 25.7232 38.5268 25.9859 38.8421L26.7542 38.2019C26.5169 37.9171 26.3308 37.6523 26.2199 37.4594C26.1625 37.3595 26.1372 37.2995 26.13 37.2765C26.1257 37.2627 26.1361 37.288 26.1357 37.3375C26.1353 37.3812 26.1243 37.5381 25.9777 37.662L25.3324 36.898ZM27.1371 37.8814C26.872 37.5675 26.6027 37.2927 26.3759 37.1022C26.2656 37.0096 26.1466 36.9209 26.0311 36.8605C25.9755 36.8315 25.8929 36.7939 25.7951 36.7773C25.7028 36.7616 25.5064 36.7511 25.3324 36.898L25.9777 37.662C25.8294 37.7872 25.671 37.7705 25.6273 37.7631C25.578 37.7547 25.5547 37.7399 25.5676 37.7466C25.5891 37.7579 25.644 37.7935 25.7327 37.868C25.9039 38.0118 26.1331 38.2425 26.373 38.5266L27.1371 37.8814ZM27.7882 39.8292C27.9581 39.6868 27.9852 39.4975 27.9872 39.4026C27.9893 39.3031 27.968 39.2147 27.9496 39.1539C27.9115 39.0281 27.8458 38.8943 27.7743 38.7688C27.6273 38.5107 27.4036 38.197 27.1371 37.8814L26.373 38.5266C26.6115 38.809 26.7963 39.0723 26.9053 39.2637C26.9618 39.3629 26.986 39.4221 26.9926 39.4439C26.9966 39.457 26.9864 39.4311 26.9874 39.3812C26.9884 39.3359 27.0022 39.1832 27.1459 39.0628L27.7882 39.8292ZM27.4053 39.9573C27.544 39.9645 27.6805 39.9191 27.7874 39.8299L27.1467 39.0621C27.2335 38.9897 27.3442 38.9529 27.4568 38.9587L27.4053 39.9573ZM25.9919 38.847C26.2311 39.1341 26.4741 39.3881 26.6856 39.5743C26.7903 39.6665 26.8971 39.7509 26.999 39.815C27.0498 39.847 27.109 39.88 27.1734 39.9059C27.2312 39.9292 27.3306 39.9623 27.4505 39.9576L27.4116 38.9584C27.493 38.9552 27.5447 38.9774 27.5468 38.9782C27.5555 38.9817 27.551 38.9809 27.5312 38.9684C27.4918 38.9436 27.4296 38.8971 27.3465 38.8239C27.1825 38.6794 26.975 38.4649 26.7602 38.207L25.9919 38.847ZM26.0499 38.9061L26.0559 38.9111L26.6962 38.1429L26.6902 38.1379L26.0499 38.9061ZM142.571 36.9516L141.364 35.5056L140.596 36.1464L141.803 37.5924L142.571 36.9516ZM142.573 36.9537L142.567 36.9467L141.807 37.5973L141.813 37.6043L142.573 36.9537ZM142.36 36.7793C142.319 36.7823 142.272 36.7827 142.221 36.7798L142.165 37.7782C142.255 37.7833 142.344 37.783 142.432 37.7767L142.36 36.7793ZM146.253 33.706C145.769 33.5789 145.77 33.5787 145.77 33.5786C145.77 33.5785 145.77 33.5784 145.77 33.5783C145.77 33.5782 145.77 33.5781 145.77 33.5781C145.77 33.578 145.77 33.5782 145.77 33.5785C145.769 33.5793 145.769 33.5808 145.768 33.5832C145.767 33.5879 145.765 33.5959 145.762 33.6068C145.755 33.6287 145.745 33.6625 145.731 33.7066C145.703 33.7948 145.658 33.9234 145.596 34.0788C145.472 34.3912 145.278 34.8041 145.004 35.2133C144.45 36.0379 143.619 36.778 142.396 36.778V37.778C144.091 37.778 145.188 36.7321 145.834 35.7707C146.159 35.2869 146.383 34.8068 146.525 34.4494C146.597 34.27 146.649 34.1195 146.683 34.0124C146.7 33.9588 146.713 33.9159 146.722 33.8854C146.726 33.8702 146.73 33.8581 146.732 33.8493C146.733 33.8449 146.734 33.8413 146.735 33.8386C146.736 33.8373 146.736 33.8361 146.736 33.8352C146.736 33.8348 146.736 33.8344 146.736 33.834C146.736 33.8338 146.736 33.8336 146.737 33.8335C146.737 33.8333 146.737 33.8331 146.253 33.706ZM144.128 33.6123L146.114 34.1863L146.392 33.2257L144.406 32.6517L144.128 33.6123ZM140.98 35.826C141.058 36.3199 141.058 36.3199 141.058 36.3199C141.058 36.3199 141.058 36.3198 141.058 36.3198C141.059 36.3198 141.059 36.3197 141.06 36.3196C141.06 36.3195 141.061 36.3193 141.063 36.3192C141.065 36.3188 141.068 36.3183 141.072 36.3176C141.079 36.3164 141.09 36.3146 141.102 36.3122C141.128 36.3076 141.164 36.3007 141.209 36.2913C141.299 36.2724 141.425 36.2432 141.577 36.201C141.878 36.1169 142.288 35.979 142.713 35.763C143.553 35.3366 144.541 34.5579 144.761 33.2124L143.774 33.0516C143.629 33.9411 142.974 34.5094 142.261 34.8713C141.91 35.0494 141.566 35.1659 141.308 35.2377C141.18 35.2734 141.075 35.2976 141.004 35.3126C140.968 35.32 140.941 35.3252 140.924 35.3284C140.915 35.3299 140.909 35.331 140.905 35.3316C140.903 35.3319 140.902 35.3321 140.902 35.3322C140.902 35.3322 140.901 35.3322 140.902 35.3322C140.902 35.3322 140.902 35.3322 140.902 35.3321C140.902 35.3321 140.902 35.3321 140.902 35.3321C140.902 35.3321 140.902 35.3321 140.98 35.826ZM17.9778 34.9122C17.0582 34.8259 16.1306 34.9163 15.2451 35.1786L15.529 36.1374C16.2923 35.9114 17.0918 35.8334 17.8843 35.9078L17.9778 34.9122ZM20.616 35.1786C19.7308 34.9165 18.8036 34.826 17.8844 34.9122L17.9777 35.9078C18.77 35.8336 19.5691 35.9115 20.3321 36.1374L20.616 35.1786ZM17.8841 36.4048C18.8037 36.4915 19.7313 36.4006 20.6166 36.1372L20.3315 35.1788C19.569 35.4056 18.77 35.4838 17.978 35.4092L17.8841 36.4048ZM15.2531 36.1457C16.1369 36.4054 17.0623 36.4933 17.9792 36.4047L17.8829 35.4093C17.0932 35.4857 16.2962 35.41 15.535 35.1863L15.2531 36.1457ZM15.0108 35.9873L15.0178 35.9953L15.7703 35.3367L15.7633 35.3287L15.0108 35.9873ZM26.1961 35.9714C26.959 35.7454 27.7581 35.6675 28.5503 35.7418L28.6438 34.7462C27.7245 34.6599 26.7973 34.7504 25.912 35.0126L26.1961 35.9714ZM26.4373 35.1707L26.4303 35.1627L25.6778 35.8213L25.6848 35.8293L26.4373 35.1707ZM28.5493 35.2423C27.7596 35.318 26.9628 35.2426 26.2013 35.0201L25.9208 35.9799C26.8042 36.2381 27.7287 36.3256 28.6448 36.2377L28.5493 35.2423ZM30.9991 35.0126C30.2358 35.2385 29.4363 35.3164 28.6437 35.2422L28.5504 36.2378C29.4699 36.324 30.3974 36.2336 31.283 35.9714L30.9991 35.0126ZM28.6438 35.7418C29.4363 35.6674 30.2358 35.7453 30.9991 35.9714L31.283 35.0126C30.3975 34.7503 29.4699 34.6599 28.5503 34.7462L28.6438 35.7418ZM20.6601 32.6589C20.4325 32.4692 20.2539 32.2867 20.1484 32.1526C20.1229 32.1201 20.104 32.0933 20.0908 32.0727C20.077 32.0511 20.073 32.0418 20.0737 32.0436C20.0743 32.045 20.0775 32.0523 20.081 32.0651C20.0844 32.0773 20.0896 32.0999 20.0916 32.1306C20.0953 32.191 20.0865 32.3159 19.9882 32.4316L19.2259 31.7844C19.1051 31.9266 19.0869 32.0877 19.0935 32.1929C19.0998 32.2944 19.13 32.3803 19.1551 32.4387C19.206 32.5571 19.2845 32.6716 19.3622 32.7704C19.5227 32.9748 19.7556 33.2068 20.02 33.4271L20.6601 32.6589ZM20.7016 32.6974L20.6936 32.6894L19.9865 33.3966L19.9945 33.4046L20.7016 32.6974ZM21.4685 33.1397C21.1782 33.0534 20.9126 32.8992 20.6938 32.6898L20.0024 33.4122C20.336 33.7315 20.7409 33.9667 21.1836 34.0983L21.4685 33.1397ZM21.0424 33.2396C21.1326 33.1508 21.2582 33.1077 21.3839 33.1224L21.2682 34.1156C21.4432 34.136 21.6181 34.076 21.7437 33.9524L21.0424 33.2396ZM20.3376 33.0448C20.5651 33.2347 20.744 33.4173 20.8501 33.5517C20.8758 33.5843 20.8949 33.6112 20.9083 33.632C20.9223 33.6538 20.9266 33.6635 20.926 33.6621C20.9255 33.661 20.9225 33.654 20.919 33.6417C20.9156 33.6298 20.9103 33.6078 20.9082 33.5778C20.904 33.5193 20.9108 33.3952 21.0069 33.2784L21.7792 33.9136C21.8973 33.77 21.913 33.6095 21.9056 33.5061C21.8984 33.4057 21.8681 33.3208 21.8428 33.2627C21.7915 33.145 21.713 33.0311 21.6353 32.9325C21.4746 32.7287 21.2421 32.4973 20.9785 32.2772L20.3376 33.0448ZM19.9882 32.4316C19.8914 32.5456 19.7722 32.5748 19.7141 32.5813C19.6843 32.5847 19.6617 32.5836 19.6494 32.5824C19.6367 32.5812 19.6291 32.5795 19.6279 32.5793C19.6263 32.5789 19.6364 32.5812 19.6601 32.591C19.6828 32.6003 19.7125 32.614 19.749 32.6333C19.8995 32.7127 20.1105 32.8552 20.3376 33.0448L20.9785 32.2772C20.7146 32.0568 20.4451 31.8698 20.2154 31.7487C20.1042 31.6901 19.9778 31.6337 19.8525 31.6048C19.7906 31.5905 19.7016 31.5764 19.6017 31.5877C19.4988 31.5993 19.3452 31.6439 19.2259 31.7844L19.9882 32.4316ZM25.7551 32.0158C25.4814 32.2916 25.2439 32.571 25.0834 32.8064C25.0055 32.9206 24.9305 33.0463 24.8838 33.1691C24.861 33.2289 24.8337 33.3166 24.8301 33.418C24.8266 33.5195 24.8466 33.6977 24.9935 33.8446L25.7006 33.1375C25.8225 33.2593 25.8314 33.4 25.8295 33.453C25.8277 33.5058 25.8149 33.534 25.8184 33.5247C25.8243 33.5093 25.849 33.4586 25.9095 33.3699C26.0257 33.1995 26.2197 32.9674 26.465 32.7202L25.7551 32.0158ZM27.5768 31.2416C27.4266 31.093 27.2451 31.0766 27.1459 31.0814C27.0456 31.0863 26.9589 31.1144 26.9 31.1375C26.7788 31.185 26.6544 31.2603 26.5409 31.3388C26.3071 31.5006 26.0293 31.7395 25.7551 32.0158L26.465 32.7202C26.7098 32.4735 26.9405 32.2784 27.1099 32.1612C27.1981 32.1002 27.249 32.0748 27.2649 32.0685C27.2746 32.0647 27.247 32.0777 27.1947 32.0802C27.1435 32.0827 26.999 32.0768 26.8733 31.9524L27.5768 31.2416ZM26.818 33.0702C27.0913 32.7948 27.328 32.5151 27.4881 32.2798C27.5658 32.1656 27.6402 32.0405 27.6868 31.9189C27.7095 31.86 27.737 31.773 27.7412 31.6726C27.7454 31.5735 27.7278 31.3911 27.5768 31.2416L26.8733 31.9524C26.7468 31.8271 26.74 31.6816 26.7421 31.6307C26.7443 31.5784 26.757 31.5507 26.7532 31.5607C26.747 31.577 26.7217 31.6284 26.6613 31.7172C26.5451 31.8879 26.3518 32.1202 26.1081 32.3658L26.818 33.0702ZM25.587 33.9683C26.0755 33.7639 26.5077 33.4449 26.8469 33.0384L26.0792 32.3976C25.8427 32.681 25.5415 32.9033 25.2011 33.0457L25.587 33.9683ZM25.1071 33.9338C25.2126 33.9937 25.3345 34.018 25.4548 34.0033L25.3333 33.0107C25.426 32.9994 25.5198 33.0181 25.601 33.0642L25.1071 33.9338ZM24.9708 33.8203L24.9778 33.8283L25.7303 33.1697L25.7233 33.1617L24.9708 33.8203Z" fill="black" fill-opacity="0.01"/>
<path d="M111.082 87.919C111.615 88.352 103.836 98.813 93.7111 111.281C91.5531 113.9 89.4821 116.411 87.5791 118.721L86.7411 119.739L85.8411 118.81C77.9351 110.664 72.5411 104.61 72.9191 104.231C73.2971 103.852 79.3501 109.247 87.4981 117.153L85.7611 117.244C87.6301 114.906 89.6611 112.366 91.7821 109.715C101.907 97.246 110.549 87.488 111.082 87.919Z" fill="white"/>
</svg>
