<svg width="16" height="16" viewBox="0 0 16 16" fill="none" xmlns="http://www.w3.org/2000/svg">
<g clip-path="url(#clip0_477_2545)">
<path d="M10 10H12.6667L14.6667 14.6667H1.33337L3.33337 10H6.00004M8.66671 5.33334C8.66671 5.51015 8.59647 5.67972 8.47144 5.80475C8.34642 5.92977 8.17685 6.00001 8.00004 6.00001C7.82323 6.00001 7.65366 5.92977 7.52864 5.80475C7.40361 5.67972 7.33337 5.51015 7.33337 5.33334C7.33337 5.15653 7.40361 4.98696 7.52864 4.86194C7.65366 4.73691 7.82323 4.66668 8.00004 4.66668C8.17685 4.66668 8.34642 4.73691 8.47144 4.86194C8.59647 4.98696 8.66671 5.15653 8.66671 5.33334ZM4.00004 5.33334C4.00004 8.66668 8.00004 12 8.00004 12C8.00004 12 12 8.66668 12 5.33334C12 3.05534 10.2094 1.33334 8.00004 1.33334C5.79071 1.33334 4.00004 3.05534 4.00004 5.33334Z" stroke="#136849"/>
</g>
<defs>
<clipPath id="clip0_477_2545">
<rect width="16" height="16" fill="white"/>
</clipPath>
</defs>
</svg>
