<svg width="34" height="34" viewBox="0 0 34 34" fill="none" xmlns="http://www.w3.org/2000/svg">
<circle cx="17" cy="17" r="17" fill="white"/>
<path d="M25.1249 24.2413L20.4049 19.5213C21.5391 18.1596 22.1047 16.413 21.9841 14.6449C21.8634 12.8769 21.0657 11.2234 19.7569 10.0285C18.4482 8.83353 16.7291 8.18918 14.9574 8.22943C13.1856 8.26969 11.4976 8.99146 10.2445 10.2446C8.99134 11.4977 8.26958 13.1857 8.22932 14.9575C8.18906 16.7292 8.83341 18.4483 10.0283 19.757C11.2233 21.0658 12.8767 21.8635 14.6448 21.9842C16.4129 22.1049 18.1595 21.5392 19.5211 20.405L24.2411 25.125L25.1249 24.2413ZM9.49989 15.125C9.49989 14.0125 9.82979 12.9249 10.4479 11.9999C11.066 11.0749 11.9445 10.3539 12.9723 9.92818C14.0001 9.50244 15.1311 9.39104 16.2223 9.60809C17.3134 9.82513 18.3157 10.3609 19.1024 11.1475C19.889 11.9342 20.4248 12.9365 20.6418 14.0276C20.8588 15.1188 20.7475 16.2498 20.3217 17.2776C19.896 18.3054 19.175 19.1839 18.25 19.802C17.3249 20.4201 16.2374 20.75 15.1249 20.75C13.6336 20.7484 12.2038 20.1552 11.1492 19.1007C10.0947 18.0461 9.50154 16.6163 9.49989 15.125Z" fill="#136849"/>
</svg>
