<svg width="246" height="246" viewBox="0 0 246 246" fill="none" xmlns="http://www.w3.org/2000/svg">
<g clip-path="url(#clip0_374_6413)">
<path d="M37.4475 37.4474C22.286 52.6089 13.9363 72.7976 13.9363 94.2947C13.9363 115.792 22.286 135.981 37.4475 151.142C52.609 166.303 72.7977 174.653 94.2948 174.653C115.792 174.653 135.981 166.303 151.142 151.142C166.304 135.981 174.653 115.792 174.653 94.2947C174.653 72.7976 166.304 52.6089 151.142 37.4474C119.796 6.10151 68.7929 6.10151 37.4475 37.4474ZM146.046 146.046C132.245 159.846 113.867 167.446 94.2943 167.446C74.722 167.446 56.3433 159.846 42.543 146.046C28.7432 132.245 21.143 113.867 21.143 94.2942C21.143 74.722 28.7432 56.3432 42.543 42.5429C56.8108 28.2751 75.5523 21.1414 94.2943 21.1414C113.036 21.1414 131.778 28.2756 146.046 42.5429C159.845 56.3432 167.446 74.722 167.446 94.2942C167.446 113.867 159.846 132.245 146.046 146.046Z" fill="#C1C6C5"/>
<path d="M242.934 214.547L194.03 165.643C192.049 163.662 189.417 162.572 186.616 162.572C183.816 162.572 181.183 163.663 179.203 165.643L174.971 169.875L163.466 158.37C178.743 141.892 187.609 120.63 188.513 98.0968C188.592 96.1081 187.045 94.4313 185.057 94.3515C183.072 94.2804 181.392 95.8189 181.311 97.8076C180.432 119.729 171.399 140.351 155.875 155.875C139.426 172.323 117.557 181.382 94.2948 181.382C71.0324 181.382 49.163 172.323 32.7143 155.875C16.2656 139.427 7.20717 117.557 7.20717 94.2948C7.20717 71.0324 16.2661 49.163 32.7143 32.7143C49.1625 16.2656 71.0324 7.20717 94.2948 7.20717C117.557 7.20717 139.426 16.2661 155.875 32.7143C169.227 46.0663 177.727 62.9691 180.457 81.5953C180.746 83.5643 182.578 84.9279 184.545 84.6382C186.514 84.3494 187.877 82.5192 187.588 80.5502C184.631 60.3783 175.427 42.0745 160.971 27.6179C143.161 9.80848 119.481 0 94.2948 0C69.1076 0 45.4282 9.80848 27.6184 27.6184C9.80848 45.4282 0 69.1077 0 94.2948C0 119.481 9.80848 143.161 27.6184 160.971C45.4282 178.781 69.1076 188.59 94.2948 188.59C118.276 188.59 140.887 179.692 158.37 163.467L169.875 174.971L165.643 179.203C163.662 181.184 162.572 183.817 162.572 186.617C162.572 189.418 163.663 192.05 165.643 194.031L214.547 242.935C216.591 244.979 219.275 246.001 221.96 246.001C224.645 246.001 227.33 244.979 229.374 242.935L242.934 229.375C247.022 225.286 247.022 218.634 242.934 214.547ZM237.838 224.278L224.278 237.838C223 239.116 220.921 239.116 219.643 237.838L170.739 188.934C170.12 188.315 169.779 187.492 169.779 186.617C169.779 185.741 170.12 184.919 170.739 184.299L184.3 170.739C184.919 170.12 185.741 169.779 186.617 169.779C187.492 169.779 188.315 170.12 188.934 170.739L237.838 219.643C239.116 220.921 239.116 223 237.838 224.278Z" fill="#C1C6C5"/>
<path d="M143.539 70.6507C143.539 52.7879 129.007 38.2559 111.145 38.2559H77.4449C59.5822 38.2559 45.0501 52.7884 45.0501 70.6507V79.4641C40.1252 80.4101 36.3919 84.7493 36.3919 89.9457V98.6222C36.3919 103.819 40.1252 108.158 45.0501 109.104V124.213C45.0501 135.163 53.9582 144.071 64.9073 144.071H123.683C134.632 144.071 143.54 135.163 143.54 124.213V109.104C148.465 108.158 152.198 103.819 152.198 98.6222V89.9457C152.198 84.7493 148.465 80.4101 143.54 79.4641L143.539 70.6507ZM136.332 124.213C136.332 131.189 130.657 136.863 123.682 136.863H64.9068C57.9313 136.863 52.2568 131.188 52.2568 124.213V112.99L68.8751 125.709C71.203 127.491 73.9922 128.382 76.7819 128.382C79.5715 128.382 82.3607 127.491 84.6886 125.709L106.131 109.297H136.332V124.213H136.332ZM59.2905 109.298H94.2737L80.3086 119.987C78.2324 121.576 75.3327 121.576 73.2561 119.987L59.2905 109.298ZM144.991 89.9457V98.6222C144.991 100.534 143.435 102.09 141.522 102.09H47.0672C45.1549 102.09 43.5986 100.534 43.5986 98.6222V89.9457C43.5986 88.0334 45.1544 86.4776 47.0672 86.4776H66.0134C68.0035 86.4776 69.617 84.8642 69.617 82.874C69.617 80.8839 68.0035 79.2704 66.0134 79.2704H52.2568V70.6507C52.2568 56.762 63.5562 45.463 77.4444 45.463H111.144C125.033 45.463 136.332 56.7624 136.332 70.6507V79.2704H82.9762C80.986 79.2704 79.3726 80.8839 79.3726 82.874C79.3726 84.8642 80.986 86.4776 82.9762 86.4776H141.522C143.434 86.4776 144.991 88.0334 144.991 89.9457Z" fill="#C1C6C5"/>
<path d="M75.4825 58.6392C73.4237 58.6392 71.7551 60.3078 71.7551 62.3666C71.7551 64.4254 73.4237 66.0941 75.4825 66.0941C77.5413 66.0941 79.21 64.4254 79.21 62.3666C79.21 60.3078 77.5413 58.6392 75.4825 58.6392Z" fill="#C1C6C5"/>
<path d="M96.6249 60.1601C98.6568 59.8307 100.037 57.9165 99.7075 55.8847C99.3782 53.8528 97.464 52.4727 95.4321 52.802C93.4003 53.1314 92.0201 55.0456 92.3495 57.0775C92.6789 59.1093 94.5931 60.4895 96.6249 60.1601Z" fill="#C1C6C5"/>
<path d="M116.612 66.0941C118.67 66.0941 120.339 64.4254 120.339 62.3666C120.339 60.3078 118.67 58.6392 116.612 58.6392C114.553 58.6392 112.884 60.3078 112.884 62.3666C112.884 64.4254 114.553 66.0941 116.612 66.0941Z" fill="#C1C6C5"/>
</g>
<defs>
<clipPath id="clip0_374_6413">
<rect width="246" height="246" fill="white"/>
</clipPath>
</defs>
</svg>
