<svg width="12" height="12" viewBox="0 0 12 12" fill="none" xmlns="http://www.w3.org/2000/svg">
<path d="M6 1.21875C5.05436 1.21875 4.12995 1.49917 3.34368 2.02454C2.55741 2.54991 1.94458 3.29664 1.5827 4.1703C1.22082 5.04395 1.12614 6.0053 1.31062 6.93278C1.49511 7.86025 1.95048 8.71218 2.61915 9.38085C3.28782 10.0495 4.13976 10.5049 5.06723 10.6894C5.9947 10.8739 6.95605 10.7792 7.82971 10.4173C8.70337 10.0554 9.4501 9.44259 9.97547 8.65632C10.5008 7.87005 10.7813 6.94564 10.7813 6C10.7798 4.73239 10.2755 3.51713 9.37921 2.62079C8.48288 1.72445 7.26761 1.22024 6 1.21875ZM6 10.2188C5.16561 10.2188 4.34996 9.97132 3.65619 9.50776C2.96242 9.0442 2.42169 8.38532 2.10239 7.61445C1.78308 6.84357 1.69953 5.99532 1.86231 5.17696C2.0251 4.35861 2.42689 3.6069 3.0169 3.01689C3.6069 2.42689 4.35861 2.02509 5.17697 1.86231C5.99532 1.69953 6.84357 1.78308 7.61445 2.10238C8.38532 2.42169 9.0442 2.96242 9.50776 3.65619C9.97133 4.34996 10.2188 5.16561 10.2188 6C10.2175 7.1185 9.77264 8.19084 8.98174 8.98174C8.19084 9.77264 7.1185 10.2175 6 10.2188ZM8.90625 6C8.90625 6.07459 8.87662 6.14613 8.82388 6.19887C8.77113 6.25162 8.69959 6.28125 8.625 6.28125H6C5.92541 6.28125 5.85387 6.25162 5.80113 6.19887C5.74838 6.14613 5.71875 6.07459 5.71875 6V3.375C5.71875 3.30041 5.74838 3.22887 5.80113 3.17613C5.85387 3.12338 5.92541 3.09375 6 3.09375C6.07459 3.09375 6.14613 3.12338 6.19888 3.17613C6.25162 3.22887 6.28125 3.30041 6.28125 3.375V5.71875H8.625C8.69959 5.71875 8.77113 5.74838 8.82388 5.80113C8.87662 5.85387 8.90625 5.92541 8.90625 6Z" fill="#136849"/>
</svg>
