<svg width="20" height="16" viewBox="0 0 20 16" fill="none" xmlns="http://www.w3.org/2000/svg">
<path d="M12.479 10.3409L13.4821 10.2054C13.2982 10.1012 13.1176 9.99228 12.9404 9.8786L12.479 10.3409Z" fill="#136849"/>
<path fill-rule="evenodd" clip-rule="evenodd" d="M2.4375 15.125C1.09131 15.125 0 14.0337 0 12.6875V2.9375C0 1.59131 1.09131 0.5 2.4375 0.5H17.0625C18.4087 0.5 19.5 1.59131 19.5 2.9375V12.6875C19.5 14.0337 18.4087 15.125 17.0625 15.125H2.4375ZM1.62485 12.6874C1.62485 13.1361 1.98862 13.4999 2.43735 13.4999H17.0624C17.5111 13.4999 17.8749 13.1361 17.8749 12.6874V6.99985H1.62485V12.6874ZM17.8749 2.93735V5.37485H1.62485V2.93735C1.62485 2.48862 1.98862 2.12485 2.43735 2.12485H17.0624C17.5111 2.12485 17.8749 2.48862 17.8749 2.93735Z" fill="#136849"/>
<mask id="mask0_23_823" style="mask-type:luminance" maskUnits="userSpaceOnUse" x="0" y="0" width="20" height="16">
<path fill-rule="evenodd" clip-rule="evenodd" d="M2.4375 15.125C1.09131 15.125 0 14.0337 0 12.6875V2.9375C0 1.59131 1.09131 0.5 2.4375 0.5H17.0625C18.4087 0.5 19.5 1.59131 19.5 2.9375V12.6875C19.5 14.0337 18.4087 15.125 17.0625 15.125H2.4375ZM1.62485 12.6874C1.62485 13.1361 1.98862 13.4999 2.43735 13.4999H17.0624C17.5111 13.4999 17.8749 13.1361 17.8749 12.6874V6.99985H1.62485V12.6874ZM17.8749 5.37485V2.93735C17.8749 2.48862 17.5111 2.12485 17.0624 2.12485H2.43735C1.98862 2.12485 1.62485 2.48862 1.62485 2.93735V5.37485H17.8749Z" fill="white"/>
</mask>
<g mask="url(#mask0_23_823)">
<rect y="-1.9375" width="19.5" height="19.5" fill="#FAE7AF"/>
</g>
</svg>
