<svg width="34" height="34" viewBox="0 0 34 34" fill="none" xmlns="http://www.w3.org/2000/svg">
<circle cx="17" cy="17" r="17" fill="white"/>
<g clip-path="url(#clip0_775_4)">
<path fill-rule="evenodd" clip-rule="evenodd" d="M11.375 14.5C11.2092 14.5 11.0503 14.5658 10.9331 14.6831C10.8158 14.8003 10.75 14.9592 10.75 15.125V25.125C10.75 25.2908 10.8158 25.4497 10.9331 25.5669C11.0503 25.6842 11.2092 25.75 11.375 25.75H22.625C22.7908 25.75 22.9497 25.6842 23.0669 25.5669C23.1842 25.4497 23.25 25.2908 23.25 25.125V15.125C23.25 14.9592 23.1842 14.8003 23.0669 14.6831C22.9497 14.5658 22.7908 14.5 22.625 14.5H20.125C19.9592 14.5 19.8003 14.4342 19.6831 14.3169C19.5658 14.1997 19.5 14.0408 19.5 13.875C19.5 13.7092 19.5658 13.5503 19.6831 13.4331C19.8003 13.3158 19.9592 13.25 20.125 13.25H22.625C23.1223 13.25 23.5992 13.4475 23.9508 13.7992C24.3025 14.1508 24.5 14.6277 24.5 15.125V25.125C24.5 25.6223 24.3025 26.0992 23.9508 26.4508C23.5992 26.8025 23.1223 27 22.625 27H11.375C10.8777 27 10.4008 26.8025 10.0492 26.4508C9.69754 26.0992 9.5 25.6223 9.5 25.125V15.125C9.5 14.6277 9.69754 14.1508 10.0492 13.7992C10.4008 13.4475 10.8777 13.25 11.375 13.25H13.875C14.0408 13.25 14.1997 13.3158 14.3169 13.4331C14.4342 13.5503 14.5 13.7092 14.5 13.875C14.5 14.0408 14.4342 14.1997 14.3169 14.3169C14.1997 14.4342 14.0408 14.5 13.875 14.5H11.375Z" fill="#136849"/>
<path fill-rule="evenodd" clip-rule="evenodd" d="M16.5576 7.18272C16.6156 7.12452 16.6846 7.07834 16.7605 7.04683C16.8364 7.01533 16.9178 6.99911 17.0001 6.99911C17.0823 6.99911 17.1637 7.01533 17.2396 7.04683C17.3155 7.07834 17.3845 7.12452 17.4426 7.18272L21.1926 10.9327C21.3099 11.0501 21.3758 11.2093 21.3758 11.3752C21.3758 11.5412 21.3099 11.7004 21.1926 11.8177C21.0752 11.9351 20.916 12.001 20.7501 12.001C20.5841 12.001 20.4249 11.9351 20.3076 11.8177L17.6251 9.13397V20.1252C17.6251 20.291 17.5592 20.45 17.442 20.5672C17.3248 20.6844 17.1658 20.7502 17.0001 20.7502C16.8343 20.7502 16.6753 20.6844 16.5581 20.5672C16.4409 20.45 16.3751 20.291 16.3751 20.1252V9.13397L13.6926 11.8177C13.6344 11.8758 13.5655 11.9219 13.4895 11.9534C13.4136 11.9848 13.3322 12.001 13.2501 12.001C13.0841 12.001 12.9249 11.9351 12.8076 11.8177C12.7494 11.7596 12.7034 11.6906 12.6719 11.6147C12.6405 11.5388 12.6243 11.4574 12.6243 11.3752C12.6243 11.2093 12.6902 11.0501 12.8076 10.9327L16.5576 7.18272Z" fill="#136849"/>
</g>
<defs>
<clipPath id="clip0_775_4">
<rect width="20" height="20" fill="white" transform="translate(7 7)"/>
</clipPath>
</defs>
</svg>
