<svg width="33" height="33" viewBox="0 0 33 33" fill="none" xmlns="http://www.w3.org/2000/svg">
<g filter="url(#filter0_d_489_1573)">
<circle cx="16.5" cy="12.5" r="12.5" fill="white"/>
</g>
<path d="M17 17L16.275 16.3527C13.7 14.0626 12 12.5522 12 10.701C12.0097 9.9657 12.3066 9.26527 12.8239 8.75749C13.3411 8.2497 14.0353 7.97725 14.75 8.00149C15.6066 8.00379 16.4229 8.37573 17 9.02668C17.5771 8.37573 18.3934 8.00379 19.25 8.00149C19.9647 7.97725 20.6589 8.2497 21.1761 8.75749C21.6934 9.26527 21.9903 9.9657 22 10.701C22 12.5547 20.3 14.0652 17.725 16.3572L17 17Z" fill="#FF5C3A"/>
<defs>
<filter id="filter0_d_489_1573" x="0" y="0" width="33" height="33" filterUnits="userSpaceOnUse" color-interpolation-filters="sRGB">
<feFlood flood-opacity="0" result="BackgroundImageFix"/>
<feColorMatrix in="SourceAlpha" type="matrix" values="0 0 0 0 0 0 0 0 0 0 0 0 0 0 0 0 0 0 127 0" result="hardAlpha"/>
<feOffset dy="4"/>
<feGaussianBlur stdDeviation="2"/>
<feComposite in2="hardAlpha" operator="out"/>
<feColorMatrix type="matrix" values="0 0 0 0 0 0 0 0 0 0 0 0 0 0 0 0 0 0 0.25 0"/>
<feBlend mode="normal" in2="BackgroundImageFix" result="effect1_dropShadow_489_1573"/>
<feBlend mode="normal" in="SourceGraphic" in2="effect1_dropShadow_489_1573" result="shape"/>
</filter>
</defs>
</svg>
