<svg width="18" height="15" viewBox="0 0 18 15" fill="none" xmlns="http://www.w3.org/2000/svg">
<path fill-rule="evenodd" clip-rule="evenodd" d="M16.045 0.440084H1.78302C1.31055 0.438733 0.857173 0.626441 0.523932 0.961374C0.19069 1.29631 0.00527912 1.75063 0.00902023 2.22308L2.02284e-05 12.9191C-0.00158081 13.3925 0.185756 13.8469 0.520481 14.1816C0.855206 14.5163 1.30965 14.7037 1.78302 14.7021H16.045C16.5184 14.7037 16.9728 14.5163 17.3076 14.1816C17.6423 13.8469 17.8296 13.3925 17.828 12.9191V2.22308C17.8296 1.74971 17.6423 1.29527 17.3076 0.960545C16.9728 0.62582 16.5184 0.438483 16.045 0.440084ZM16.045 12.9191H1.78302V7.57108H16.045V12.9191ZM1.78302 4.00508H16.045V2.22308H1.78302V4.00508Z" fill="#136849"/>
</svg>
