<svg width="30" height="29" viewBox="0 0 30 29" fill="none" xmlns="http://www.w3.org/2000/svg">
<g clip-path="url(#clip0_368_1343)">
<path d="M29.7487 14.0323L16.1069 3.00398C15.797 2.75282 15.405 2.61511 15 2.61511C14.595 2.61511 14.2031 2.75282 13.8931 3.00398L0.251247 14.0323C0.179913 14.0893 0.120976 14.1594 0.077825 14.2384C0.0346741 14.3174 0.00816063 14.4039 -0.000190719 14.4928C-0.00854207 14.5818 0.00143342 14.6714 0.0291621 14.7566C0.0568908 14.8418 0.101826 14.9209 0.161383 14.9894C0.22094 15.0578 0.293945 15.1142 0.376199 15.1553C0.458453 15.1964 0.548334 15.2215 0.640673 15.229C0.733013 15.2366 0.825989 15.2265 0.914255 15.1993C1.00252 15.1721 1.08434 15.1283 1.155 15.0705L3.97652 12.7894V24.5736C3.97706 25.0302 4.16552 25.4679 4.50055 25.7908C4.83558 26.1136 5.28983 26.2952 5.76363 26.2958H24.7559C25.2297 26.2952 25.6839 26.1136 26.0189 25.7908C26.354 25.4679 26.5424 25.0302 26.543 24.5736V13.2095L28.845 15.0705C28.9156 15.1287 28.9975 15.1729 29.0859 15.2004C29.1743 15.228 29.2675 15.2384 29.3601 15.231C29.4527 15.2236 29.5428 15.1986 29.6254 15.1575C29.7079 15.1163 29.7811 15.0598 29.8408 14.9912C29.9005 14.9226 29.9456 14.8433 29.9733 14.7578C30.001 14.6723 30.0108 14.5824 30.0023 14.4933C29.9937 14.4041 29.9669 14.3175 29.9234 14.2384C29.8799 14.1593 29.8205 14.0892 29.7487 14.0324V14.0323ZM18.4753 24.9406H12.0442V17.4231H18.4753V24.9406ZM25.1367 24.5736C25.1366 24.6709 25.0964 24.7642 25.025 24.833C24.9536 24.9018 24.8568 24.9405 24.7559 24.9406H19.8816V17.1325C19.8812 16.8503 19.7647 16.5797 19.5576 16.3801C19.3506 16.1806 19.0698 16.0683 18.7769 16.068H11.7426C11.4497 16.0683 11.169 16.1806 10.9619 16.3801C10.7548 16.5797 10.6383 16.8503 10.638 17.1325V24.9406H5.76369C5.66272 24.9405 5.56592 24.9018 5.49452 24.833C5.42312 24.7642 5.38295 24.6709 5.38283 24.5736V11.6527L14.7969 4.04226C14.8534 3.99546 14.9255 3.96973 15 3.96973C15.0745 3.96973 15.1466 3.99546 15.2031 4.04226L25.1367 12.0727V24.5736Z" fill="#12AD5F"/>
</g>
<defs>
<clipPath id="clip0_368_1343">
<rect width="30" height="28.91" fill="white"/>
</clipPath>
</defs>
</svg>
