<svg width="48" height="48" viewBox="0 0 48 48" fill="none" xmlns="http://www.w3.org/2000/svg">
<rect width="48" height="48" rx="24" fill="#12AD5F"/>
<path fill-rule="evenodd" clip-rule="evenodd" d="M29.4 28H21.62C20.275 27.9971 19.0954 27.1017 18.731 25.807L18.687 25.629L16.53 15.581C16.3492 14.717 15.6201 14.0758 14.74 14.007L14.575 14H11V12H14.575C16.3855 12.0005 17.97 13.217 18.438 14.966L18.486 15.166L18.879 17H31.753C31.8504 16.9998 31.9477 17.0068 32.044 17.021L32.187 17.047C33.2067 17.2777 33.879 18.2518 33.733 19.287L33.706 19.434L32.324 25.651C32.0295 26.9551 30.9112 27.9094 29.577 27.995L29.4 28ZM19 36C17.3431 36 16 34.6569 16 33C16 31.3431 17.3431 30 19 30C20.6569 30 22 31.3431 22 33C22 34.6569 20.6569 36 19 36ZM29 33C29 34.6569 30.3431 36 32 36C33.6569 36 35 34.6569 35 33C35 31.3431 33.6569 30 32 30C30.3431 30 29 31.3431 29 33ZM31 33C31 32.4477 31.4477 32 32 32C32.5523 32 33 32.4477 33 33C33 33.5523 32.5523 34 32 34C31.4477 34 31 33.5523 31 33ZM18 33C18 32.4477 18.4477 32 19 32C19.5523 32 20 32.4477 20 33C20 33.5523 19.5523 34 19 34C18.4477 34 18 33.5523 18 33ZM20.639 25.209L19.308 19H31.753L30.375 25.216L30.344 25.328C30.2044 25.7301 29.8256 25.9997 29.4 26H21.616L21.5 25.993C21.0747 25.943 20.7286 25.6277 20.639 25.209Z" fill="white"/>
</svg>
