<svg width="40" height="40" viewBox="0 0 40 40" fill="none" xmlns="http://www.w3.org/2000/svg">
<rect opacity="0.1" width="40" height="40" rx="20" fill="#C1C6C5"/>
<path fill-rule="evenodd" clip-rule="evenodd" d="M8 27C8 28.6569 9.34315 30 11 30H29C30.6569 30 32 28.6569 32 27V13C32 11.3431 30.6569 10 29 10H11C9.34315 10 8 11.3431 8 13V27ZM11 28C10.4477 28 10 27.5523 10 27V18H30V27C30 27.5523 29.5523 28 29 28H11ZM30 16V13C30 12.4477 29.5523 12 29 12H11C10.4477 12 10 12.4477 10 13V16H30ZM14 22V24H18V22H14Z" fill="#C1C6C5"/>
</svg>
