<svg width="34" height="34" viewBox="0 0 34 34" fill="none" xmlns="http://www.w3.org/2000/svg">
<circle cx="17" cy="17" r="17" fill="black" fill-opacity="0.5"/>
<mask id="mask0_461_1592" style="mask-type:alpha" maskUnits="userSpaceOnUse" x="10" y="10" width="15" height="15">
<rect x="10.8684" y="10.8684" width="13.2632" height="13.2632" fill="#D9D9D9"/>
</mask>
<g mask="url(#mask0_461_1592)">
</g>
<path d="M22.0504 21.3871C22.094 21.4306 22.1285 21.4824 22.1521 21.5393C22.1756 21.5962 22.1878 21.6571 22.1878 21.7187C22.1878 21.7803 22.1756 21.8413 22.1521 21.8982C22.1285 21.9551 22.094 22.0068 22.0504 22.0504C22.0069 22.0939 21.9552 22.1285 21.8983 22.152C21.8413 22.1756 21.7804 22.1877 21.7188 22.1877C21.6572 22.1877 21.5962 22.1756 21.5393 22.152C21.4824 22.1285 21.4307 22.0939 21.3871 22.0504L17.5 18.1627L13.6129 22.0504C13.525 22.1383 13.4057 22.1877 13.2813 22.1877C13.1569 22.1877 13.0376 22.1383 12.9496 22.0504C12.8617 21.9624 12.8123 21.8431 12.8123 21.7187C12.8123 21.5943 12.8617 21.4751 12.9496 21.3871L16.8373 17.5L12.9496 13.6129C12.8617 13.5249 12.8123 13.4056 12.8123 13.2812C12.8123 13.1568 12.8617 13.0376 12.9496 12.9496C13.0376 12.8616 13.1569 12.8122 13.2813 12.8122C13.4057 12.8122 13.525 12.8616 13.6129 12.9496L17.5 16.8373L21.3871 12.9496C21.4751 12.8616 21.5944 12.8122 21.7188 12.8122C21.8432 12.8122 21.9625 12.8616 22.0504 12.9496C22.1384 13.0376 22.1878 13.1568 22.1878 13.2812C22.1878 13.4056 22.1384 13.5249 22.0504 13.6129L18.1627 17.5L22.0504 21.3871Z" fill="white"/>
</svg>
