<svg width="50" height="50" viewBox="0 0 50 50" fill="none" xmlns="http://www.w3.org/2000/svg">
<circle cx="25" cy="25" r="25" fill="#FAE7AF"/>
<path fill-rule="evenodd" clip-rule="evenodd" d="M13.9138 29.5922C15.771 34.0761 20.1464 36.9998 24.9998 37C28.184 37.0085 31.2394 35.7428 33.4848 33.4851C36.5575 30.462 37.7727 26.0232 36.6684 21.8566C35.5641 17.69 32.3098 14.4358 28.1432 13.3315C23.9766 12.2271 19.5378 13.4424 16.5148 16.515C13.083 19.947 12.0565 25.1082 13.9138 29.5922ZM20.3498 19.193C20.4294 19.1136 20.5374 19.0694 20.6498 19.07C20.7625 19.0691 20.871 19.1134 20.9508 19.193L25.0058 23.1931L29.0608 19.193C29.2271 19.0289 29.4945 19.0289 29.6608 19.193L30.8158 20.3621C30.9784 20.529 30.9784 20.7951 30.8158 20.962L26.7498 24.98L30.7998 29.045C30.8788 29.1249 30.923 29.2327 30.9228 29.345C30.9243 29.4576 30.8799 29.5659 30.7998 29.6451L29.6448 30.8071C29.5656 30.887 29.4573 30.9314 29.3448 30.93C29.2327 30.929 29.1253 30.885 29.0448 30.8071L24.9998 26.757L20.9568 30.813C20.8779 30.8935 20.7694 30.938 20.6568 30.9361C20.5446 30.9356 20.437 30.8914 20.3568 30.813L19.1998 29.65C19.0356 29.4837 19.0356 29.2164 19.1998 29.0501L23.2588 24.9741L19.1928 20.956C19.0297 20.7893 19.0297 20.5228 19.1928 20.3561L20.3498 19.193Z" fill="white"/>
</svg>
