<svg width="40" height="40" viewBox="0 0 40 40" fill="none" xmlns="http://www.w3.org/2000/svg">
<rect opacity="0.1" width="40" height="40" rx="20" fill="#FAE7AF"/>
<path fill-rule="evenodd" clip-rule="evenodd" d="M11.2878 22.527C16.7148 28.358 18.9948 30.427 19.9998 30.427C21.0888 30.427 23.5768 28.106 30.2368 20.873C31.3811 19.6486 32.0121 18.0319 31.9998 16.356C32.0108 14.6755 31.3774 13.0547 30.2298 11.827L30.0528 11.646C28.9158 10.5111 27.3653 9.88893 25.7592 9.92309C24.1532 9.95725 22.6305 10.6448 21.5428 11.827L19.9998 13.468L18.4588 11.827L18.2388 11.606C17.0981 10.4895 15.5536 9.88291 13.958 9.92456C12.3624 9.9662 10.8517 10.6526 9.77079 11.827C8.62206 13.0545 7.98815 14.6759 7.99979 16.357C7.98938 18.0361 8.62323 19.6552 9.77079 20.881L11.2878 22.527ZM11.2258 13.203C11.9692 12.394 13.0161 11.9316 14.1148 11.927C15.0616 11.9319 15.9751 12.2776 16.6878 12.901L16.8388 13.039L17.0188 13.22L19.9998 16.387L22.9988 13.2C23.7391 12.3875 24.7875 11.9244 25.8868 11.9244C26.986 11.9244 28.0344 12.3875 28.7748 13.2C30.4117 14.9837 30.4117 17.7233 28.7748 19.507L27.3558 21.04C25.4388 23.099 23.8388 24.762 22.6018 25.984L22.1788 26.399C21.4148 27.142 20.7968 27.704 20.3428 28.068L20.1158 28.244L19.9998 28.327L19.9848 28.318C19.8868 28.249 19.7778 28.171 19.6588 28.071L19.3688 27.831C19.0098 27.522 18.5658 27.122 18.0498 26.622L17.3998 25.987C15.8668 24.473 13.7928 22.297 11.2338 19.518C9.59164 17.7345 9.58816 14.9907 11.2258 13.203Z" fill="#FAE7AF"/>
</svg>
