<svg width="34" height="34" viewBox="0 0 34 34" fill="none" xmlns="http://www.w3.org/2000/svg">
<circle cx="17" cy="17" r="17" fill="white"/>
<path d="M17 27.0809L15.8381 26.0364C14.0931 24.4534 12.6502 23.0931 11.5091 21.9555C10.3681 20.8178 9.46392 19.8053 8.79658 18.918C8.12923 18.0307 7.66297 17.2213 7.39779 16.4899C7.1326 15.7584 7 15.0162 7 14.2631C7 12.7692 7.50371 11.5186 8.51114 10.5111C9.51856 9.50371 10.7692 9 12.2631 9C13.1822 9 14.0506 9.21492 14.8684 9.64477C15.6862 10.0746 16.3968 10.691 17 11.494C17.6032 10.691 18.3138 10.0746 19.1316 9.64477C19.9494 9.21492 20.8178 9 21.7369 9C23.2308 9 24.4814 9.50371 25.4889 10.5111C26.4963 11.5186 27 12.7692 27 14.2631C27 15.0162 26.8674 15.7584 26.6022 16.4899C26.337 17.2213 25.8708 18.0307 25.2034 18.918C24.5361 19.8053 23.6336 20.8178 22.4959 21.9555C21.3583 23.0931 19.9136 24.4534 18.1619 26.0364L17 27.0809ZM17 24.9474C18.6842 23.4319 20.0702 22.1329 21.1579 21.0506C22.2456 19.9683 23.1053 19.028 23.7369 18.2298C24.3684 17.4315 24.807 16.7227 25.0527 16.1032C25.2983 15.4838 25.4211 14.8704 25.4211 14.2631C25.4211 13.2105 25.0702 12.3333 24.3684 11.6316C23.6667 10.9298 22.7895 10.5789 21.7369 10.5789C20.9055 10.5789 20.1373 10.8148 19.4322 11.2864C18.7271 11.7581 18.1687 12.4143 17.7571 13.2551H16.2429C15.8246 12.4076 15.2645 11.7496 14.5628 11.2813C13.861 10.8131 13.0945 10.5789 12.2631 10.5789C11.2173 10.5789 10.3418 10.9298 9.63661 11.6316C8.93149 12.3333 8.57893 13.2105 8.57893 14.2631C8.57893 14.8704 8.70173 15.4838 8.94735 16.1032C9.19296 16.7227 9.63156 17.4315 10.2631 18.2298C10.8947 19.028 11.7544 19.9666 12.8421 21.0456C13.9298 22.1245 15.3158 23.4251 17 24.9474Z" fill="#136849"/>
</svg>
