<svg width="25" height="25" viewBox="0 0 25 25" fill="none" xmlns="http://www.w3.org/2000/svg">
<path fill-rule="evenodd" clip-rule="evenodd" d="M0.4375 3.27163C0.4375 1.70639 1.70639 0.4375 3.27163 0.4375H22.1659C23.7312 0.4375 25 1.7064 25 3.27163V12.7188C25 13.2405 24.577 13.6635 24.0553 13.6635C23.5336 13.6635 23.1106 13.2405 23.1106 12.7188V3.27163C23.1106 2.74988 22.6876 2.32692 22.1659 2.32692H3.27163C2.74989 2.32692 2.32692 2.74989 2.32692 3.27163V22.1659C2.32692 22.6876 2.74988 23.1106 3.27163 23.1106H12.7188C13.2405 23.1106 13.6635 23.5336 13.6635 24.0553C13.6635 24.577 13.2405 25 12.7188 25H3.27163C1.7064 25 0.4375 23.7312 0.4375 22.1659V3.27163Z" fill="#12AD5F"/>
<path fill-rule="evenodd" clip-rule="evenodd" d="M17.7572 14.9226C16.1921 14.9226 14.9231 16.1916 14.9231 17.7568C14.9231 19.322 16.1921 20.5909 17.7572 20.5909C19.3224 20.5909 20.5914 19.322 20.5914 17.7568C20.5914 16.1916 19.3224 14.9226 17.7572 14.9226ZM13.0337 17.7568C13.0337 15.148 15.1485 13.0332 17.7572 13.0332C20.366 13.0332 22.4808 15.148 22.4808 17.7568C22.4808 20.3655 20.366 22.4803 17.7572 22.4803C15.1485 22.4803 13.0337 20.3655 13.0337 17.7568Z" fill="#12AD5F"/>
<path fill-rule="evenodd" clip-rule="evenodd" d="M20.1685 19.6867C20.4944 19.2792 21.0889 19.2132 21.4963 19.539L24.6453 22.0583C25.0528 22.3843 25.1188 22.9788 24.7929 23.3862C24.4669 23.7936 23.8725 23.8596 23.465 23.5337L20.316 21.0144C19.9086 20.6886 19.8425 20.094 20.1685 19.6867Z" fill="#12AD5F"/>
<path fill-rule="evenodd" clip-rule="evenodd" d="M5.47595 7.68104C5.47595 7.15929 5.89892 6.73633 6.42066 6.73633H19.0168C19.5385 6.73633 19.9615 7.15929 19.9615 7.68104C19.9615 8.20278 19.5385 8.62575 19.0168 8.62575H6.42066C5.89892 8.62575 5.47595 8.20278 5.47595 7.68104Z" fill="#12AD5F"/>
<path fill-rule="evenodd" clip-rule="evenodd" d="M5.47595 12.7181C5.47595 12.1964 5.89892 11.7734 6.42066 11.7734H11.4591C11.9809 11.7734 12.4038 12.1964 12.4038 12.7181C12.4038 13.2399 11.9809 13.6629 11.4591 13.6629H6.42066C5.89892 13.6629 5.47595 13.2399 5.47595 12.7181Z" fill="#12AD5F"/>
</svg>
