<svg width="15" height="19" viewBox="0 0 15 19" fill="none" xmlns="http://www.w3.org/2000/svg">
<mask id="mask0_107_467" style="mask-type:luminance" maskUnits="userSpaceOnUse" x="0" y="0" width="15" height="19">
<path fill-rule="evenodd" clip-rule="evenodd" d="M7.5 18.7998C7.35211 18.7997 7.20755 18.7559 7.0845 18.6738C7.01925 18.6303 6.91425 18.5568 6.771 18.4548C6.53475 18.2846 6.26775 18.0798 5.97825 17.8548C5.12838 17.1806 4.32644 16.4481 3.57825 15.6626C1.2045 13.1508 0 10.6743 0 8.2998C0 4.15767 3.35786 0.799805 7.5 0.799805C11.6421 0.799805 15 4.15767 15 8.2998C15 10.6751 13.7955 13.1516 11.4195 15.6596C10.6715 16.4453 9.86959 17.1778 9.0195 17.8518C8.75325 18.0633 8.48625 18.2666 8.22675 18.4518C8.058 18.5741 7.9545 18.6438 7.9155 18.6701C7.79287 18.7534 7.64828 18.7986 7.5 18.7998ZM7.50011 2.29991C4.18794 2.30363 1.50383 4.98775 1.50011 8.29991C1.50011 10.2792 2.56661 12.4077 4.66961 14.6277C5.36867 15.3624 6.11825 16.0473 6.91286 16.6774C7.10861 16.8342 7.30661 16.9857 7.50011 17.1274C7.69511 16.9834 7.89311 16.8274 8.08736 16.6774C8.88196 16.0473 9.63154 15.3624 10.3306 14.6277C12.4336 12.4084 13.5001 10.2792 13.5001 8.29991C13.4964 4.98775 10.8123 2.30363 7.50011 2.29991ZM7.50005 11.3001C5.8432 11.3001 4.50005 9.95698 4.50005 8.30013C4.50005 6.64328 5.8432 5.30013 7.50005 5.30013C9.15691 5.30013 10.5001 6.64328 10.5001 8.30013C10.5001 9.09578 10.184 9.85884 9.62138 10.4215C9.05877 10.9841 8.2957 11.3001 7.50005 11.3001ZM7.49989 6.80024C6.67146 6.80024 5.99989 7.47181 5.99989 8.30024C5.99989 9.12867 6.67146 9.80024 7.49989 9.80024C8.32832 9.80024 8.99989 9.12867 8.99989 8.30024C8.99989 7.47181 8.32832 6.80024 7.49989 6.80024Z" fill="white"/>
</mask>
<g mask="url(#mask0_107_467)">
<rect x="-1.50012" y="0.799805" width="18" height="18" fill="#FAE7AF"/>
</g>
</svg>
