<svg width="124" height="124" viewBox="0 0 124 124" fill="none" xmlns="http://www.w3.org/2000/svg">
<path fill-rule="evenodd" clip-rule="evenodd" d="M100.717 48.4375C100.717 47.368 99.8498 46.5 98.7804 46.5H9.66158C8.59217 46.5 7.72485 47.368 7.72485 48.4375V114.312C7.72485 115.382 8.59217 116.25 9.66158 116.25H98.7804C99.8498 116.25 100.717 115.382 100.717 114.312V48.4375Z" fill="#FAE7AF"/>
<path fill-rule="evenodd" clip-rule="evenodd" d="M48.4375 47.9707H60.0625V115.756H48.4375V47.9707Z" fill="#12AD5F"/>
<path fill-rule="evenodd" clip-rule="evenodd" d="M115.919 64.3383C116.454 63.4121 116.135 62.2262 115.21 61.6922L31.3313 13.2846C30.406 12.7506 29.2196 13.0681 28.6848 13.9943L18.9973 30.773C18.4626 31.6992 18.781 32.8851 19.7063 33.4191L103.585 81.8267C104.51 82.3607 105.697 82.0432 106.231 81.117L115.919 64.3383Z" fill="#FFF0AF"/>
<path fill-rule="evenodd" clip-rule="evenodd" d="M66.6113 33.7207L80.0343 41.4707L68.4093 61.6052L54.9863 53.8552L66.6113 33.7207Z" fill="#12AD5F"/>
<path fill-rule="evenodd" clip-rule="evenodd" d="M89.7836 44.5301L93.771 33.6143C93.771 33.6143 109.614 45.8369 112.376 47.877C114.888 49.7328 104.144 48.9942 103.48 50.8136C102.815 52.6329 111.505 58.9931 108.389 58.7928C104.962 58.5721 89.7836 44.5301 89.7836 44.5301Z" fill="#136849"/>
<path fill-rule="evenodd" clip-rule="evenodd" d="M58.7296 27.2269L66.1929 18.3105C66.1929 18.3105 47.676 10.6988 44.5263 9.32602C41.6614 8.07791 47.6767 17.0174 46.4328 18.5035C45.1889 19.9895 35.3301 15.642 37.063 18.2424C38.9689 21.1013 58.7296 27.2269 58.7296 27.2269Z" fill="#136849"/>
<path fill-rule="evenodd" clip-rule="evenodd" d="M105.842 35.136C106.017 34.0469 102.183 32.3488 100.378 31.9798C96.3964 31.1645 78.044 33.1278 78.044 33.1278L74.7361 38.8526C74.7361 38.8526 86.6565 48.0207 89.3516 51.0622C90.5732 52.4417 93.9592 54.914 94.8154 54.2184C96.3407 52.9786 96.6696 46.8056 98.5073 43.6251C100.345 40.4447 105.529 37.0765 105.842 35.136Z" fill="#12AD5F"/>
<path fill-rule="evenodd" clip-rule="evenodd" d="M59.4328 7.73919C60.289 7.0436 63.675 9.51589 64.8966 10.8954C67.5917 13.937 75.0574 30.8144 75.0574 30.8144L71.7495 36.5391C71.7495 36.5391 57.8518 30.7931 53.8702 29.9778C52.0648 29.6088 48.2315 27.9107 48.4065 26.8216C48.7189 24.8811 53.9032 21.5129 55.7409 18.3325C57.5786 15.1521 57.9075 8.97906 59.4328 7.73919Z" fill="#12AD5F"/>
<path fill-rule="evenodd" clip-rule="evenodd" d="M79.4693 34.5523C80.5411 32.698 79.908 30.3283 78.054 29.2578C76.1999 28.1873 73.8296 28.823 72.7578 30.6773L70.0416 35.3764C69.7849 35.8205 69.7143 36.3494 69.8475 36.8466C69.9792 37.3429 70.305 37.7663 70.7496 38.0231L74.1054 39.9606C74.55 40.2173 75.0798 40.2879 75.5757 40.1539C76.0733 40.0209 76.4964 39.6955 76.7531 39.2514C77.4986 37.9617 78.5529 36.1378 79.4693 34.5523Z" fill="#FAE7AF"/>
</svg>
