<svg width="68" height="66" viewBox="0 0 68 66" fill="none" xmlns="http://www.w3.org/2000/svg">
<g filter="url(#filter0_d_368_1330)">
<ellipse cx="34" cy="33.91" rx="30" ry="28.91" fill="#12AD5F"/>
</g>
<path d="M45.3331 50H22.6669C21.5644 50 20.6669 49.1025 20.6669 48V34.6669C20.6669 34.2988 20.9656 34 21.3337 34H46.6669C47.035 34 47.3337 34.2988 47.3337 34.6669V48C47.3337 49.1025 46.4362 50 45.3337 50H45.3331ZM22 35.3331V48C22 48.3669 22.3 48.6669 22.6669 48.6669H45.3331C45.7 48.6669 46 48.3669 46 48V35.3331H22Z" fill="white"/>
<path d="M48 35.333H20C18.8975 35.333 18 34.4355 18 33.333V29.333C18 28.2305 18.8975 27.333 20 27.333H48C49.1025 27.333 50 28.2305 50 29.333V33.333C50 34.4355 49.1025 35.333 48 35.333ZM20 28.6668C19.6331 28.6668 19.3331 28.9668 19.3331 29.3336V33.3336C19.3331 33.7005 19.6331 34.0005 20 34.0005H48C48.3669 34.0005 48.6669 33.7005 48.6669 33.3336V29.3336C48.6669 28.9668 48.3669 28.6668 48 28.6668H20Z" fill="white"/>
<path d="M34 28.6669C33.8069 28.6669 33.6225 28.5844 33.4962 28.4362C33.3694 28.2906 33.3125 28.0975 33.34 27.9069C33.3544 27.8069 34.8456 18 42.6669 18C46.1119 18 47.3344 19.8613 47.3344 21.4544C47.3344 24.4488 43.1969 28.6663 34 28.6663V28.6669ZM42.6669 19.3331C37.1844 19.3331 35.315 25.18 34.815 27.32C42.1206 27.0931 46.0019 23.8319 46.0019 21.4544C46.0019 20.8625 45.7525 20.3744 45.2631 20.0075C44.6762 19.5662 43.7775 19.3331 42.6669 19.3331Z" fill="white"/>
<path d="M34.0012 28.6669C24.8037 28.6669 20.6669 24.4494 20.6669 21.455C20.6669 20.4494 21.1187 19.5562 21.9375 18.9419C22.7575 18.3256 23.9319 18 25.3344 18C33.1556 18 34.6462 27.8069 34.6612 27.9069C34.6894 28.0988 34.6319 28.2906 34.505 28.4362C34.3781 28.5844 34.1944 28.6669 34.0012 28.6669ZM25.3344 19.3331C23.2769 19.3331 22 20.145 22 21.4544C22 23.8331 25.8837 27.0944 33.1931 27.3212C32.7094 25.1681 30.8862 19.3331 25.3344 19.3331Z" fill="white"/>
<path d="M34 49.9999C33.6319 49.9999 33.3331 49.7011 33.3331 49.333V27.9999C33.3331 27.6318 33.6319 27.333 34 27.333C34.3681 27.333 34.6669 27.6318 34.6669 27.9999V49.333C34.6669 49.7011 34.3681 49.9999 34 49.9999Z" fill="white"/>
<defs>
<filter id="filter0_d_368_1330" x="0" y="0" width="68" height="65.8201" filterUnits="userSpaceOnUse" color-interpolation-filters="sRGB">
<feFlood flood-opacity="0" result="BackgroundImageFix"/>
<feColorMatrix in="SourceAlpha" type="matrix" values="0 0 0 0 0 0 0 0 0 0 0 0 0 0 0 0 0 0 127 0" result="hardAlpha"/>
<feOffset dy="-1"/>
<feGaussianBlur stdDeviation="2"/>
<feComposite in2="hardAlpha" operator="out"/>
<feColorMatrix type="matrix" values="0 0 0 0 0 0 0 0 0 0 0 0 0 0 0 0 0 0 0.08 0"/>
<feBlend mode="normal" in2="BackgroundImageFix" result="effect1_dropShadow_368_1330"/>
<feBlend mode="normal" in="SourceGraphic" in2="effect1_dropShadow_368_1330" result="shape"/>
</filter>
</defs>
</svg>
