<svg width="24" height="21" viewBox="0 0 24 21" fill="none" xmlns="http://www.w3.org/2000/svg">
<path d="M7.58663 6.4948C7.39735 6.45002 7.20901 6.57409 7.16635 6.77131C7.09815 7.08586 6.95696 7.35637 6.74677 7.57537C6.03835 8.31331 4.77009 8.19319 3.91997 7.30759C3.46509 6.83381 3.03408 6.04231 2.82187 5.29133C2.6009 4.50915 2.63789 3.89001 2.92336 3.59269C3.54356 2.94645 5.54724 3.64914 6.48966 4.63088C6.73421 4.88557 6.92152 5.17741 7.04649 5.49846C7.11952 5.68591 7.32455 5.77619 7.50432 5.70021C7.68427 5.62419 7.77099 5.41061 7.69801 5.22331C7.53746 4.81105 7.29821 4.43747 6.98677 4.11305C6.44677 3.55055 5.5906 3.04147 4.75247 2.78458C3.73233 2.47184 2.90606 2.57501 2.42615 3.07492C1.94625 3.57487 1.8472 4.43547 2.14739 5.49821C2.39404 6.37126 2.88272 7.26306 3.42272 7.82561C4.03453 8.46287 4.82081 8.78894 5.56899 8.78894C6.1958 8.78894 6.7959 8.55999 7.24383 8.09343C7.54524 7.77942 7.75552 7.37815 7.85204 6.93279C7.89498 6.73532 7.77605 6.53933 7.58663 6.4948Z" fill="#12AD5F"/>
<path d="M23.6485 4.59343C23.2243 4.19128 22.5676 4.21413 22.1536 4.64538L18.9508 7.98172C18.7997 8.13914 18.5538 8.13919 18.4028 7.98177C18.2516 7.82429 18.2516 7.56824 18.4028 7.41092L21.6201 4.05954C22.0385 3.62365 22.0385 2.91447 21.62 2.47858C21.2016 2.04279 20.5208 2.04284 20.1024 2.47858L16.885 5.83C16.8118 5.90627 16.7145 5.94827 16.611 5.94827C16.5075 5.94827 16.4102 5.90627 16.337 5.82995C16.1858 5.67258 16.1858 5.41648 16.337 5.25915L19.5542 1.90778C19.757 1.69665 19.8686 1.41598 19.8686 1.11735C19.8686 0.818715 19.757 0.53805 19.5543 0.326819C19.1359 -0.108924 18.4551 -0.108972 18.0366 0.326868L17.171 1.22848C17.0337 1.3715 17.0337 1.60338 17.171 1.7463C17.3083 1.88927 17.5309 1.88932 17.6682 1.74626L18.5337 0.844643C18.6036 0.77184 18.6966 0.731703 18.7954 0.731703C18.8942 0.731703 18.9872 0.771791 19.0571 0.844643C19.127 0.917446 19.1656 1.01427 19.1656 1.1172C19.1656 1.22013 19.1271 1.31696 19.0571 1.38976L15.8398 4.74118C15.4146 5.18415 15.4146 5.90491 15.8398 6.34778C16.0458 6.56238 16.3196 6.68054 16.611 6.68054C16.9023 6.68054 17.1762 6.56233 17.3821 6.34778L20.5994 2.9964C20.7438 2.84616 20.9786 2.84611 21.1228 2.9964C21.2671 3.1467 21.2671 3.39128 21.1228 3.54152L17.9055 6.8929C17.4803 7.33577 17.4803 8.05657 17.9055 8.49954C18.3306 8.94241 19.0226 8.94241 19.4478 8.49954L22.6507 5.16316C22.7964 5.01145 23.0317 4.99895 23.1752 5.13498C23.2512 5.20705 23.2944 5.30525 23.2968 5.41155C23.2992 5.51804 23.2607 5.61809 23.1885 5.69333L19.4487 9.58904C18.1948 10.8951 16.3827 11.2942 15.0421 10.5596C14.8989 10.4812 14.7227 10.5146 14.6153 10.6408L9.71118 16.4039C9.58237 16.5552 9.59573 16.7866 9.74109 16.9207C9.80803 16.9826 9.89123 17.0129 9.97415 17.0129C10.0712 17.0129 10.1679 16.9713 10.2374 16.8896L11.6586 15.2196L15.3399 19.5457C15.7193 19.9914 16.2431 20.2467 16.8147 20.2646C16.8361 20.2653 16.8573 20.2656 16.8786 20.2656C17.4263 20.2656 17.9389 20.0446 18.3281 19.6392C18.7325 19.218 18.9458 18.6581 18.9286 18.0626C18.9114 17.4672 18.6662 16.9217 18.2383 16.5265L13.931 12.5493L14.9661 11.3329C16.5437 12.0413 18.5515 11.5595 19.9458 10.1071L23.6857 6.2114C23.8921 5.99631 24.0066 5.69861 23.9997 5.39451C23.9928 5.08601 23.868 4.80158 23.6485 4.59343ZM17.7719 17.0745C18.0533 17.3344 18.2145 17.6931 18.2258 18.0846C18.2371 18.4762 18.0969 18.8443 17.8309 19.1213C17.565 19.3982 17.2114 19.5441 16.8358 19.5325C16.4598 19.5208 16.1155 19.3528 15.866 19.0598L12.1282 14.6675L13.4646 13.0972L17.7719 17.0745Z" fill="#12AD5F"/>
<path d="M9.0012 17.7903C8.85584 17.6561 8.6337 17.67 8.50493 17.8214L7.38612 19.1361C7.15258 19.4105 6.81691 19.5753 6.46516 19.588C6.12339 19.6003 5.80089 19.4719 5.5601 19.2258C5.31039 18.9707 5.17773 18.6298 5.1865 18.2658C5.19531 17.9018 5.34424 17.5683 5.60575 17.3268L13.784 9.77513C13.9052 9.66331 13.9374 9.47977 13.862 9.3306C13.1567 7.93411 13.5398 6.04656 14.7937 4.74045L16.7179 2.73615C16.8552 2.59308 16.8552 2.36125 16.7179 2.21828C16.5805 2.07531 16.358 2.07531 16.2207 2.21828L14.2966 4.22258C12.9023 5.67497 12.4397 7.76658 13.1198 9.40984L11.8253 10.6051L9.72917 8.66946C10.459 6.92634 9.96992 4.70119 8.48759 3.157C7.55252 2.18293 6.06635 1.30036 4.60914 0.853772C2.88634 0.325695 1.50615 0.48424 0.722679 1.30021C-0.0606976 2.11627 -0.212948 3.55397 0.294053 5.34861C0.722867 6.86658 1.57013 8.41458 2.5052 9.3886C3.98753 10.9328 6.12382 11.4422 7.79712 10.682L9.53299 12.7218L5.13948 16.7787C4.73631 17.151 4.49734 17.6862 4.48375 18.2473C4.47016 18.8082 4.68306 19.3555 5.06781 19.7486C5.43072 20.1195 5.90814 20.3212 6.41885 20.3212C6.44238 20.3212 6.46605 20.3208 6.48972 20.3199C7.03305 20.3001 7.55154 20.0457 7.91224 19.6218L9.03106 18.3072C9.15987 18.1559 9.14651 17.9245 9.0012 17.7903ZM8.14737 9.98963C8.04002 9.86341 7.86387 9.82996 7.72061 9.90843C6.28446 10.6954 4.34425 10.2688 3.0024 8.87088C2.15842 7.99182 1.36009 6.52815 0.968492 5.14196C0.543757 3.63849 0.635304 2.42697 1.21984 1.81823C1.80428 1.20929 2.9672 1.11403 4.41067 1.55646C5.74131 1.96437 7.14649 2.79596 7.99043 3.67502C9.33237 5.07287 9.74196 7.09392 8.98648 8.58987C8.91115 8.73909 8.94331 8.92259 9.06443 9.0344L11.2955 11.0945L10.0591 12.2362L8.14737 9.98963Z" fill="#12AD5F"/>
</svg>
